/* XPM */
static char * close_active_xpm[] = {
"32 32 26 1",
" 	c None",
".	c #1D292D",
"+	c #061216",
"@	c #0A1E24",
"#	c #133942",
"$	c #184A57",
"%	c #1B5361",
"&	c #0A1E23",
"*	c #071418",
"=	c #123A44",
"-	c #1C5563",
";	c #1C5664",
">	c #133A43",
",	c #071417",
"'	c #174551",
")	c #174550",
"!	c #133A44",
"~	c #0A1D23",
"{	c #133842",
"]	c #184B58",
"^	c #1B5360",
"/	c #1A5260",
"(	c #123841",
"_	c #0A1D22",
":	c #174450",
"<	c #17444F",
"................................",
"++++++++++++++++++++++++++++++++",
"++++++++++++++++++++++++++++++++",
"++++++++++++++++++++++++++++++++",
"++++++++++++++++++++++++++++++++",
"++++++++++++++++++++++++++++++++",
"++++++++++++++++++++++++++++++++",
"++++++++++++++++++++++++++++++++",
"++++++++++++@#$%%$#&++++++++++++",
"++++++++++*=-;;;;;;->,++++++++++",
"+++++++++*';;;;;;;;;;),+++++++++",
"+++++++++!;;;;;;;;;;;;>+++++++++",
"++++++++@-;;;;;;;;;;;;-~++++++++",
"++++++++#;;;;;;;;;;;;;;{++++++++",
"++++++++];;;;;;;;;;;;;;$++++++++",
"++++++++^;;;;;;;;;;;;;;^++++++++",
"++++++++^;;;;;;;;;;;;;;/++++++++",
"++++++++];;;;;;;;;;;;;;$++++++++",
"++++++++#;;;;;;;;;;;;;;(++++++++",
"++++++++&-;;;;;;;;;;;;-_++++++++",
"+++++++++>;;;;;;;;;;;;#+++++++++",
"+++++++++,:;;;;;;;;;;<*+++++++++",
"++++++++++,>-;;;;;;-#*++++++++++",
"++++++++++++~{$^^$(_++++++++++++",
"++++++++++++++++++++++++++++++++",
"++++++++++++++++++++++++++++++++",
"++++++++++++++++++++++++++++++++",
"++++++++++++++++++++++++++++++++",
"++++++++++++++++++++++++++++++++",
"++++++++++++++++++++++++++++++++",
"++++++++++++++++++++++++++++++++",
"++++++++++++++++++++++++++++++++"};
