/* XPM */
static char * close_inactive_xpm[] = {
"32 32 20 1",
" 	c None",
".	c #1D292D",
"+	c #061216",
"@	c #091C21",
"#	c #103038",
"$	c #143E49",
"%	c #164550",
"&	c #103039",
"*	c #091B20",
"=	c #071417",
"-	c #10313A",
";	c #174652",
">	c #174753",
",	c #103139",
"'	c #133A44",
")	c #164450",
"!	c #16444F",
"~	c #102F38",
"{	c #133943",
"]	c #061318",
"................................",
"++++++++++++++++++++++++++++++++",
"++++++++++++++++++++++++++++++++",
"++++++++++++++++++++++++++++++++",
"++++++++++++++++++++++++++++++++",
"++++++++++++++++++++++++++++++++",
"++++++++++++++++++++++++++++++++",
"++++++++++++++++++++++++++++++++",
"++++++++++++@#$%%$&*++++++++++++",
"++++++++++=-;>>>>>>;,=++++++++++",
"+++++++++='>>>>>>>>>>'=+++++++++",
"+++++++++->>>>>>>>>>>>,+++++++++",
"++++++++@;>>>>>>>>>>>>;*++++++++",
"++++++++#>>>>>>>>>>>>>>#++++++++",
"++++++++$>>>>>>>>>>>>>>$++++++++",
"++++++++%>>>>>>>>>>>>>>)++++++++",
"++++++++)>>>>>>>>>>>>>>!++++++++",
"++++++++$>>>>>>>>>>>>>>$++++++++",
"++++++++&>>>>>>>>>>>>>>~++++++++",
"++++++++*;>>>>>>>>>>>>;*++++++++",
"+++++++++,>>>>>>>>>>>>#+++++++++",
"+++++++++={>>>>>>>>>>{]+++++++++",
"++++++++++=,;>>>>>>;#]++++++++++",
"++++++++++++*#$%%$~*++++++++++++",
"++++++++++++++++++++++++++++++++",
"++++++++++++++++++++++++++++++++",
"++++++++++++++++++++++++++++++++",
"++++++++++++++++++++++++++++++++",
"++++++++++++++++++++++++++++++++",
"++++++++++++++++++++++++++++++++",
"++++++++++++++++++++++++++++++++",
"++++++++++++++++++++++++++++++++"};
