/* XPM */
static char * maximize_toggled_prelight_xpm[] = {
"32 32 30 1",
" 	c None",
".	c #1D292D",
"+	c #061216",
"@	c #0D272E",
"#	c #1C5664",
"$	c #267589",
"%	c #2A849A",
"&	c #1C5564",
"*	c #071619",
"=	c #1C5867",
"-	c #2C889F",
";	c #2C89A0",
">	c #2B879E",
",	c #1D5866",
"'	c #071519",
")	c #236B7D",
"!	c #1C5868",
"~	c #1C5765",
"{	c #194D5B",
"]	c #0C262D",
"^	c #1B5463",
"/	c #26758A",
"(	c #257488",
"_	c #2A8499",
":	c #2A8399",
"<	c #2A8298",
"[	c #1B5462",
"}	c #0C262C",
"|	c #226A7C",
"1	c #22697B",
"................................",
"++++++++++++++++++++++++++++++++",
"++++++++++++++++++++++++++++++++",
"++++++++++++++++++++++++++++++++",
"++++++++++++++++++++++++++++++++",
"++++++++++++++++++++++++++++++++",
"++++++++++++++++++++++++++++++++",
"++++++++++++++++++++++++++++++++",
"++++++++++++@#$%%$&@++++++++++++",
"++++++++++*=-;;;;;;>,'++++++++++",
"+++++++++*);;;;;;;;;;)'+++++++++",
"+++++++++!;;;;;;;;;;;;~+++++++++",
"++++++++@-;;;;{{{{{{;;>]++++++++",
"++++++++#;;;;;;;;;;{;;;^++++++++",
"++++++++/;;;++++++;{;;;(++++++++",
"++++++++_;;;+;;;;+;{;;;:++++++++",
"++++++++:;;;+;;;;+;{;;;<++++++++",
"++++++++/;;;+;;;;+;{;;;(++++++++",
"++++++++&;;;+;;;;+;;;;;[++++++++",
"++++++++@>;;++++++;;;;>}++++++++",
"+++++++++,;;;;;;;;;;;;#+++++++++",
"+++++++++'|;;;;;;;;;;1'+++++++++",
"++++++++++'~>;;;;;;>#'++++++++++",
"++++++++++++]^(__([}++++++++++++",
"++++++++++++++++++++++++++++++++",
"++++++++++++++++++++++++++++++++",
"++++++++++++++++++++++++++++++++",
"++++++++++++++++++++++++++++++++",
"++++++++++++++++++++++++++++++++",
"++++++++++++++++++++++++++++++++",
"++++++++++++++++++++++++++++++++",
"++++++++++++++++++++++++++++++++"};
