/* XPM */
static char *menu_xpm[] = {
"32 32 32 1",
" 	c None",
"B	c #1D292D",
"C	c #061216",
"D	c #0D272E",
"E	c #1C5664",
"F	c #267589",
"G	c #2A849A",
"H	c #1C5564",
"I	c #071619",
"J	c #1C5867",
"K	c #2C889F",
"L	c #2C89A0",
"M	c #2B879E",
"N	c #1D5866",
"O	c #071519",
"P	c #236B7D",
"Q	c #1C5868",
"R	c #1C5765",
"S	c #15414C",
"T	c #0C262D",
"U	c #247284",
"V	c #1B5463",
"W	c #26758A",
"X	c #257488",
"Y	c #2A8499",
"Z	c #1C5969",
"a	c #2A8399",
"b	c #2A8298",
"c	c #1B5462",
"d	c #0C262C",
"e	c #226A7C",
"f	c #22697B",
"BBBBBBBBBBBBBBBBBBBBBBBBBBBBBBBB",
"CCCCCCCCCCCCCCCCCCCCCCCCCCCCCCCC",
"CCCCCCCCCCCCCCCCCCCCCCCCCCCCCCCC",
"CCCCCCCCCCCCCCCCCCCCCCCCCCCCCCCC",
"CCCCCCCCCCCCCCCCCCCCCCCCCCCCCCCC",
"CCCCCCCCCCCCCCCCCCCCCCCCCCCCCCCC",
"CCCCCCCCCCCCCCCCCCCCCCCCCCCCCCCC",
"CCCCCCCCCCCCCCCCCCCCCCCCCCCCCCCC",
"CCCCCCCCCCCCDEFGGFHDCCCCCCCCCCCC",
"CCCCCCCCCCIJKLLLLLLMNOCCCCCCCCCC",
"CCCCCCCCCIPLLLLLLLLLLPOCCCCCCCCC",
"CCCCCCCCCQLLLLLLLLLLLLRCCCCCCCCC",
"CCCCCCCCDKLLCCCCCCCCLLMTCCCCCCCC",
"CCCCCCCCELLGGGGGGGGGGLLVCCCCCCCC",
"CCCCCCCCWLLLLLLLLLLLLLLXCCCCCCCC",
"CCCCCCCCYLLLCCCCCCCCLLLaCCCCCCCC",
"CCCCCCCCaLLGGGGGGGGGLLLbCCCCCCCC",
"CCCCCCCCWLLLLLLGGGGLLLLXCCCCCCCC",
"CCCCCCCCHLLLCCCCCCCCLLLcCCCCCCCC",
"CCCCCCCCDMLLGGGGGGGGLLMdCCCCCCCC",
"CCCCCCCCCNLLLLLLLLLLLLECCCCCCCCC",
"CCCCCCCCCOeLLLLLLLLLLfOCCCCCCCCC",
"CCCCCCCCCCORMLLLLLLMEOCCCCCCCCCC",
"CCCCCCCCCCCCTVXYYXcdCCCCCCCCCCCC",
"CCCCCCCCCCCCCCCCCCCCCCCCCCCCCCCC",
"CCCCCCCCCCCCCCCCCCCCCCCCCCCCCCCC",
"CCCCCCCCCCCCCCCCCCCCCCCCCCCCCCCC",
"CCCCCCCCCCCCCCCCCCCCCCCCCCCCCCCC",
"CCCCCCCCCCCCCCCCCCCCCCCCCCCCCCCC",
"CCCCCCCCCCCCCCCCCCCCCCCCCCCCCCCC",
"CCCCCCCCCCCCCCCCCCCCCCCCCCCCCCCC",
"CCCCCCCCCCCCCCCCCCCCCCCCCCCCCCCC"
};
