/* XPM */
static char * shade_prelight_xpm[] = {
"32 32 42 1",
" 	c None",
".	c #1D292D",
"+	c #061216",
"@	c #0D272E",
"#	c #1C5664",
"$	c #267589",
"%	c #2A849A",
"&	c #1C5564",
"*	c #071619",
"=	c #1C5867",
"-	c #2C889F",
";	c #2C89A0",
">	c #2B879E",
",	c #1D5866",
"'	c #071519",
")	c #236B7D",
"!	c #1C5868",
"~	c #2A859B",
"{	c #1C5765",
"]	c #2A8499",
"^	c #1A515F",
"/	c #0C262D",
"(	c #216576",
"_	c #0D282F",
":	c #1A515E",
"<	c #1B5463",
"[	c #26758A",
"}	c #298097",
"|	c #123944",
"1	c #143D49",
"2	c #297F95",
"3	c #257488",
"4	c #247083",
"5	c #0E2931",
"6	c #216677",
"7	c #2A8399",
"8	c #287F95",
"9	c #2A8298",
"0	c #1B5462",
"a	c #0C262C",
"b	c #226A7C",
"c	c #22697B",
"................................",
"++++++++++++++++++++++++++++++++",
"++++++++++++++++++++++++++++++++",
"++++++++++++++++++++++++++++++++",
"++++++++++++++++++++++++++++++++",
"++++++++++++++++++++++++++++++++",
"++++++++++++++++++++++++++++++++",
"++++++++++++++++++++++++++++++++",
"++++++++++++@#$%%$&@++++++++++++",
"++++++++++*=-;;;;;;>,'++++++++++",
"+++++++++*);;;;;;;;;;)'+++++++++",
"+++++++++!;;;;;~~;;;;;{+++++++++",
"++++++++@-;;;]^@@^];;;>/++++++++",
"++++++++#;;;(_:]]:_(;;;<++++++++",
"++++++++[;}|12;;;;21|};3++++++++",
"++++++++]456;;;;;;;;6547++++++++",
"++++++++738;;;;;;;;;;839++++++++",
"++++++++[;;;;;;;;;;;;;;3++++++++",
"++++++++&;;;;;;;;;;;;;;0++++++++",
"++++++++@>;;;;;;;;;;;;>a++++++++",
"+++++++++,;;;;;;;;;;;;#+++++++++",
"+++++++++'b;;;;;;;;;;c'+++++++++",
"++++++++++'{>;;;;;;>#'++++++++++",
"++++++++++++/<3]]30a++++++++++++",
"++++++++++++++++++++++++++++++++",
"++++++++++++++++++++++++++++++++",
"++++++++++++++++++++++++++++++++",
"++++++++++++++++++++++++++++++++",
"++++++++++++++++++++++++++++++++",
"++++++++++++++++++++++++++++++++",
"++++++++++++++++++++++++++++++++",
"++++++++++++++++++++++++++++++++"};
