/* XPM */
static char * shade_toggled_prelight_xpm[] = {
"32 32 42 1",
" 	c None",
".	c #1D292D",
"+	c #061216",
"@	c #0D272E",
"#	c #1C5664",
"$	c #267589",
"%	c #2A849A",
"&	c #1C5564",
"*	c #071619",
"=	c #1C5867",
"-	c #2C889F",
";	c #2C89A0",
">	c #2B879E",
",	c #1D5866",
"'	c #071519",
")	c #236B7D",
"!	c #1C5868",
"~	c #1C5765",
"{	c #0C262D",
"]	c #1B5463",
"^	c #26758A",
"/	c #257488",
"(	c #2A8499",
"_	c #287F95",
":	c #2A8399",
"<	c #247083",
"[	c #0E2931",
"}	c #216677",
"|	c #2A8298",
"1	c #298097",
"2	c #123944",
"3	c #143D49",
"4	c #297F95",
"5	c #216576",
"6	c #0D282F",
"7	c #1A515E",
"8	c #1B5462",
"9	c #1A515F",
"0	c #0C262C",
"a	c #2A859B",
"b	c #226A7C",
"c	c #22697B",
"................................",
"++++++++++++++++++++++++++++++++",
"++++++++++++++++++++++++++++++++",
"++++++++++++++++++++++++++++++++",
"++++++++++++++++++++++++++++++++",
"++++++++++++++++++++++++++++++++",
"++++++++++++++++++++++++++++++++",
"++++++++++++++++++++++++++++++++",
"++++++++++++@#$%%$&@++++++++++++",
"++++++++++*=-;;;;;;>,'++++++++++",
"+++++++++*);;;;;;;;;;)'+++++++++",
"+++++++++!;;;;;;;;;;;;~+++++++++",
"++++++++@-;;;;;;;;;;;;>{++++++++",
"++++++++#;;;;;;;;;;;;;;]++++++++",
"++++++++^;;;;;;;;;;;;;;/++++++++",
"++++++++(/_;;;;;;;;;;_/:++++++++",
"++++++++:<[};;;;;;;;}[<|++++++++",
"++++++++^;1234;;;;4321;/++++++++",
"++++++++&;;;567((765;;;8++++++++",
"++++++++@>;;;(9@@9(;;;>0++++++++",
"+++++++++,;;;;;aa;;;;;#+++++++++",
"+++++++++'b;;;;;;;;;;c'+++++++++",
"++++++++++'~>;;;;;;>#'++++++++++",
"++++++++++++{]/((/80++++++++++++",
"++++++++++++++++++++++++++++++++",
"++++++++++++++++++++++++++++++++",
"++++++++++++++++++++++++++++++++",
"++++++++++++++++++++++++++++++++",
"++++++++++++++++++++++++++++++++",
"++++++++++++++++++++++++++++++++",
"++++++++++++++++++++++++++++++++",
"++++++++++++++++++++++++++++++++"};
