/* XPM */
static char * close_inactive_xpm[] = {
"32 32 26 1",
" 	c None",
".	c #1B3632",
"+	c #03201C",
"@	c #042C27",
"#	c #074940",
"$	c #0A5B51",
"%	c #0B6458",
"&	c #07483F",
"*	c #03221D",
"=	c #074A42",
"-	c #0B665A",
";	c #0B675B",
">	c #074941",
",	c #03211D",
"'	c #09554B",
")	c #09544A",
"!	c #084A41",
"~	c #042C26",
"{	c #07473F",
"]	c #095B51",
"^	c #0A5B50",
"/	c #0A6458",
"(	c #0A6457",
"_	c #0A6358",
":	c #052C26",
"<	c #09554A",
"................................",
"++++++++++++++++++++++++++++++++",
"++++++++++++++++++++++++++++++++",
"++++++++++++++++++++++++++++++++",
"++++++++++++++++++++++++++++++++",
"++++++++++++++++++++++++++++++++",
"++++++++++++++++++++++++++++++++",
"++++++++++++++++++++++++++++++++",
"++++++++++++@#$%%$&@++++++++++++",
"++++++++++*=-;;;;;;->,++++++++++",
"+++++++++*';;;;;;;;;;),+++++++++",
"+++++++++!;;;;;;;;;;;;#+++++++++",
"++++++++@-;;;;;;;;;;;;-~++++++++",
"++++++++#;;;;;;;;;;;;;;{++++++++",
"++++++++];;;;;;;;;;;;;;^++++++++",
"++++++++/;;;;;;;;;;;;;;(++++++++",
"++++++++(;;;;;;;;;;;;;;_++++++++",
"++++++++];;;;;;;;;;;;;;^++++++++",
"++++++++&;;;;;;;;;;;;;;{++++++++",
"++++++++@-;;;;;;;;;;;;-:++++++++",
"+++++++++>;;;;;;;;;;;;#+++++++++",
"+++++++++,);;;;;;;;;;<,+++++++++",
"++++++++++,#-;;;;;;-#,++++++++++",
"++++++++++++~{^//^{:++++++++++++",
"++++++++++++++++++++++++++++++++",
"++++++++++++++++++++++++++++++++",
"++++++++++++++++++++++++++++++++",
"++++++++++++++++++++++++++++++++",
"++++++++++++++++++++++++++++++++",
"++++++++++++++++++++++++++++++++",
"++++++++++++++++++++++++++++++++",
"++++++++++++++++++++++++++++++++"};
