/* XPM */
static char * maximize_prelight_xpm[] = {
"32 32 32 1",
" 	c None",
".	c #1B3632",
"+	c #03201C",
"@	c #12443E",
"#	c #359589",
"$	c #4DCBBC",
"%	c #57E5D4",
"&	c #349488",
"*	c #12433D",
"=	c #052621",
"-	c #37998D",
";	c #5AECDA",
">	c #5BEEDC",
",	c #5AEBD9",
"'	c #36978C",
")	c #052520",
"!	c #45B9AB",
"~	c #44B8AA",
"{	c #379A8D",
"]	c #35978B",
"^	c #11433C",
"/	c #349387",
"(	c #4CCCBD",
"_	c #4CCBBB",
":	c #57E5D3",
"<	c #56E4D2",
"[	c #56E3D2",
"}	c #339287",
"|	c #12423B",
"1	c #44B7A9",
"2	c #44B8A8",
"3	c #05241F",
"................................",
"++++++++++++++++++++++++++++++++",
"++++++++++++++++++++++++++++++++",
"++++++++++++++++++++++++++++++++",
"++++++++++++++++++++++++++++++++",
"++++++++++++++++++++++++++++++++",
"++++++++++++++++++++++++++++++++",
"++++++++++++++++++++++++++++++++",
"++++++++++++@#$%%$&*++++++++++++",
"++++++++++=-;>>>>>>,')++++++++++",
"+++++++++=!>>>>>>>>>>~)+++++++++",
"+++++++++{>>>>>>>>>>>>]+++++++++",
"++++++++@;>>++++++++>>,^++++++++",
"++++++++#>>>+>>>>>>+>>>/++++++++",
"++++++++(>>>+>>>>>>+>>>_++++++++",
"++++++++:>>>+>>>>>>+>>><++++++++",
"++++++++<>>>+>>>>>>+>>>[++++++++",
"++++++++(>>>+>>>>>>+>>>_++++++++",
"++++++++&>>>+>>>>>>+>>>}++++++++",
"++++++++*,>>++++++++>>,|++++++++",
"+++++++++'>>>>>>>>>>>>#+++++++++",
"+++++++++)1>>>>>>>>>>23+++++++++",
"++++++++++)],>>>>>>,#3++++++++++",
"++++++++++++^/_::_}|++++++++++++",
"++++++++++++++++++++++++++++++++",
"++++++++++++++++++++++++++++++++",
"++++++++++++++++++++++++++++++++",
"++++++++++++++++++++++++++++++++",
"++++++++++++++++++++++++++++++++",
"++++++++++++++++++++++++++++++++",
"++++++++++++++++++++++++++++++++",
"++++++++++++++++++++++++++++++++"};
