/* XPM */
static char * maximize_toggled_prelight_xpm[] = {
"32 32 33 1",
" 	c None",
".	c #1B3632",
"+	c #03201C",
"@	c #12443E",
"#	c #359589",
"$	c #4DCBBC",
"%	c #57E5D4",
"&	c #349488",
"*	c #12433D",
"=	c #052621",
"-	c #37998D",
";	c #5AECDA",
">	c #5BEEDC",
",	c #5AEBD9",
"'	c #36978C",
")	c #052520",
"!	c #45B9AB",
"~	c #44B8AA",
"{	c #379A8D",
"]	c #35978B",
"^	c #2F877C",
"/	c #11433C",
"(	c #349387",
"_	c #4CCCBD",
":	c #4CCBBB",
"<	c #57E5D3",
"[	c #56E4D2",
"}	c #56E3D2",
"|	c #339287",
"1	c #12423B",
"2	c #44B7A9",
"3	c #44B8A8",
"4	c #05241F",
"................................",
"++++++++++++++++++++++++++++++++",
"++++++++++++++++++++++++++++++++",
"++++++++++++++++++++++++++++++++",
"++++++++++++++++++++++++++++++++",
"++++++++++++++++++++++++++++++++",
"++++++++++++++++++++++++++++++++",
"++++++++++++++++++++++++++++++++",
"++++++++++++@#$%%$&*++++++++++++",
"++++++++++=-;>>>>>>,')++++++++++",
"+++++++++=!>>>>>>>>>>~)+++++++++",
"+++++++++{>>>>>>>>>>>>]+++++++++",
"++++++++@;>>>>^^^^^^>>,/++++++++",
"++++++++#>>>>>>>>>>^>>>(++++++++",
"++++++++_>>>++++++>^>>>:++++++++",
"++++++++<>>>+>>>>+>^>>>[++++++++",
"++++++++[>>>+>>>>+>^>>>}++++++++",
"++++++++_>>>+>>>>+>^>>>:++++++++",
"++++++++&>>>+>>>>+>>>>>|++++++++",
"++++++++*,>>++++++>>>>,1++++++++",
"+++++++++'>>>>>>>>>>>>#+++++++++",
"+++++++++)2>>>>>>>>>>34+++++++++",
"++++++++++)],>>>>>>,#4++++++++++",
"++++++++++++/(:<<:|1++++++++++++",
"++++++++++++++++++++++++++++++++",
"++++++++++++++++++++++++++++++++",
"++++++++++++++++++++++++++++++++",
"++++++++++++++++++++++++++++++++",
"++++++++++++++++++++++++++++++++",
"++++++++++++++++++++++++++++++++",
"++++++++++++++++++++++++++++++++",
"++++++++++++++++++++++++++++++++"};
