/* XPM */
static char *menu_xpm[] = {
"32 32 35 1",
" 	c None",
"B	c #1B3632",
"C	c #03201C",
"D	c #12443E",
"E	c #359589",
"F	c #4DCBBC",
"G	c #57E5D4",
"H	c #349488",
"I	c #12433D",
"J	c #052621",
"K	c #37998D",
"L	c #5AECDA",
"M	c #5BEEDC",
"N	c #5AEBD9",
"O	c #36978C",
"P	c #052520",
"Q	c #45B9AB",
"R	c #44B8AA",
"S	c #379A8D",
"T	c #35978B",
"U	c #267168",
"V	c #11433C",
"W	c #4AC4B6",
"X	c #349387",
"Y	c #4CCCBD",
"Z	c #4CCBBB",
"a	c #57E5D3",
"b	c #389C8F",
"c	c #56E4D2",
"d	c #56E3D2",
"e	c #339287",
"f	c #12423B",
"g	c #44B7A9",
"h	c #44B8A8",
"i	c #05241F",
"BBBBBBBBBBBBBBBBBBBBBBBBBBBBBBBB",
"CCCCCCCCCCCCCCCCCCCCCCCCCCCCCCCC",
"CCCCCCCCCCCCCCCCCCCCCCCCCCCCCCCC",
"CCCCCCCCCCCCCCCCCCCCCCCCCCCCCCCC",
"CCCCCCCCCCCCCCCCCCCCCCCCCCCCCCCC",
"CCCCCCCCCCCCCCCCCCCCCCCCCCCCCCCC",
"CCCCCCCCCCCCCCCCCCCCCCCCCCCCCCCC",
"CCCCCCCCCCCCCCCCCCCCCCCCCCCCCCCC",
"CCCCCCCCCCCCDEFGGFHICCCCCCCCCCCC",
"CCCCCCCCCCJKLMMMMMMNOPCCCCCCCCCC",
"CCCCCCCCCJQMMMMMMMMMMRPCCCCCCCCC",
"CCCCCCCCCSMMMMMMMMMMMMTCCCCCCCCC",
"CCCCCCCCDLMMCCCCCCCCMMNVCCCCCCCC",
"CCCCCCCCEMMMGGGGGGGGMMMXCCCCCCCC",
"CCCCCCCCYMMMMMMMMMMMMMMZCCCCCCCC",
"CCCCCCCCaMMMCCCCCCCCMMMcCCCCCCCC",
"CCCCCCCCcMMMGGGGGGGGMMMdCCCCCCCC",
"CCCCCCCCYMMMMMMMMMMMMMMZCCCCCCCC",
"CCCCCCCCHMMMCCCCCCCCMMMeCCCCCCCC",
"CCCCCCCCINMMGGGGGGGGMMNfCCCCCCCC",
"CCCCCCCCCOMMMMMMMMMMMMECCCCCCCCC",
"CCCCCCCCCPgMMMMMMMMMMhiCCCCCCCCC",
"CCCCCCCCCCPTNMMMMMMNEiCCCCCCCCCC",
"CCCCCCCCCCCCVXZaaZefCCCCCCCCCCCC",
"CCCCCCCCCCCCCCCCCCCCCCCCCCCCCCCC",
"CCCCCCCCCCCCCCCCCCCCCCCCCCCCCCCC",
"CCCCCCCCCCCCCCCCCCCCCCCCCCCCCCCC",
"CCCCCCCCCCCCCCCCCCCCCCCCCCCCCCCC",
"CCCCCCCCCCCCCCCCCCCCCCCCCCCCCCCC",
"CCCCCCCCCCCCCCCCCCCCCCCCCCCCCCCC",
"CCCCCCCCCCCCCCCCCCCCCCCCCCCCCCCC",
"CCCCCCCCCCCCCCCCCCCCCCCCCCCCCCCC"
};
