<?xml version="1.0" encoding="UTF-8" standalone="no"?>
<!-- Created with Inkscape (http://www.inkscape.org/) -->

<svg
   xmlns:dc="http://purl.org/dc/elements/1.1/"
   xmlns:cc="http://creativecommons.org/ns#"
   xmlns:rdf="http://www.w3.org/1999/02/22-rdf-syntax-ns#"
   xmlns:svg="http://www.w3.org/2000/svg"
   xmlns="http://www.w3.org/2000/svg"
   xmlns:sodipodi="http://sodipodi.sourceforge.net/DTD/sodipodi-0.dtd"
   xmlns:inkscape="http://www.inkscape.org/namespaces/inkscape"
   width="48mm"
   height="48mm"
   viewBox="0 0 48 48"
   version="1.1"
   id="svg821"
   inkscape:version="0.92.4 (5da689c313, 2019-01-14)"
   sodipodi:docname="Logo02.svg">
  <defs
     id="defs815" />
  <sodipodi:namedview
     id="base"
     pagecolor="#ffffff"
     bordercolor="#666666"
     borderopacity="1.0"
     inkscape:pageopacity="0.0"
     inkscape:pageshadow="2"
     inkscape:zoom="1.4000868"
     inkscape:cx="12.677785"
     inkscape:cy="90.708661"
     inkscape:document-units="mm"
     inkscape:current-layer="layer1"
     showgrid="false"
     showguides="true"
     inkscape:guide-bbox="true"
     inkscape:object-paths="true"
     inkscape:snap-smooth-nodes="true"
     inkscape:snap-bbox="true"
     inkscape:bbox-nodes="false"
     inkscape:bbox-paths="false"
     inkscape:snap-bbox-edge-midpoints="false"
     inkscape:snap-bbox-midpoints="false"
     inkscape:snap-intersection-paths="true"
     inkscape:snap-midpoints="true"
     inkscape:snap-global="true"
     inkscape:snap-nodes="true"
     inkscape:snap-others="false"
     inkscape:window-width="1366"
     inkscape:window-height="711"
     inkscape:window-x="0"
     inkscape:window-y="25"
     inkscape:window-maximized="1">
    <sodipodi:guide
       position="9.1653541,44.031495"
       orientation="1,0"
       id="guide1417"
       inkscape:locked="false" />
    <sodipodi:guide
       position="18.803149,44.220471"
       orientation="1,0"
       id="guide1419"
       inkscape:locked="false" />
    <sodipodi:guide
       position="28.440944,42.425196"
       orientation="1,0"
       id="guide1421"
       inkscape:locked="false" />
    <sodipodi:guide
       position="37.889763,41.007873"
       orientation="1,0"
       id="guide1423"
       inkscape:locked="false" />
  </sodipodi:namedview>
  <metadata
     id="metadata818">
    <rdf:RDF>
      <cc:Work
         rdf:about="">
        <dc:format>image/svg+xml</dc:format>
        <dc:type
           rdf:resource="http://purl.org/dc/dcmitype/StillImage" />
        <dc:title></dc:title>
      </cc:Work>
    </rdf:RDF>
  </metadata>
  <g
     inkscape:label="Capa 1"
     inkscape:groupmode="layer"
     id="layer1"
     transform="translate(0,-249)">
    <path
       style="font-style:normal;font-variant:normal;font-weight:normal;font-stretch:normal;font-size:7.05555534px;line-height:1.25;font-family:'1 Punk';-inkscape-font-specification:'1 Punk';letter-spacing:0px;word-spacing:0px;fill:#000000;fill-opacity:1;stroke:none;stroke-width:0.5232076"
       d="m 42.888812,262.63951 c -1.330322,0 -2.355916,0.46234 -3.077445,1.38631 -0.72153,0.9194 -1.082638,2.22988 -1.082638,3.93147 0,1.69698 0.361108,3.00747 1.082638,3.93144 0.721529,0.9194 1.747123,1.3791 3.077445,1.3791 1.325817,0 2.349828,-0.4597 3.071365,-1.3791 0.721532,-0.92397 1.08263,-2.23446 1.08263,-3.93144 0,-1.70159 -0.361098,-3.01207 -1.08263,-3.93147 -0.721537,-0.92397 -1.745548,-1.38631 -3.071365,-1.38631 z m 0,1.80517 c 0.559192,0 0.95671,0.26234 1.191205,0.78837 0.239014,0.52143 0.358174,1.42287 0.358174,2.70365 0,1.29447 -0.11916,2.20701 -0.358174,2.7376 -0.239004,0.53061 -0.636522,0.79556 -1.191205,0.79556 -0.559184,0 -0.958284,-0.26495 -1.197292,-0.79556 -0.239004,-0.53059 -0.358172,-1.44313 -0.358172,-2.7376 0,-1.28077 0.119168,-2.18222 0.358172,-2.70364 0.239008,-0.52603 0.638108,-0.78838 1.197292,-0.78838 z"
       id="path1387-9"
       inkscape:connector-curvature="0" />
    <path
       style="font-style:normal;font-variant:normal;font-weight:normal;font-stretch:normal;font-size:7.05555534px;line-height:1.25;font-family:'1 Punk';-inkscape-font-specification:'1 Punk';letter-spacing:0px;word-spacing:0px;fill:#0b675b;fill-opacity:1;stroke:none;stroke-width:0.5232076"
       d="m 42.888812,262.14884 c -1.330322,0 -2.355916,0.46231 -3.077445,1.3863 -0.72153,0.9194 -1.082638,2.22989 -1.082638,3.93146 0,1.69699 0.361108,3.00748 1.082638,3.93145 0.721529,0.9194 1.747123,1.3791 3.077445,1.3791 1.325817,0 2.349828,-0.4597 3.071365,-1.3791 0.721532,-0.92397 1.08263,-2.23446 1.08263,-3.93145 0,-1.70158 -0.361098,-3.01206 -1.08263,-3.93146 -0.721537,-0.92399 -1.745548,-1.3863 -3.071365,-1.3863 z m 0,1.80516 c 0.559192,0 0.95671,0.26234 1.191205,0.78837 0.239014,0.52143 0.358174,1.42288 0.358174,2.70365 0,1.29446 -0.11916,2.207 -0.358174,2.73758 -0.239004,0.53062 -0.636522,0.79558 -1.191205,0.79558 -0.559184,0 -0.958284,-0.26496 -1.197292,-0.79558 -0.239004,-0.53059 -0.358172,-1.44312 -0.358172,-2.73759 0,-1.28076 0.119168,-2.18221 0.358172,-2.70364 0.239008,-0.52603 0.638108,-0.78837 1.197292,-0.78837 z"
       id="path1387"
       inkscape:connector-curvature="0" />
    <path
       style="font-style:normal;font-variant:normal;font-weight:normal;font-stretch:normal;font-size:7.05555534px;line-height:1.25;font-family:'1 Punk';-inkscape-font-specification:'1 Punk';letter-spacing:0px;word-spacing:0px;fill:#000000;fill-opacity:1;stroke:none;stroke-width:0.5232076"
       d="m 0.95719301,262.82476 v 10.24445 H 8.133845 v -1.9966 H 3.560797 v -2.34654 h 4.1600842 v -1.99659 H 3.560797 v -1.90811 h 4.423895 v -1.99661 z"
       id="path1385-3"
       inkscape:connector-curvature="0" />
    <path
       style="font-style:normal;font-variant:normal;font-weight:normal;font-stretch:normal;font-size:7.05555534px;line-height:1.25;font-family:'1 Punk';-inkscape-font-specification:'1 Punk';letter-spacing:0px;word-spacing:0px;fill:#03201c;fill-opacity:1;stroke:none;stroke-width:0.5232076"
       d="m 0.957193,262.33408 v 10.24444 h 7.1766525 v -1.99659 H 3.5607971 v -2.34652 H 7.7208815 V 266.2388 H 3.5607971 v -1.9081 h 4.4238951 v -1.99662 z"
       id="path1385"
       inkscape:connector-curvature="0" />
    <path
       style="font-style:normal;font-variant:normal;font-weight:normal;font-stretch:normal;font-size:7.05555534px;line-height:1.25;font-family:'1 Punk';-inkscape-font-specification:'1 Punk';letter-spacing:0px;word-spacing:0px;fill:#000000;fill-opacity:1;stroke:none;stroke-width:0.5232076"
       d="m 10.616705,262.82476 v 5.76341 c 0.487034,-0.20585 0.941827,-0.35679 1.365726,-0.45286 0.4239,-0.10062 0.822998,-0.15024 1.197292,-0.15024 0.631341,0 1.127732,0.15517 1.488498,0.46621 0.365278,0.31104 0.547915,0.73644 0.547915,1.27618 0,0.53517 -0.182637,0.96056 -0.547915,1.27617 -0.360766,0.31104 -0.857157,0.46622 -1.488498,0.46622 -0.437428,0 -0.90417,-0.0797 -1.400223,-0.2398 -0.491544,-0.1601 -1.0124,-0.40023 -1.562568,-0.72041 v 2.07893 c 0.554678,0.22869 1.111949,0.39761 1.671134,0.50739 0.5637,0.11435 1.131903,0.17186 1.704621,0.17186 1.325817,0 2.360765,-0.31298 3.104845,-0.93964 0.748588,-0.62664 1.123223,-1.49378 1.123223,-2.60072 0,-1.11609 -0.343405,-1.98483 -1.028862,-2.60691 -0.685453,-0.62667 -1.643402,-0.94067 -2.874517,-0.94067 -0.216457,0 -0.426155,0.0164 -0.629083,0.0483 -0.198423,0.0274 -0.397183,0.0686 -0.595605,0.12349 v -1.58493 h 4.397516 v -1.94205 z"
       id="path1383-0"
       inkscape:connector-curvature="0" />
    <path
       style="font-style:normal;font-variant:normal;font-weight:normal;font-stretch:normal;font-size:7.05555534px;line-height:1.25;font-family:'1 Punk';-inkscape-font-specification:'1 Punk';letter-spacing:0px;word-spacing:0px;fill:#05312c;fill-opacity:1;stroke:none;stroke-width:0.5232076"
       d="m 10.616705,262.33408 v 5.76339 c 0.487034,-0.20583 0.941827,-0.35677 1.365726,-0.45282 0.4239,-0.10064 0.822998,-0.15026 1.197292,-0.15026 0.631341,0 1.127732,0.15517 1.488498,0.46621 0.365278,0.31104 0.547915,0.73644 0.547915,1.27617 0,0.53516 -0.182637,0.96057 -0.547915,1.27618 -0.360766,0.31104 -0.857157,0.46623 -1.488498,0.46623 -0.437428,0 -0.90417,-0.0797 -1.400223,-0.23981 -0.491544,-0.1601 -1.0124,-0.40024 -1.562568,-0.72041 v 2.07893 c 0.554678,0.2287 1.111949,0.39761 1.671134,0.50739 0.5637,0.11435 1.131903,0.17187 1.704621,0.17187 1.325817,0 2.360765,-0.31299 3.104845,-0.93964 0.748588,-0.62668 1.123223,-1.4938 1.123223,-2.60073 0,-1.11608 -0.343405,-1.98482 -1.028862,-2.6069 -0.685453,-0.62667 -1.643402,-0.94067 -2.874517,-0.94067 -0.216457,0 -0.426155,0.0164 -0.629083,0.0483 -0.198423,0.0274 -0.397183,0.0686 -0.595605,0.12349 v -1.58493 h 4.397516 V 262.334 Z"
       id="path1383"
       inkscape:connector-curvature="0" />
    <path
       style="font-style:normal;font-variant:normal;font-weight:normal;font-stretch:normal;font-size:7.05555534px;line-height:1.25;font-family:'1 Punk';-inkscape-font-specification:'1 Punk';letter-spacing:0px;word-spacing:0px;fill:#000000;fill-opacity:1;stroke:none;stroke-width:0.5232076"
       d="m 22.697184,262.82476 -2.346895,0.49401 v 1.79799 l 2.3611,-0.49401 v 6.62069 h -2.300221 v 1.82577 h 7.061995 v -1.82577 h -2.30022 v -8.41868 z"
       id="path1381-2"
       inkscape:connector-curvature="0" />
    <path
       style="font-style:normal;font-variant:normal;font-weight:normal;font-stretch:normal;font-size:7.05555534px;line-height:1.25;font-family:'1 Punk';-inkscape-font-specification:'1 Punk';letter-spacing:0px;word-spacing:0px;fill:#07433c;fill-opacity:1;stroke:none;stroke-width:0.5232076"
       d="m 22.697184,262.33408 -2.346895,0.49401 v 1.79799 l 2.3611,-0.49403 v 6.62071 h -2.300221 v 1.82576 h 7.061995 v -1.82576 h -2.30022 v -8.41868 z"
       id="path1381"
       inkscape:connector-curvature="0" />
    <path
       style="font-style:normal;font-variant:normal;font-weight:normal;font-stretch:normal;font-size:7.05555534px;line-height:1.25;font-family:'1 Punk';-inkscape-font-specification:'1 Punk';letter-spacing:0px;word-spacing:0px;fill:#000000;fill-opacity:1;stroke:none;stroke-width:0.5232076"
       d="m 29.895143,262.82476 v 5.76341 c 0.487037,-0.20585 0.941829,-0.35679 1.365726,-0.45286 0.423905,-0.10062 0.823,-0.15024 1.197293,-0.15024 0.631343,0 1.127733,0.15517 1.488501,0.46621 0.365276,0.31104 0.547915,0.73644 0.547915,1.27618 0,0.53517 -0.182639,0.96056 -0.547915,1.27617 -0.360768,0.31104 -0.857158,0.46622 -1.488501,0.46622 -0.437428,0 -0.904166,-0.0797 -1.400223,-0.2398 -0.49154,-0.1601 -1.012396,-0.40023 -1.562565,-0.72041 v 2.07893 c 0.554677,0.22869 1.111945,0.39761 1.671134,0.50739 0.563698,0.11435 1.131906,0.17186 1.704618,0.17186 1.325819,0 2.360766,-0.31298 3.104846,-0.93964 0.748588,-0.62664 1.123222,-1.49378 1.123222,-2.60072 0,-1.11609 -0.343402,-1.98483 -1.028858,-2.60691 -0.685454,-0.62667 -1.643407,-0.94067 -2.874518,-0.94067 -0.216459,0 -0.426154,0.0164 -0.629084,0.0483 -0.198425,0.0274 -0.397185,0.0686 -0.595607,0.12349 v -1.58493 h 4.397518 v -1.94205 z"
       id="path1379-7"
       inkscape:connector-curvature="0" />
    <path
       style="font-style:normal;font-variant:normal;font-weight:normal;font-stretch:normal;font-size:7.05555534px;line-height:1.25;font-family:'1 Punk';-inkscape-font-specification:'1 Punk';letter-spacing:0px;word-spacing:0px;fill:#09554c;fill-opacity:1;stroke:none;stroke-width:0.5232076"
       d="m 29.895143,262.33408 v 5.76339 c 0.487037,-0.20583 0.941829,-0.35677 1.365726,-0.45282 0.423905,-0.10064 0.823,-0.15026 1.197293,-0.15026 0.631343,0 1.127733,0.15517 1.488501,0.46621 0.365276,0.31104 0.547915,0.73644 0.547915,1.27617 0,0.53516 -0.182639,0.96057 -0.547915,1.27618 -0.360768,0.31104 -0.857158,0.46623 -1.488501,0.46623 -0.437428,0 -0.904166,-0.0797 -1.400223,-0.23981 -0.49154,-0.1601 -1.012396,-0.40024 -1.562565,-0.72041 v 2.07893 c 0.554677,0.2287 1.111945,0.39761 1.671134,0.50739 0.563698,0.11435 1.131906,0.17187 1.704618,0.17187 1.325819,0 2.360766,-0.31299 3.104846,-0.93964 0.748588,-0.62668 1.123222,-1.4938 1.123222,-2.60073 0,-1.11608 -0.343402,-1.98482 -1.028858,-2.6069 -0.685454,-0.62667 -1.643407,-0.94067 -2.874518,-0.94067 -0.216459,0 -0.426154,0.0164 -0.629084,0.0483 -0.198425,0.0274 -0.397185,0.0686 -0.595607,0.12349 v -1.58493 h 4.397518 V 262.334 Z"
       id="path1379"
       inkscape:connector-curvature="0" />
  </g>
</svg>
