<?xml version="1.0" encoding="UTF-8" standalone="no"?>
<svg
   xmlns:dc="http://purl.org/dc/elements/1.1/"
   xmlns:cc="http://creativecommons.org/ns#"
   xmlns:rdf="http://www.w3.org/1999/02/22-rdf-syntax-ns#"
   xmlns:svg="http://www.w3.org/2000/svg"
   xmlns="http://www.w3.org/2000/svg"
   xmlns:sodipodi="http://sodipodi.sourceforge.net/DTD/sodipodi-0.dtd"
   xmlns:inkscape="http://www.inkscape.org/namespaces/inkscape"
   width="64"
   height="64"
   version="1.1"
   id="svg34"
   sodipodi:docname="OBLogo.svg"
   inkscape:version="0.92.5 (2060ec1f9f, 2020-04-08)">
  <metadata
     id="metadata40">
    <rdf:RDF>
      <cc:Work
         rdf:about="">
        <dc:format>image/svg+xml</dc:format>
        <dc:type
           rdf:resource="http://purl.org/dc/dcmitype/StillImage" />
        <dc:title></dc:title>
      </cc:Work>
    </rdf:RDF>
  </metadata>
  <defs
     id="defs38" />
  <sodipodi:namedview
     pagecolor="#ffffff"
     bordercolor="#666666"
     borderopacity="1"
     objecttolerance="10"
     gridtolerance="10"
     guidetolerance="10"
     inkscape:pageopacity="0"
     inkscape:pageshadow="2"
     inkscape:window-width="1366"
     inkscape:window-height="711"
     id="namedview36"
     showgrid="true"
     inkscape:zoom="8.046875"
     inkscape:cx="43.463926"
     inkscape:cy="58.150937"
     inkscape:window-x="0"
     inkscape:window-y="25"
     inkscape:window-maximized="1"
     inkscape:current-layer="svg34">
    <inkscape:grid
       type="xygrid"
       id="grid842" />
  </sodipodi:namedview>
  <rect
     width="63.193"
     height="52.422"
     x=".407"
     y=".109"
     ry="0"
     fill="#1a1e24"
     id="rect2"
     style="fill:#061216;fill-opacity:1" />
  <path
     style="fill:#ffffff"
     d="M 5.4082031 3.6855469 L 2.8476562 6.2558594 L 3.2421875 6.6523438 L 5.4082031 4.4785156 L 7.5742188 6.6523438 L 7.9707031 6.2558594 L 5.4082031 3.6855469 z "
     id="path851" />
  <path
     fill="#444"
     d="M1.194 9.594h61.662v41.624H1.194z"
     id="path6"
     style="fill:#133a44;fill-opacity:1" />
  <rect
     style="fill:#0a2025;fill-opacity:1;stroke-width:0.82340002"
     id="rect8"
     width="36.998653"
     height="45.123142"
     x="21.599377"
     y="17.731422"
     ry="0" />
  <path
     style="fill:#061216;fill-opacity:1;stroke-width:0.90539056"
     inkscape:connector-curvature="0"
     id="path10-6"
     d="M 23.344984,19.790764 H 57.050863 V 29.920438 H 23.344984 Z" />
  <path
     style="fill:#061216;fill-opacity:1;stroke-width:0.82340002"
     inkscape:connector-curvature="0"
     id="path10"
     d="m 23.344984,51.52129 h 33.705879 v 8.378095 H 23.344984 Z" />
  <path
     style="font-weight:400;font-size:1.41100001px;line-height:1.25;font-family:sans-serif;letter-spacing:0;word-spacing:0;fill:#f7f7f7;stroke-width:0.82340002"
     d="M 31.296875 22.224609 L 31.296875 27.277344 L 31.958984 27.277344 L 31.958984 22.841797 L 33.257812 26.306641 L 33.943359 26.306641 L 35.240234 22.841797 L 35.240234 27.277344 L 35.904297 27.277344 L 35.904297 22.224609 L 34.888672 22.224609 L 33.599609 25.664062 L 32.314453 22.224609 L 31.296875 22.224609 z M 38.814453 23.394531 C 38.247954 23.394531 37.797192 23.577769 37.462891 23.943359 C 37.129414 24.306478 36.962891 24.799078 36.962891 25.419922 C 36.962891 26.02018 37.137513 26.494112 37.488281 26.845703 C 37.84152 27.198119 38.321099 27.375 38.923828 27.375 C 39.164261 27.375 39.398968 27.350191 39.632812 27.300781 C 39.866658 27.251381 40.096041 27.180629 40.318359 27.085938 L 40.318359 26.496094 C 40.098511 26.613841 39.876309 26.702128 39.652344 26.759766 C 39.429203 26.818226 39.19777 26.845703 38.958984 26.845703 C 38.548108 26.845703 38.22634 26.73486 37.994141 26.511719 C 37.765236 26.286107 37.636547 25.961371 37.609375 25.533203 L 40.462891 25.533203 L 40.462891 25.228516 C 40.462891 24.664487 40.314002 24.217515 40.017578 23.890625 C 39.722801 23.561265 39.322491 23.396484 38.814453 23.396484 L 38.814453 23.394531 z M 43.302734 23.394531 C 43.039246 23.394531 42.808025 23.45165 42.605469 23.564453 A 1.5249368 1.5249368 0 0 0 42.082031 24.076172 L 42.082031 23.486328 L 41.458984 23.486328 L 41.458984 27.277344 L 42.082031 27.277344 L 42.082031 25.136719 C 42.082031 24.766189 42.180367 24.47272 42.373047 24.257812 C 42.566546 24.043729 42.828938 23.9375 43.164062 23.9375 C 43.442372 23.9375 43.651038 24.026397 43.791016 24.205078 C 43.930171 24.382933 44.001953 24.650764 44.001953 25.009766 L 44.001953 27.279297 L 44.621094 27.279297 L 44.621094 24.990234 C 44.621094 24.466552 44.509427 24.06921 44.287109 23.800781 C 44.064791 23.529883 43.736666 23.396484 43.302734 23.396484 L 43.302734 23.394531 z M 46.421875 23.484375 L 45.802734 23.486328 L 45.802734 25.78125 C 45.802734 26.302462 45.913884 26.698674 46.138672 26.96875 C 46.363461 27.239648 46.693021 27.375 47.126953 27.375 C 47.390441 27.375 47.61992 27.320447 47.818359 27.210938 C 48.018446 27.097309 48.193068 26.92504 48.34375 26.695312 L 48.34375 27.279297 L 48.966797 27.279297 L 48.966797 23.486328 L 48.34375 23.486328 L 48.34375 25.636719 C 48.34375 26.007249 48.245925 26.296812 48.050781 26.511719 C 47.857282 26.725803 47.59489 26.833984 47.259766 26.833984 C 46.980633 26.833984 46.770014 26.742311 46.630859 26.564453 C 46.490881 26.384128 46.421875 26.114038 46.421875 25.755859 L 46.421875 23.484375 z M 38.820312 23.921875 L 38.822266 23.923828 C 39.127747 23.923828 39.374152 24.025137 39.558594 24.228516 C 39.744682 24.431073 39.83881 24.704035 39.84375 25.044922 L 37.630859 25.046875 C 37.662149 24.690343 37.781607 24.412766 37.988281 24.216797 C 38.197424 24.020828 38.474484 23.921875 38.820312 23.921875 z M 48.943359 34.072266 L 48.943359 39.339844 L 49.5625 39.339844 L 49.5625 34.072266 L 48.943359 34.072266 z M 25.888672 34.285156 L 25.888672 39.339844 L 26.552734 39.339844 L 26.552734 35.113281 L 28.783203 39.339844 L 29.701172 39.339844 L 29.701172 34.285156 L 29.041016 34.285156 L 29.041016 38.513672 L 26.806641 34.285156 L 25.888672 34.285156 z M 52.949219 34.453125 L 52.949219 38.957031 L 55.574219 36.705078 L 52.949219 34.453125 z M 37.123047 35.455078 L 37.123047 35.458984 C 36.824976 35.458984 36.570472 35.51219 36.361328 35.625 A 1.2647424 1.2647424 0 0 0 35.851562 36.138672 L 35.851562 35.550781 L 35.226562 35.550781 L 35.226562 39.337891 L 35.851562 39.337891 L 35.851562 37.341797 C 35.851562 36.912805 35.946727 36.584681 36.132812 36.357422 C 36.322195 36.12687 36.592591 36.011719 36.943359 36.011719 C 37.042169 36.011719 37.130244 36.021276 37.210938 36.041016 C 37.294097 36.060776 37.371417 36.089376 37.441406 36.128906 L 37.4375 35.490234 C 37.3741 35.481134 37.317499 35.470604 37.265625 35.464844 C 37.214575 35.460744 37.166991 35.455078 37.125 35.455078 L 37.123047 35.455078 z M 46.03125 35.455078 L 46.03125 35.458984 C 45.828693 35.458984 45.62424 35.477328 45.410156 35.523438 C 45.196896 35.567078 44.974482 35.634552 44.748047 35.722656 L 44.748047 36.294922 A 2.4981956 2.4981956 0 0 1 45.96875 35.986328 C 46.308814 35.986328 46.5709 36.06456 46.757812 36.222656 C 46.946371 36.378279 47.041016 36.598223 47.041016 36.884766 L 47.041016 36.945312 L 46.171875 36.945312 C 45.607846 36.945312 45.182204 37.052977 44.896484 37.269531 C 44.613235 37.486085 44.472656 37.807854 44.472656 38.234375 C 44.472656 38.599141 44.587194 38.894257 44.814453 39.113281 C 45.043358 39.329835 45.350153 39.435547 45.736328 39.435547 C 46.042633 39.435547 46.302059 39.380174 46.513672 39.271484 C 46.724463 39.161148 46.899391 38.990318 47.041016 38.759766 L 47.041016 39.335938 L 47.660156 39.335938 L 47.660156 37.173828 C 47.660156 36.596625 47.52511 36.164932 47.255859 35.880859 C 46.985783 35.596786 46.577987 35.455078 46.03125 35.455078 z M 32.494141 35.458984 C 31.95152 35.458984 31.526702 35.634736 31.21875 35.986328 C 30.914092 36.338743 30.759766 36.824776 30.759766 37.447266 C 30.759766 38.06811 30.913269 38.55527 31.21875 38.910156 C 31.526702 39.261748 31.95152 39.4375 32.494141 39.4375 C 33.033468 39.4375 33.45685 39.261748 33.765625 38.910156 C 34.073577 38.556094 34.226562 38.06811 34.226562 37.447266 C 34.226562 36.824776 34.0744 36.33792 33.765625 35.986328 C 33.457673 35.633913 33.032645 35.458984 32.494141 35.458984 z M 39.789062 35.458984 C 39.517341 35.458984 39.284377 35.512707 39.085938 35.623047 A 1.416248 1.416248 0 0 0 38.576172 36.138672 L 38.576172 35.550781 L 37.953125 35.550781 L 37.953125 39.337891 L 38.576172 39.337891 L 38.576172 37.197266 C 38.576172 36.829207 38.669383 36.538303 38.855469 36.324219 C 39.042381 36.107665 39.295448 35.998047 39.613281 35.998047 C 39.880062 35.998047 40.076628 36.086331 40.205078 36.261719 C 40.333528 36.43628 40.396484 36.706676 40.396484 37.072266 L 40.396484 39.337891 L 41.023438 39.337891 L 41.023438 37.197266 C 41.023438 36.826736 41.115818 36.53635 41.302734 36.322266 C 41.489646 36.108182 41.742504 35.998047 42.064453 35.998047 C 42.327941 35.998047 42.522764 36.086331 42.650391 36.261719 C 42.778841 36.437927 42.84375 36.709147 42.84375 37.072266 L 42.84375 39.337891 L 43.466797 39.337891 L 43.466797 37.050781 C 43.466797 36.540273 43.360568 36.150016 43.146484 35.875 C 42.9324 35.597514 42.629914 35.458984 42.236328 35.458984 C 41.944845 35.458984 41.69034 35.522864 41.474609 35.65625 C 41.258878 35.789641 41.073592 35.995435 40.917969 36.275391 C 40.825749 36.009433 40.68178 35.805994 40.488281 35.666016 C 40.297252 35.526038 40.063256 35.458984 39.789062 35.458984 z M 32.494141 35.986328 C 32.823501 35.986328 33.085798 36.117371 33.279297 36.380859 C 33.472796 36.642701 33.568359 36.998513 33.568359 37.447266 C 33.568359 37.89849 33.472797 38.253783 33.279297 38.515625 A 0.9279718 0.9279718 0 0 1 32.494141 38.910156 C 32.159017 38.910156 31.894671 38.778078 31.701172 38.519531 C 31.510143 38.25769 31.414062 37.90096 31.414062 37.447266 C 31.414062 36.994396 31.511578 36.635501 31.705078 36.376953 C 31.898577 36.114289 32.160664 35.986328 32.494141 35.986328 z M 46.423828 37.431641 L 46.423828 37.433594 L 47.041016 37.433594 L 47.041016 37.572266 C 47.041016 37.978202 46.937659 38.302631 46.728516 38.548828 C 46.521842 38.792554 46.244572 38.914062 45.900391 38.914062 C 45.650901 38.914062 45.454335 38.848026 45.308594 38.71875 C 45.164499 38.587829 45.091797 38.412077 45.091797 38.191406 C 45.091797 37.91392 45.18931 37.717968 45.382812 37.603516 C 45.575488 37.48824 45.922378 37.431641 46.423828 37.431641 z M 31.177734 43.537109 L 31.177734 44.322266 L 31.798828 44.322266 L 31.798828 43.537109 L 31.177734 43.537109 z M 40.908203 43.537109 L 40.908203 48.800781 L 41.53125 48.800781 L 41.53125 48.232422 C 41.661347 48.458034 41.825821 48.625993 42.023438 48.736328 C 42.223523 48.844194 42.463572 48.900391 42.740234 48.900391 C 43.198868 48.900391 43.568619 48.717152 43.853516 48.351562 C 44.141706 47.985974 44.287109 47.504651 44.287109 46.910156 C 44.287109 46.314015 44.141706 45.832387 43.853516 45.466797 A 1.3495526 1.3495526 0 0 0 42.740234 44.919922 C 42.463572 44.919922 42.223523 44.973654 42.023438 45.083984 C 41.825822 45.19185 41.661347 45.36228 41.53125 45.587891 L 41.53125 43.537109 L 40.908203 43.537109 z M 45.3125 43.537109 L 45.3125 48.800781 L 45.935547 48.800781 L 45.935547 43.537109 L 45.3125 43.537109 z M 25.888672 43.75 L 25.888672 48.800781 L 27.291016 48.800781 C 28.262628 48.800781 28.976914 48.595906 29.435547 48.1875 C 29.894181 47.779917 30.123047 47.140688 30.123047 46.269531 C 30.123047 45.403314 29.893663 44.767264 29.4375 44.361328 C 28.981336 43.952921 28.266745 43.75 27.291016 43.75 L 25.888672 43.75 z M 26.572266 44.310547 L 27.394531 44.310547 C 28.08948 44.310547 28.598796 44.46897 28.919922 44.785156 C 29.243518 45.098048 29.404297 45.592696 29.404297 46.269531 C 29.404297 46.950483 29.243518 47.44831 28.919922 47.763672 C 28.598796 48.079858 28.08948 48.236328 27.394531 48.236328 L 26.572266 48.236328 L 26.572266 44.310547 z M 34.294922 44.917969 L 34.294922 44.919922 C 33.831348 44.919922 33.472663 45.01662 33.220703 45.210938 C 32.968742 45.404437 32.84375 45.679448 32.84375 46.035156 C 32.84375 46.328287 32.929165 46.558896 33.099609 46.728516 C 33.270877 46.895666 33.547113 47.020046 33.931641 47.101562 L 34.150391 47.152344 C 34.534919 47.234684 34.780595 47.321535 34.892578 47.412109 C 35.007854 47.502679 35.066406 47.633113 35.066406 47.802734 A 0.4800422 0.4800422 0 0 1 34.830078 48.228516 C 34.672809 48.327326 34.448557 48.378906 34.15625 48.378906 C 33.938049 48.378906 33.716459 48.349173 33.494141 48.289062 A 3.4138164 3.4138164 0 0 1 32.816406 48.017578 L 32.816406 48.660156 C 33.059309 48.739206 33.289611 48.800014 33.507812 48.837891 C 33.728485 48.877411 33.940021 48.898438 34.142578 48.898438 C 34.628384 48.898438 35.008494 48.796824 35.285156 48.591797 C 35.563466 48.385947 35.703125 48.106321 35.703125 47.753906 C 35.703125 47.445131 35.612697 47.20447 35.425781 47.033203 C 35.241339 46.859466 34.926847 46.727503 34.486328 46.632812 L 34.273438 46.582031 C 33.940784 46.5079 33.71971 46.430303 33.609375 46.349609 A 0.4067596 0.4067596 0 0 1 33.443359 46.005859 A 0.469338 0.469338 0 0 1 33.673828 45.580078 C 33.828627 45.485388 34.059236 45.4375 34.367188 45.4375 C 34.56892 45.4375 34.764567 45.462219 34.953125 45.505859 C 35.142507 45.550319 35.323792 45.619233 35.5 45.708984 L 35.5 45.121094 A 2.7369816 2.7369816 0 0 0 34.941406 44.96875 A 3.8732736 3.8732736 0 0 0 34.294922 44.917969 z M 38.019531 44.919922 C 37.816975 44.919922 37.610568 44.944641 37.396484 44.988281 C 37.183223 45.032741 36.96081 45.094667 36.734375 45.183594 L 36.734375 45.759766 A 2.5418358 2.5418358 0 0 1 37.957031 45.447266 C 38.296272 45.447266 38.559182 45.525502 38.746094 45.683594 C 38.934653 45.84004 39.029297 46.063066 39.029297 46.349609 L 39.029297 46.410156 L 38.158203 46.410156 C 37.594174 46.410156 37.170486 46.518644 36.884766 46.734375 C 36.601516 46.950929 36.458984 47.271568 36.458984 47.697266 C 36.458984 48.062856 36.573523 48.355194 36.800781 48.574219 C 37.029687 48.790773 37.336482 48.898438 37.722656 48.898438 C 38.028961 48.898438 38.288386 48.845018 38.5 48.736328 C 38.71079 48.625169 38.887672 48.457115 39.029297 48.226562 L 39.029297 48.800781 L 39.648438 48.800781 L 39.648438 46.638672 C 39.648438 46.060645 39.513393 45.630599 39.244141 45.345703 C 38.974066 45.06163 38.566269 44.919922 38.019531 44.919922 z M 48.8125 44.919922 C 48.246001 44.919922 47.794107 45.101208 47.458984 45.466797 C 47.12633 45.829917 46.960937 46.321386 46.960938 46.941406 C 46.960938 47.542488 47.134736 48.019502 47.486328 48.371094 C 47.838743 48.723509 48.31884 48.898438 48.919922 48.898438 C 49.161178 48.898438 49.397014 48.873629 49.630859 48.824219 C 49.864705 48.774819 50.094088 48.702113 50.316406 48.607422 L 50.316406 48.019531 C 50.096558 48.136453 49.873225 48.223612 49.648438 48.28125 C 49.426119 48.33971 49.193041 48.371094 48.955078 48.371094 C 48.543378 48.371094 48.22274 48.259121 47.992188 48.035156 C 47.762459 47.810368 47.633771 47.482855 47.607422 47.054688 L 50.460938 47.054688 L 50.460938 46.75 C 50.460938 46.185971 50.312872 45.741777 50.015625 45.414062 C 49.720848 45.084702 49.320538 44.919922 48.8125 44.919922 z M 31.177734 45.009766 L 31.177734 48.800781 L 31.798828 48.800781 L 31.798828 45.009766 L 31.177734 45.009766 z M 42.587891 45.439453 C 42.917251 45.439453 43.172463 45.571319 43.359375 45.833984 C 43.548757 46.093355 43.642578 46.451522 43.642578 46.910156 C 43.642578 47.367966 43.548755 47.72644 43.359375 47.988281 A 0.8991528 0.8991528 0 0 1 42.587891 48.378906 C 42.260178 48.378906 41.999929 48.247652 41.810547 47.988281 C 41.624459 47.72644 41.53125 47.367966 41.53125 46.910156 C 41.53125 46.451522 41.624461 46.093355 41.810547 45.833984 C 41.999929 45.572143 42.260178 45.439453 42.587891 45.439453 z M 48.818359 45.449219 C 49.12384 45.449219 49.369116 45.550526 49.552734 45.753906 C 49.739646 45.956462 49.835727 46.228602 49.839844 46.570312 L 47.626953 46.574219 C 47.658243 46.217686 47.777702 45.940111 47.984375 45.744141 C 48.193519 45.548172 48.472531 45.449219 48.818359 45.449219 z M 38.412109 46.898438 L 39.029297 46.898438 L 39.029297 47.035156 C 39.029297 47.441916 38.923988 47.769428 38.714844 48.015625 C 38.508171 48.259351 38.232854 48.380859 37.888672 48.380859 C 37.639182 48.380859 37.442617 48.316769 37.296875 48.1875 C 37.15278 48.057402 37.078125 47.880827 37.078125 47.660156 C 37.078125 47.381846 37.175647 47.185589 37.369141 47.070312 C 37.561816 46.955036 37.910658 46.898438 38.412109 46.898438 z "
     id="path961" />
  <path
     inkscape:connector-curvature="0"
     id="path14"
     word-spacing="0"
     letter-spacing="0"
     font-size="1.411"
     font-weight="400"
     style="font-weight:400;font-size:1.41100001px;line-height:1.25;font-family:sans-serif;letter-spacing:0;word-spacing:0;fill:#2c89a0;fill-opacity:1;stroke-width:0.82340002"
     d="m 34.49629,52.99847 v 5.265643 h 0.62002 V 52.99847 Z m 19.414125,0 v 2.050266 A 1.27627,1.27627 0 0 0 53.414728,54.548932 1.449184,1.449184 0 0 0 52.69837,54.380958 c -0.45534,0 -0.826693,0.182795 -1.114883,0.548385 -0.284897,0.365589 -0.427345,0.846455 -0.427345,1.441773 0,0.595318 0.142448,1.076184 0.428168,1.44095 0.287367,0.36559 0.65872,0.549208 1.114884,0.549208 0.278309,0 0.517918,-0.05434 0.716358,-0.163033 0.199262,-0.110336 0.364766,-0.276663 0.494863,-0.502274 v 0.568146 h 0.62002 v -5.266467 z m -26.475604,0.12104 c -0.550854,0 -0.982316,0.129273 -1.297678,0.386998 -0.312892,0.25443 -0.469338,0.608492 -0.469338,1.054775 0,0.386998 0.113629,0.687539 0.340888,0.904093 0.227258,0.216554 0.594494,0.373 1.102532,0.474279 l 0.414994,0.08069 c 0.345828,0.06999 0.595318,0.175384 0.746,0.315362 0.153153,0.139978 0.227259,0.332654 0.227259,0.58132 0,0.284073 -0.104572,0.503921 -0.316186,0.657074 -0.21079,0.153152 -0.510508,0.230552 -0.899976,0.230552 -0.256078,0 -0.516272,-0.0387 -0.78223,-0.119393 a 3.99349,3.99349 0 0 1 -0.813519,-0.352416 v 0.705654 c 0.28819,0.106219 0.566499,0.184442 0.834104,0.238786 0.270075,0.05352 0.522859,0.08069 0.761645,0.08069 0.631548,0 1.110766,-0.12598 1.436833,-0.378764 0.327713,-0.25196 0.493216,-0.624137 0.493216,-1.113236 0,-0.410877 -0.121863,-0.73612 -0.364766,-0.979846 -0.240433,-0.246197 -0.614256,-0.418288 -1.123117,-0.515449 l -0.4117,-0.08069 c -0.373001,-0.06999 -0.626608,-0.161386 -0.761645,-0.274192 -0.131744,-0.115276 -0.199263,-0.284073 -0.199263,-0.507215 0,-0.266781 0.100455,-0.472631 0.300541,-0.61755 0.202556,-0.144095 0.489099,-0.214907 0.859629,-0.214907 0.214084,0 0.433932,0.02964 0.662837,0.09057 0.229729,0.06175 0.475102,0.153152 0.73365,0.276662 v -0.666954 a 5.3134002,5.3134002 0 0 0 -0.753411,-0.195969 4.0354834,4.0354834 0 0 0 -0.721299,-0.06093 z m 17.019678,0.276662 v 1.076184 h -0.456163 v 0.484982 h 0.45534 v 2.0585 c 0,0.473455 0.09057,0.798698 0.273369,0.979846 0.181971,0.177855 0.512978,0.268429 0.991373,0.268429 h 0.637312 v -0.522859 h -0.637312 c -0.258547,0 -0.430638,-0.04364 -0.515448,-0.131744 -0.08316,-0.0881 -0.124333,-0.284897 -0.124333,-0.593672 v -2.0585 h 1.277093 v -0.484982 h -1.27627 v -1.076184 z m -12.626015,0.984786 c -0.566499,0 -1.016076,0.182795 -1.350376,0.548385 -0.333477,0.363119 -0.501451,0.856336 -0.501451,1.477179 0,0.600259 0.175384,1.074537 0.526976,1.426129 0.352415,0.352415 0.830811,0.5278 1.432716,0.5278 0.241256,0 0.477572,-0.0247 0.711418,-0.07411 0.233845,-0.0494 0.462751,-0.120217 0.685069,-0.214908 v -0.588731 c -0.219848,0.116923 -0.44299,0.20585 -0.666954,0.263488 -0.222318,0.05928 -0.45287,0.08728 -0.691656,0.08728 -0.410877,0 -0.73365,-0.111983 -0.965849,-0.335124 -0.228905,-0.225612 -0.357355,-0.551678 -0.383704,-0.979846 h 2.852258 v -0.304658 c 0,-0.564029 -0.148212,-1.010312 -0.444636,-1.337202 -0.294778,-0.32936 -0.695773,-0.494863 -1.203811,-0.494863 z m 6.165619,0 c -0.566499,0 -1.017722,0.182795 -1.352846,0.548385 -0.332654,0.363119 -0.498157,0.856336 -0.498157,1.477179 0,0.600259 0.175384,1.074537 0.526152,1.426129 0.352416,0.352415 0.829164,0.5278 1.43107,0.5278 0.240432,0 0.480042,-0.0247 0.713887,-0.07411 0.233846,-0.0494 0.460281,-0.120217 0.682599,-0.214908 v -0.588731 c -0.220671,0.116923 -0.442989,0.20585 -0.667777,0.263488 -0.222318,0.05928 -0.45287,0.08728 -0.690833,0.08728 -0.4117,0 -0.732003,-0.111983 -0.963378,-0.335124 -0.228905,-0.225612 -0.357356,-0.551678 -0.384528,-0.979846 h 2.853081 v -0.304658 c 0,-0.564029 -0.148212,-1.010312 -0.444636,-1.337202 -0.294777,-0.32936 -0.696596,-0.494863 -1.204634,-0.494863 z m 4.294854,0 c -0.588731,0 -1.051481,0.178678 -1.391546,0.533564 -0.33677,0.354062 -0.505567,0.838221 -0.505567,1.456594 0,0.609316 0.166327,1.092652 0.500627,1.451654 0.335124,0.358179 0.78717,0.537681 1.35614,0.537681 0.209143,0 0.407583,-0.01976 0.592024,-0.06093 0.186089,-0.0387 0.36559,-0.101278 0.538504,-0.182795 V 57.54364 a 2.4347938,2.4347938 0 0 1 -0.528623,0.218201 1.967926,1.967926 0 0 1 -0.533563,0.07081 c -0.402643,0 -0.716358,-0.12598 -0.938676,-0.380411 -0.222318,-0.257724 -0.333477,-0.619196 -0.333477,-1.081124 0,-0.462751 0.111159,-0.821753 0.333477,-1.076184 0.222318,-0.257724 0.536033,-0.386174 0.938676,-0.386174 0.179501,0 0.358179,0.0247 0.533563,0.07658 0.177855,0.0494 0.353239,0.11857 0.528623,0.214907 v -0.580497 a 2.4644362,2.4644362 0 0 0 -0.528623,-0.177854 2.6645224,2.6645224 0 0 0 -0.561559,-0.06093 z m 6.469454,0 c -0.566499,0 -1.017722,0.182795 -1.352846,0.548385 -0.332654,0.363119 -0.498157,0.856336 -0.498157,1.477179 0,0.600259 0.175384,1.074537 0.526153,1.426129 0.352415,0.352415 0.829163,0.5278 1.431069,0.5278 0.240433,0 0.480042,-0.0247 0.713064,-0.07411 0.233846,-0.0494 0.461104,-0.120217 0.683422,-0.214908 v -0.588731 c -0.220671,0.116923 -0.442989,0.20585 -0.667777,0.263488 -0.222318,0.05928 -0.45287,0.08728 -0.690833,0.08728 -0.4117,0 -0.732002,-0.111983 -0.963378,-0.335124 C 47.710213,57.272734 47.581763,56.946668 47.55459,56.5185 h 2.853081 v -0.304658 c 0,-0.564029 -0.148212,-1.010312 -0.444636,-1.337202 -0.294777,-0.32936 -0.696596,-0.494863 -1.204634,-0.494863 z m 4.092298,0.522859 a 0.90574,0.90574 0 0 1 0.776466,0.391115 c 0.189382,0.259371 0.28325,0.61755 0.28325,1.076184 0,0.457811 -0.09387,0.819283 -0.28325,1.081124 -0.189382,0.259371 -0.447929,0.388645 -0.776466,0.388645 -0.327713,0 -0.584614,-0.129274 -0.773996,-0.388645 -0.186088,-0.261841 -0.279956,-0.623313 -0.279956,-1.081124 0,-0.45781 0.09387,-0.816813 0.279956,-1.076184 0.189382,-0.261841 0.446283,-0.391115 0.773996,-0.391115 z m -21.014815,0.0049 c 0.305482,0 0.551678,0.102101 0.73612,0.304658 0.186088,0.202556 0.280779,0.476748 0.28572,0.816813 l -2.213299,0.0025 c 0.03129,-0.356532 0.152329,-0.634018 0.359002,-0.829164 0.209144,-0.197616 0.485806,-0.294777 0.831634,-0.294777 z m 6.163149,0 c 0.306305,0 0.551678,0.102101 0.73612,0.304658 0.186912,0.202556 0.281603,0.476748 0.28572,0.816813 l -2.210006,0.0025 c 0.03129,-0.356532 0.149859,-0.634018 0.356532,-0.829164 0.209144,-0.197616 0.485806,-0.294777 0.831634,-0.294777 z m 10.764309,0 c 0.306304,0 0.551678,0.102101 0.736119,0.304658 0.186912,0.202556 0.281603,0.476748 0.28572,0.816813 l -2.210006,0.0025 c 0.03129,-0.356532 0.149859,-0.634018 0.356533,-0.829164 0.209143,-0.197616 0.485806,-0.294777 0.831634,-0.294777 z" />
  <rect
     style="fill:#0a2025;stroke-width:0.71582371;fill-opacity:1"
     id="rect18"
     width="15.533011"
     height="42.004456"
     x="1.2646289"
     y="9.5629263"
     ry="0" />
  <path
     style="fill:#061216;stroke-width:0.71582371;fill-opacity:1"
     inkscape:connector-curvature="0"
     id="path28"
     d="m 1.194,17.460572 h 15.321125 v 6.903186 H 1.194 Z" />
  <path
     d="M 55.3137,3.216527 57.548586,5.451413 55.3137,7.686299 55.765114,8.137713 58,5.902827 60.234886,8.137713 60.6863,7.686299 58.451414,5.451413 60.6863,3.216527 60.234886,2.765113 58,5 55.765114,2.765113 Z"
     font-weight="400"
     overflow="visible"
     style="color:#000000;font-weight:400;line-height:normal;font-family:sans-serif;font-variant-ligatures:normal;font-variant-position:normal;font-variant-caps:normal;font-variant-numeric:normal;font-variant-alternates:normal;font-feature-settings:normal;text-indent:0;text-align:start;text-decoration:none;text-decoration-line:none;text-decoration-style:solid;text-decoration-color:#000000;text-transform:none;text-orientation:mixed;white-space:normal;shape-padding:0;overflow:visible;isolation:auto;mix-blend-mode:normal;fill:#ffffff;fill-rule:evenodd;stroke-width:0.51590168"
     id="path4"
     inkscape:connector-curvature="0"
     inkscape:transform-center-x="22.493204"
     inkscape:transform-center-y="-2.6097087" />
  <path
     d="M 47.390544,2.8341559 V 7.951204 h 5.117048 V 2.8341559 Z m 0.639631,0.6396311 h 3.837786 v 3.837786 h -3.837786 z"
     style="color:#000000;font-weight:400;line-height:normal;font-family:sans-serif;font-variant-ligatures:normal;font-variant-position:normal;font-variant-caps:normal;font-variant-numeric:normal;font-variant-alternates:normal;font-feature-settings:normal;text-indent:0;text-align:start;text-decoration:none;text-decoration-line:none;text-decoration-style:solid;text-decoration-color:#000000;text-transform:none;text-orientation:mixed;white-space:normal;shape-padding:0;overflow:visible;isolation:auto;mix-blend-mode:normal;fill:#ffffff;stroke-width:0.54206014"
     font-weight="400"
     overflow="visible"
     id="path4-3"
     inkscape:connector-curvature="0" />
  <path
     d="m 40,7 h 5 v 0.5459051 h -5 z"
     id="path4-6"
     inkscape:connector-curvature="0"
     style="opacity:1;fill:#ffffff;stroke-width:0.43537384" />
</svg>
