/* XPM */
static char * close_active_xpm[] = {
"32 32 23 1",
" 	c None",
".	c #2C1E1E",
"+	c #160606",
"@	c #240A0A",
"#	c #421313",
"$	c #571818",
"%	c #611B1B",
"&	c #230A0A",
"*	c #180707",
"=	c #441212",
"-	c #631C1C",
";	c #641C1C",
">	c #431313",
",	c #170707",
"'	c #511717",
")	c #501717",
"!	c #441313",
"~	c #581818",
"{	c #601B1B",
"]	c #601A1A",
"^	c #411212",
"/	c #220A0A",
"(	c #4F1717",
"................................",
"++++++++++++++++++++++++++++++++",
"++++++++++++++++++++++++++++++++",
"++++++++++++++++++++++++++++++++",
"++++++++++++++++++++++++++++++++",
"++++++++++++++++++++++++++++++++",
"++++++++++++++++++++++++++++++++",
"++++++++++++++++++++++++++++++++",
"++++++++++++@#$%%$#&++++++++++++",
"++++++++++*=-;;;;;;->,++++++++++",
"+++++++++*';;;;;;;;;;),+++++++++",
"+++++++++!;;;;;;;;;;;;>+++++++++",
"++++++++@-;;;;;;;;;;;;-&++++++++",
"++++++++#;;;;;;;;;;;;;;#++++++++",
"++++++++~;;;;;;;;;;;;;;$++++++++",
"++++++++{;;;;;;;;;;;;;;{++++++++",
"++++++++{;;;;;;;;;;;;;;]++++++++",
"++++++++~;;;;;;;;;;;;;;$++++++++",
"++++++++#;;;;;;;;;;;;;;^++++++++",
"++++++++&-;;;;;;;;;;;;-/++++++++",
"+++++++++>;;;;;;;;;;;;#+++++++++",
"+++++++++,);;;;;;;;;;(*+++++++++",
"++++++++++,>-;;;;;;-#*++++++++++",
"++++++++++++&#${{$^/++++++++++++",
"++++++++++++++++++++++++++++++++",
"++++++++++++++++++++++++++++++++",
"++++++++++++++++++++++++++++++++",
"++++++++++++++++++++++++++++++++",
"++++++++++++++++++++++++++++++++",
"++++++++++++++++++++++++++++++++",
"++++++++++++++++++++++++++++++++",
"++++++++++++++++++++++++++++++++"};
