/* XPM */
static char *menu_xpm[] = {
"32 32 29 1",
" 	c None",
"B	c #2C1E1E",
"C	c #160606",
"D	c #2E0D0D",
"E	c #641C1C",
"F	c #892626",
"G	c #9A2A2A",
"H	c #190707",
"I	c #671C1C",
"J	c #9F2C2C",
"K	c #A02C2C",
"L	c #9E2B2B",
"M	c #661D1D",
"N	c #7D2323",
"O	c #681C1C",
"P	c #651C1C",
"Q	c #4C1515",
"R	c #2D0C0C",
"S	c #842424",
"T	c #631B1B",
"U	c #8A2626",
"V	c #882525",
"W	c #992A2A",
"X	c #691C1C",
"Y	c #982A2A",
"Z	c #621B1B",
"a	c #2C0C0C",
"b	c #7C2222",
"c	c #7B2222",
"BBBBBBBBBBBBBBBBBBBBBBBBBBBBBBBB",
"CCCCCCCCCCCCCCCCCCCCCCCCCCCCCCCC",
"CCCCCCCCCCCCCCCCCCCCCCCCCCCCCCCC",
"CCCCCCCCCCCCCCCCCCCCCCCCCCCCCCCC",
"CCCCCCCCCCCCCCCCCCCCCCCCCCCCCCCC",
"CCCCCCCCCCCCCCCCCCCCCCCCCCCCCCCC",
"CCCCCCCCCCCCCCCCCCCCCCCCCCCCCCCC",
"CCCCCCCCCCCCCCCCCCCCCCCCCCCCCCCC",
"CCCCCCCCCCCCDEFGGFEDCCCCCCCCCCCC",
"CCCCCCCCCCHIJKKKKKKLMHCCCCCCCCCC",
"CCCCCCCCCHNKKKKKKKKKKNHCCCCCCCCC",
"CCCCCCCCCOKKKKKKKKKKKKPCCCCCCCCC",
"CCCCCCCCDJKKHHHHHHHHKKLRCCCCCCCC",
"CCCCCCCCEKKKGGGGGGGGKKKTCCCCCCCC",
"CCCCCCCCUKKKKKKKKKKKKKKVCCCCCCCC",
"CCCCCCCCWKKKHHHHHHHHKKKWCCCCCCCC",
"CCCCCCCCWKKKGGGGGGGGKKKYCCCCCCCC",
"CCCCCCCCUKKKKKKKKKKKKKKVCCCCCCCC",
"CCCCCCCCEKKKHHHHHHHHKKKZCCCCCCCC",
"CCCCCCCCDLKKGGGGGGGGKKLaCCCCCCCC",
"CCCCCCCCCMKKKKKKKGGGKKECCCCCCCCC",
"CCCCCCCCCHbKKKKKKKKKKcHCCCCCCCCC",
"CCCCCCCCCCHPLKKKKKKLEHCCCCCCCCCC",
"CCCCCCCCCCCCRTVWWVZaCCCCCCCCCCCC",
"CCCCCCCCCCCCCCCCCCCCCCCCCCCCCCCC",
"CCCCCCCCCCCCCCCCCCCCCCCCCCCCCCCC",
"CCCCCCCCCCCCCCCCCCCCCCCCCCCCCCCC",
"CCCCCCCCCCCCCCCCCCCCCCCCCCCCCCCC",
"CCCCCCCCCCCCCCCCCCCCCCCCCCCCCCCC",
"CCCCCCCCCCCCCCCCCCCCCCCCCCCCCCCC",
"CCCCCCCCCCCCCCCCCCCCCCCCCCCCCCCC",
"CCCCCCCCCCCCCCCCCCCCCCCCCCCCCCCC"
};
