<svg xmlns="http://www.w3.org/2000/svg" xmlns:xlink="http://www.w3.org/1999/xlink" width="64" height="64"><defs><linearGradient xlink:href="#a" id="e" x1="39.724" y1="88.717" x2="159.898" y2="88.717" gradientUnits="userSpaceOnUse" gradientTransform="matrix(.5278 0 0 .5278 -20.745 -12.336)"/><linearGradient id="a"><stop offset="0" stop-color="#2ca02c"/><stop offset=".169" stop-color="#061606"/><stop offset=".838" stop-color="#061606"/><stop offset="1" stop-color="#2ca02c"/></linearGradient><linearGradient xlink:href="#b" id="f" x1="75" y1="123.6" x2="75" y2="138.6" gradientUnits="userSpaceOnUse" gradientTransform="matrix(.5278 0 0 .5278 -20.745 -12.336)"/><linearGradient id="b"><stop offset="0" stop-color="#061606"/><stop offset="1" stop-color="#2ca02c"/></linearGradient><linearGradient id="c"><stop offset="0" stop-color="#2ca02c"/><stop offset="1" stop-color="#0a250a"/></linearGradient><linearGradient id="d"><stop offset="0" stop-color="#2ca02c"/><stop offset="1" stop-color="#2ca02c" stop-opacity=".041"/></linearGradient><radialGradient xlink:href="#c" id="g" cx="0" cy="83.6" fx="0" fy="83.6" r="45" gradientUnits="userSpaceOnUse" gradientTransform="matrix(.5278 0 0 .5278 32.035 -12.336)"/><radialGradient xlink:href="#d" id="h" cx="-6.429" cy="12.956" fx="-6.429" fy="12.956" r="18.333" gradientTransform="matrix(1.09093 -1.09093 1.09093 1.09093 24.879 2.854)" gradientUnits="userSpaceOnUse"/></defs><path d="M14.534 29.2a2.834 9.13 59.03 00-8.304 3.162 2.834 9.13 59.03 00-5.765 6.97 2.834 9.13 59.03 009.672-2.717 2.834 9.13 59.03 005.767-6.97 2.834 9.13 59.03 00-1.37-.446zm34.803 0a9.13 2.834 30.97 00-1.37.445 9.13 2.834 30.97 005.766 6.97 9.13 2.834 30.97 009.673 2.717 9.13 2.834 30.97 00-5.766-6.97 9.13 2.834 30.97 00-8.303-3.163z" fill="url(#e)" paint-order="stroke fill markers"/><path d="M21.48 39.787a2.639 10.556 0 00-2.64 10.557A2.639 10.556 0 0021.48 60.9a2.639 10.556 0 002.638-10.556 2.639 10.556 0 00-2.639-10.557zm21.111 0a2.639 10.556 0 00-2.639 10.557 2.639 10.556 0 002.64 10.556 2.639 10.556 0 002.638-10.556 2.639 10.556 0 00-2.639-10.557z" fill="url(#f)" paint-order="stroke fill markers"/><circle cx="32.035" cy="31.788" r="23.751" fill="url(#g)" paint-order="stroke fill markers"/><path d="M32.035 8.037a23.751 23.751 0 00-23.751 23.75 23.751 23.751 0 009.835 19.22 23.751 23.751 0 01-.791-1.108 23.751 23.751 0 01-1.182-2.06 23.751 23.751 0 01-.97-2.166 23.751 23.751 0 01-.748-2.254 23.751 23.751 0 01-.52-2.316 23.751 23.751 0 01-.286-2.357 23.751 23.751 0 01-.06-1.68 23.751 23.751 0 01.119-2.371 23.751 23.751 0 01.354-2.347 23.751 23.751 0 01.588-2.301 23.751 23.751 0 01.814-2.23 23.751 23.751 0 011.032-2.138 23.751 23.751 0 011.241-2.024 23.751 23.751 0 011.437-1.89 23.751 23.751 0 011.619-1.737 23.751 23.751 0 011.783-1.567 23.751 23.751 0 011.93-1.38 23.751 23.751 0 012.06-1.182 23.751 23.751 0 012.167-.97 23.751 23.751 0 012.254-.748 23.751 23.751 0 012.316-.52 23.751 23.751 0 012.357-.286 23.751 23.751 0 011.68-.06 23.751 23.751 0 012.371.118 23.751 23.751 0 012.347.355 23.751 23.751 0 012.301.588 23.751 23.751 0 012.23.814 23.751 23.751 0 012.138 1.033 23.751 23.751 0 012.024 1.24 23.751 23.751 0 01.504.384 23.751 23.751 0 00-19.193-9.81z" opacity=".25" fill="#f6fbf6" paint-order="stroke fill markers"/><path d="M16.201 20.176c.737.98 1.475 1.888 2.213 2.734a6.598 6.598 0 00-2.213 4.92 6.598 6.598 0 006.598 6.597 6.598 6.598 0 006.104-4.108c1.043.275 2.087.416 3.132.413a13.149 13.149 0 002.638-.325 6.598 6.598 0 006.07 4.02 6.598 6.598 0 006.598-6.598 6.598 6.598 0 00-1.913-4.638 45.312 45.312 0 002.441-3.015H45.23c-8.686 10.344-17.488 10.767-26.422 0z" fill="#f6fbf6" paint-order="stroke fill markers"/><path d="M16.201 20.176c.737.98 1.475 1.888 2.213 2.734a6.598 6.598 0 00-2.213 4.92 6.598 6.598 0 006.598 6.597 6.598 6.598 0 006.104-4.108c1.043.275 2.087.416 3.132.413a13.149 13.149 0 002.638-.325 6.598 6.598 0 006.07 4.02 6.598 6.598 0 006.598-6.598 6.598 6.598 0 00-1.913-4.638 45.312 45.312 0 002.441-3.015H45.23c-8.686 10.344-17.488 10.767-26.422 0zm2.915 3.524a32.045 32.045 0 002.93 2.826 1.847 1.847 0 00-1.623 1.831 1.847 1.847 0 001.848 1.848 1.847 1.847 0 001.847-1.848 1.847 1.847 0 00-.023-.278c1.264.847 2.53 1.487 3.798 1.93A5.542 5.542 0 0122.8 33.37a5.542 5.542 0 01-5.542-5.542 5.542 5.542 0 011.86-4.13zm25.604.277a5.542 5.542 0 011.566 3.852 5.542 5.542 0 01-5.542 5.542 5.542 5.542 0 01-5.034-3.24c1.41-.433 2.831-1.111 4.267-2.06a1.847 1.847 0 00-.025.286 1.847 1.847 0 001.847 1.848 1.847 1.847 0 001.848-1.848 1.847 1.847 0 00-1.608-1.83 30.255 30.255 0 002.68-2.55zm-22.185 3.06a.528.528 0 01.527.529.528.528 0 01-.527.527.528.528 0 01-.528-.527.528.528 0 01.528-.528zm19 0a.528.528 0 01.528.529.528.528 0 01-.527.527.528.528 0 01-.528-.527.528.528 0 01.528-.528zM18.84 39.706v2.639c10.556 7.917 15.834 7.917 26.39 0v-2.639c-10.556 7.917-15.834 7.917-26.39 0z" fill="#061606" paint-order="stroke fill markers"/><path d="M13.842 2.76c-.574 5.271-.518 10.163 2.638 13.193 3.472-.199 6.03-2.112 7.918-5.277-3.377-1.966-6.447-2.472-10.556-7.916zm36.666 0c-4.11 5.444-7.178 5.95-10.555 7.916 1.89 3.165 4.445 5.078 7.916 5.277 3.157-3.03 3.212-7.922 2.639-13.193z" fill="#0e340e"/><path d="M16.227 28.342a6.598 6.598 0 00-.026.543 6.598 6.598 0 006.598 6.597 6.598 6.598 0 006.422-5.12c-.106-.026-.211-.016-.317-.044a6.598 6.598 0 01-.228.5 6.598 6.598 0 01-.328.573 6.598 6.598 0 01-.383.535 6.598 6.598 0 01-.436.496 6.598 6.598 0 01-.482.451 6.598 6.598 0 01-.524.398 6.598 6.598 0 01-.562.346 6.598 6.598 0 01-.594.287 6.598 6.598 0 01-.619.227 6.598 6.598 0 01-.639.164 6.598 6.598 0 01-.652.1 6.598 6.598 0 01-.658.033 6.598 6.598 0 01-.467-.018 6.598 6.598 0 01-.654-.078 6.598 6.598 0 01-.645-.145 6.598 6.598 0 01-.625-.208 6.598 6.598 0 01-.601-.27 6.598 6.598 0 01-.573-.328 6.598 6.598 0 01-.537-.383 6.598 6.598 0 01-.496-.435 6.598 6.598 0 01-.449-.483 6.598 6.598 0 01-.398-.525 6.598 6.598 0 01-.346-.563 6.598 6.598 0 01-.287-.594 6.598 6.598 0 01-.225-.619 6.598 6.598 0 01-.164-.64 6.598 6.598 0 01-.098-.65 6.598 6.598 0 01-.007-.147zm31.09.031a6.598 6.598 0 01-.07.578 6.598 6.598 0 01-.145.643 6.598 6.598 0 01-.21.627 6.598 6.598 0 01-.269.601 6.598 6.598 0 01-.328.573 6.598 6.598 0 01-.383.535 6.598 6.598 0 01-.435.496 6.598 6.598 0 01-.483.449 6.598 6.598 0 01-.525.4 6.598 6.598 0 01-.563.344 6.598 6.598 0 01-.593.287 6.598 6.598 0 01-.62.227 6.598 6.598 0 01-.638.162 6.598 6.598 0 01-.653.1 6.598 6.598 0 01-.658.033 6.598 6.598 0 01-.455-.016 6.598 6.598 0 01-.656-.08 6.598 6.598 0 01-.643-.143 6.598 6.598 0 01-.627-.207 6.598 6.598 0 01-.601-.27 6.598 6.598 0 01-.573-.325 6.598 6.598 0 01-.537-.383 6.598 6.598 0 01-.496-.436 6.598 6.598 0 01-.45-.482 6.598 6.598 0 01-.4-.523 6.598 6.598 0 01-.345-.563 6.598 6.598 0 01-.287-.594c-.111.025-.221.02-.332.041a6.598 6.598 0 006.402 5.035 6.598 6.598 0 006.598-6.597 6.598 6.598 0 00-.026-.512zM18.84 42.343V43.4c10.556 7.917 15.834 7.917 26.39 0v-1.056a57.061 57.061 0 01-3.732 2.597c-1.175.743-2.287 1.361-3.36 1.856a17.2 17.2 0 01-3.113 1.113c-1.01.248-2 .371-2.99.371-.99 0-1.98-.123-2.99-.37a17.2 17.2 0 01-3.113-1.114c-1.072-.495-2.185-1.113-3.36-1.856a57.061 57.061 0 01-3.732-2.597z" fill="#2ca02c" paint-order="stroke fill markers"/><path d="M13.842 2.76a19.999 19.999 0 002.693 7.266 22.237 22.237 0 002.319 3.12c.486.55 1.073 1.046 1.619 1.565 1.542-.906 2.854-2.24 3.923-4.033-3.377-1.966-6.445-2.474-10.554-7.918zm36.666 0c-4.11 5.444-7.178 5.952-10.555 7.918 1.07 1.792 2.381 3.127 3.924 4.033.546-.519 1.133-1.015 1.62-1.565a22.237 22.237 0 002.317-3.12 19.998 19.998 0 002.694-7.266z" fill="url(#h)" paint-order="stroke fill markers"/></svg>