<?xml version="1.0" encoding="UTF-8" standalone="no"?>
<!-- Created with Inkscape (http://www.inkscape.org/) -->

<svg
   xmlns:dc="http://purl.org/dc/elements/1.1/"
   xmlns:cc="http://creativecommons.org/ns#"
   xmlns:rdf="http://www.w3.org/1999/02/22-rdf-syntax-ns#"
   xmlns:svg="http://www.w3.org/2000/svg"
   xmlns="http://www.w3.org/2000/svg"
   xmlns:xlink="http://www.w3.org/1999/xlink"
   xmlns:sodipodi="http://sodipodi.sourceforge.net/DTD/sodipodi-0.dtd"
   xmlns:inkscape="http://www.inkscape.org/namespaces/inkscape"
   width="257"
   height="161"
   id="svg7080"
   sodipodi:version="0.32"
   inkscape:version="0.92.4 (5da689c313, 2019-01-14)"
   version="1.0"
   sodipodi:docname="viewitem.svg"
   inkscape:output_extension="org.inkscape.output.svgz.inkscape">
  <sodipodi:namedview
     id="base"
     pagecolor="#eff0f1"
     bordercolor="#666666"
     borderopacity="1.0"
     inkscape:pageopacity="1"
     inkscape:pageshadow="2"
     inkscape:zoom="2.1247555"
     inkscape:cx="22.701166"
     inkscape:cy="133.42735"
     inkscape:document-units="px"
     inkscape:current-layer="layer1"
     showgrid="true"
     inkscape:window-width="1366"
     inkscape:window-height="708"
     inkscape:window-x="0"
     inkscape:window-y="0"
     inkscape:snap-global="true"
     inkscape:object-paths="false"
     inkscape:object-nodes="false"
     gridtolerance="3"
     inkscape:window-maximized="1"
     inkscape:snap-bbox="true"
     inkscape:bbox-nodes="true"
     inkscape:snap-grids="false"
     inkscape:snap-to-guides="false"
     inkscape:snap-nodes="false">
    <inkscape:grid
       type="xygrid"
       id="grid7342"
       visible="true"
       enabled="true"
       empspacing="5"
       snapvisiblegridlinesonly="true"
       color="#0000ff"
       opacity="0.01960784"
       empcolor="#0000ff"
       empopacity="0.03921569" />
  </sodipodi:namedview>
  <defs
     id="defs7082">
    <linearGradient
       id="linearGradient8746">
      <stop
         id="stop8748"
         offset="0"
         style="stop-color:#ffffff;stop-opacity:1;" />
      <stop
         id="stop8750"
         offset="1"
         style="stop-color:#ffffff;stop-opacity:0;" />
    </linearGradient>
    <linearGradient
       id="linearGradient8734">
      <stop
         id="stop8736"
         offset="0"
         style="stop-color:#ffffff;stop-opacity:1;" />
      <stop
         id="stop8738"
         offset="1"
         style="stop-color:#ffffff;stop-opacity:0;" />
    </linearGradient>
    <radialGradient
       r="70"
       fy="229.36844"
       fx="355.28513"
       cy="229.36844"
       cx="355.28513"
       gradientTransform="matrix(1.7747169,0,0,1.1566649,-709.57584,314.76359)"
       gradientUnits="userSpaceOnUse"
       id="radialGradient12915"
       xlink:href="#linearGradient8734"
       inkscape:collect="always" />
    <radialGradient
       r="70"
       fy="222.73233"
       fx="355.05859"
       cy="222.73233"
       cx="355.05859"
       gradientTransform="matrix(1.7796094,-6.4399432e-7,0,3.4826371,-711.1346,-185.51868)"
       gradientUnits="userSpaceOnUse"
       id="radialGradient12922"
       xlink:href="#linearGradient8734"
       inkscape:collect="always" />
    <radialGradient
       r="70"
       fy="236.55251"
       fx="355.26648"
       cy="236.55251"
       cx="355.26648"
       gradientTransform="matrix(1.7796094,0,0,1.1558382,-711.13504,274.58542)"
       gradientUnits="userSpaceOnUse"
       id="radialGradient12928"
       xlink:href="#linearGradient8734"
       inkscape:collect="always" />
    <radialGradient
       r="70"
       fy="236.55327"
       fx="355.26645"
       cy="236.55327"
       cx="355.26645"
       gradientTransform="matrix(0.6520708,-6.4204842e-7,0,1.1584286,-351.80505,274.01364)"
       gradientUnits="userSpaceOnUse"
       id="radialGradient12935"
       xlink:href="#linearGradient8734"
       inkscape:collect="always" />
    <radialGradient
       r="70"
       fy="269.55038"
       fx="353.74701"
       cy="269.55038"
       cx="353.74701"
       gradientTransform="matrix(0.6498357,0,0,1.1513867,-350.8407,269.14221)"
       gradientUnits="userSpaceOnUse"
       id="radialGradient12941"
       xlink:href="#linearGradient8746"
       inkscape:collect="always" />
    <radialGradient
       r="70"
       fy="229.36844"
       fx="355.28513"
       cy="229.36844"
       cx="355.28513"
       gradientTransform="matrix(-1.7747169,0,0,1.1550902,469.58919,315.1048)"
       gradientUnits="userSpaceOnUse"
       id="radialGradient12949"
       xlink:href="#linearGradient8734"
       inkscape:collect="always" />
    <radialGradient
       r="70"
       fy="222.73233"
       fx="355.05859"
       cy="222.73233"
       cx="355.05859"
       gradientTransform="matrix(-1.7796094,-6.4399419e-7,0,3.4826364,471.13462,-185.51859)"
       gradientUnits="userSpaceOnUse"
       id="radialGradient12955"
       xlink:href="#linearGradient8734"
       inkscape:collect="always" />
    <radialGradient
       r="70"
       fy="236.55251"
       fx="355.26648"
       cy="236.55251"
       cx="355.26648"
       gradientTransform="matrix(-1.7796094,0,0,1.1576875,471.13463,274.18938)"
       gradientUnits="userSpaceOnUse"
       id="radialGradient12962"
       xlink:href="#linearGradient8734"
       inkscape:collect="always" />
    <linearGradient
       inkscape:collect="always"
       xlink:href="#linearGradient4254-7"
       id="linearGradient4306"
       x1="317.91653"
       y1="909.77173"
       x2="317.91653"
       y2="912.77173"
       gradientUnits="userSpaceOnUse" />
    <linearGradient
       id="linearGradient4254-7">
      <stop
         style="stop-color:#888888;stop-opacity:1;"
         offset="0"
         id="stop4256" />
      <stop
         style="stop-color:#232323;stop-opacity:1;"
         offset="1"
         id="stop4258" />
    </linearGradient>
    <linearGradient
       id="linearGradient5705">
      <stop
         style="stop-color:#efefef;stop-opacity:0.93599999;"
         offset="0"
         id="stop5707" />
      <stop
         style="stop-color:#ededed;stop-opacity:0;"
         offset="1"
         id="stop5709" />
    </linearGradient>
    <style
       id="current-color-scheme"
       type="text/css">
      .ColorScheme-Text {
        color:#ffffff;
      }
      .ColorScheme-Background {
        color:#ffffff;
      }
      .ColorScheme-Highlight {
        color:#008000;
      }
      .ColorScheme-ButtonHover {
        color:#000000;
      }
      </style>
  </defs>
  <metadata
     id="metadata7085">
    <rdf:RDF>
      <cc:Work
         rdf:about="">
        <dc:format>image/svg+xml</dc:format>
        <dc:type
           rdf:resource="http://purl.org/dc/dcmitype/StillImage" />
        <dc:title></dc:title>
      </cc:Work>
    </rdf:RDF>
  </metadata>
  <g
     inkscape:label="Camada 1"
     inkscape:groupmode="layer"
     id="layer1"
     transform="translate(297,-432)">
    <rect
       style="opacity:0.875;fill:#008000;fill-opacity:1;stroke:none"
       id="hint-tile-center"
       width="40"
       height="40"
       x="-247.07144"
       y="341.67673" />
    <path
       style="opacity:0.005;fill:none;fill-opacity:0.07843137;fill-rule:nonzero;stroke:none"
       d="m -167.00001,449.01572 0,48 48,0 0,-48 -48,0 z"
       id="normal-center"
       inkscape:connector-curvature="0" />
    <g
       id="normal-bottom"
       transform="matrix(0.36657704,0,0,0.49999749,-236.71202,78.073551)"
       style="opacity:0.00499998;fill:none">
      <g
         id="g4980"
         style="fill:none">
        <path
           inkscape:connector-curvature="0"
           style="opacity:0.82272728;fill:none;fill-opacity:0.07843137;fill-rule:nonzero;stroke:none"
           d="m 190.12705,845.85714 0,4 130.9842,-0.0625 0,-3.9375 -130.9842,0 z"
           id="path4983" />
        <path
           inkscape:connector-curvature="0"
           id="path4985"
           d="m 190.14285,849.85714 0,1 131,0 0,-1 -131,0 z"
           style="opacity:0.85;fill:none;fill-opacity:0.15686275;fill-rule:nonzero;stroke:none" />
        <path
           style="fill:none;fill-opacity:0.15686275;fill-rule:nonzero;stroke:none"
           d="m 190.14285,848.85714 0,1 131,0 0,-1 z"
           id="path4987"
           inkscape:connector-curvature="0"
           sodipodi:nodetypes="ccccc" />
      </g>
      <rect
         style="opacity:0.52100004;fill:none;fill-opacity:0;stroke:none"
         id="rect4989"
         width="1"
         height="2.000037"
         x="547"
         y="869"
         transform="translate(-342.85715,-17.142857)" />
    </g>
    <g
       id="normal-bottomleft"
       transform="matrix(0.5714288,0,0,0.49999749,-278.65311,78.073551)"
       style="opacity:0.00499998;fill:none">
      <g
         id="g4993"
         style="fill:none">
        <path
           id="path4995"
           d="m 188.6741,850.85716 c -1.94821,0 -3.53125,-1.58839 -3.53125,-3.53125 l 0,-1.46875 1,0 0,1.46875 c 0,1.40502 1.11588,2.53125 2.53125,2.53125 l 1.46875,0 0,1 -1.46875,0 z"
           style="opacity:0.85;fill:none;fill-opacity:0.15686275;fill-rule:nonzero;stroke:none"
           inkscape:connector-curvature="0" />
        <path
           id="path4997"
           d="m 190.14285,849.8572 0,-4 -4,0 0,1.46875 c 0,1.40502 1.11588,2.53125 2.53125,2.53125 l 1.46875,0 z"
           style="opacity:0.82272728;fill:none;fill-opacity:0.07843137;fill-rule:nonzero;stroke:none"
           inkscape:connector-curvature="0" />
        <path
           style="fill:none;fill-opacity:0.15686275;stroke:none"
           d="m 188.74285,849.85718 c -1.66084,0 -2.6,-1.19855 -2.6,-2.7 l 0,-1.3 1,0 -0.021,1.29373 c -0.0208,1.28062 0.23073,1.70627 1.62099,1.70627 l 1.4,0 0,1 z"
           id="path4999"
           inkscape:connector-curvature="0"
           sodipodi:nodetypes="ccccscccc" />
      </g>
      <rect
         style="opacity:0.52100004;fill:none;fill-opacity:0;stroke:none"
         id="rect5001"
         width="2.0000029"
         height="2.0000634"
         x="183.14285"
         y="851.85712" />
    </g>
    <g
       id="normal-left"
       transform="matrix(0.5714288,0,0,3.0009825,-278.65311,-2041.3868)"
       style="opacity:0.00499998;fill:none">
      <g
         id="g5005"
         style="fill:none">
        <path
           id="path5007"
           d="m 186.14285,829.85712 0,16 4,0 0,-16 -4,0 z"
           style="opacity:0.82272728;fill:none;fill-opacity:0.07843137;fill-rule:nonzero;stroke:none"
           inkscape:connector-curvature="0" />
        <path
           style="opacity:0.85;fill:none;fill-opacity:0.15686275;fill-rule:nonzero;stroke:none"
           d="m 185.14285,829.85715 0,15.99999 1,0 0,-15.99999 -1,0 z"
           id="path5009"
           inkscape:connector-curvature="0" />
        <path
           inkscape:connector-curvature="0"
           id="path5011"
           d="m 186.14285,829.85715 0,15.99999 1,0 0,-15.99999 -1,0 z"
           style="fill:none;fill-opacity:0.15686275;fill-rule:nonzero;stroke:none" />
      </g>
      <rect
         style="opacity:0.52100004;fill:none;fill-opacity:0;stroke:none"
         id="rect5013"
         width="2.0000029"
         height="3"
         x="183.14285"
         y="834.85712" />
    </g>
    <g
       id="normal-topleft"
       transform="matrix(0.5714288,0,0,0.57143084,-278.65311,-25.205995)"
       style="opacity:0.00499998;fill:none">
      <g
         id="g5017"
         style="fill:none">
        <path
           style="opacity:0.82272728;fill:none;fill-opacity:0.07843137;fill-rule:nonzero;stroke:none"
           d="m 186.14285,829.8571 4,0 0,-4 -1.46875,0 c -1.40502,0 -2.53125,1.11588 -2.53125,2.53125 l 0,1.46875 z"
           id="path5019"
           inkscape:connector-curvature="0" />
        <path
           inkscape:connector-curvature="0"
           style="opacity:0.85;fill:none;fill-opacity:0.15686275;fill-rule:nonzero;stroke:none"
           d="m 185.14285,828.3884 c 0,-1.94821 1.58839,-3.53125 3.53125,-3.53125 l 1.46875,0 0,1 -1.46875,0 c -1.40502,0 -2.53125,1.11588 -2.53125,2.53125 l 0,1.46875 -1,0 0,-1.46875 z"
           id="path5021" />
        <path
           id="path5023"
           d="m 186.14285,829.8571 1,0 0,-1 c 0,-1.41537 0.59498,-2 2,-2 l 1,0 0,-1 -1.46875,0 c -1.40502,0 -2.53125,1.11588 -2.53125,2.53125 l 0,1.46875 z"
           style="fill:none;fill-opacity:0.15686275;fill-rule:nonzero;stroke:none"
           inkscape:connector-curvature="0" />
      </g>
      <rect
         style="opacity:0.52100004;fill:none;fill-opacity:0;stroke:none"
         id="rect5025"
         width="2.0000029"
         height="1.9999441"
         x="183.14285"
         y="822.85718" />
    </g>
    <g
       id="normal-top"
       transform="matrix(0.36657704,0,0,0.57143165,-236.71202,-25.190896)"
       style="opacity:0.00499998;fill:none">
      <g
         id="g5029"
         style="fill:none">
        <path
           style="opacity:0.82272728;fill:none;fill-opacity:0.07843137;fill-rule:nonzero;stroke:none"
           d="m 190.14286,825.85714 0,4 131,0 0,-4 -131,0 z"
           id="path5031"
           inkscape:connector-curvature="0" />
        <path
           id="path5033"
           d="m 190.14285,824.85714 0,1 131,0 0,-1 -131,0 z"
           style="opacity:0.85;fill:none;fill-opacity:0.15686275;fill-rule:nonzero;stroke:none"
           inkscape:connector-curvature="0" />
        <path
           inkscape:connector-curvature="0"
           style="fill:none;fill-opacity:0.15686275;fill-rule:nonzero;stroke:none"
           d="m 190.14285,825.85714 0,1 131,0 0,-1 -131,0 z"
           id="path5035" />
      </g>
      <rect
         y="822.85718"
         x="200.14285"
         height="1.9999441"
         width="3"
         id="rect5037"
         style="opacity:0.52100004;fill:none;fill-opacity:0;stroke:none" />
    </g>
    <g
       id="normal-topright"
       transform="matrix(0.57142857,0,0,0.57143165,-302.51021,-25.190896)"
       style="opacity:0.00499998;fill:none">
      <g
         id="g5041"
         style="fill:none">
        <path
           id="path5043"
           d="m 321.14285,825.85714 0,4 4,0 0,-1.46875 c 0,-1.40502 -1.11588,-2.53125 -2.53125,-2.53125 l -1.46875,0 z"
           style="opacity:0.82272728;fill:none;fill-opacity:0.07843137;fill-rule:nonzero;stroke:none"
           inkscape:connector-curvature="0" />
        <path
           id="path5045"
           d="m 322.6116,824.85714 c 1.94821,0 3.53125,1.58839 3.53125,3.53125 l 0,1.46875 -1,0 0,-1.46875 c 0,-1.40502 -1.11588,-2.53125 -2.53125,-2.53125 l -1.46875,0 0,-1 1.46875,0 z"
           style="opacity:0.85;fill:none;fill-opacity:0.15686275;fill-rule:nonzero;stroke:none"
           inkscape:connector-curvature="0" />
        <path
           style="fill:none;fill-opacity:0.15686275;fill-rule:nonzero;stroke:none"
           d="m 325.14285,829.8571 -1,0 0,-1 c 0,-1.41537 -0.59498,-2 -2,-2 l -1,0 0,-1 1.46875,0 c 1.40502,0 2.53125,1.11588 2.53125,2.53125 z"
           id="path5047"
           inkscape:connector-curvature="0"
           sodipodi:nodetypes="ccssccssc" />
      </g>
      <rect
         style="opacity:0.52100004;fill:none;fill-opacity:0;stroke:none"
         id="rect5049"
         width="1.9999973"
         height="1.9999441"
         x="326.14285"
         y="822.85718" />
    </g>
    <g
       id="normal-right"
       transform="matrix(0.57142857,0,0,3.0000017,-302.51021,-2040.557)"
       style="opacity:0.00499998;fill:none">
      <g
         id="g5053"
         style="fill:none">
        <path
           style="opacity:0.82272728;fill:none;fill-opacity:0.07843137;fill-rule:nonzero;stroke:none"
           d="m 325.14286,829.85712 0,16 -4,0 0,-16 4,0 z"
           id="path5055"
           inkscape:connector-curvature="0" />
        <path
           id="path5057"
           d="m 326.14286,829.85715 0,15.99999 -1,0 0,-15.99999 1,0 z"
           style="opacity:0.85;fill:none;fill-opacity:0.15686275;fill-rule:nonzero;stroke:none"
           inkscape:connector-curvature="0" />
        <path
           inkscape:connector-curvature="0"
           style="fill:none;fill-opacity:0.15686275;fill-rule:nonzero;stroke:none"
           d="m 325.14285,829.85714 0,15.99999 -1,0 0,-15.99999 1,0 z"
           id="path5059" />
      </g>
      <rect
         y="832.85712"
         x="326.14285"
         height="3"
         width="1.9999973"
         id="rect5061"
         style="opacity:0.52100004;fill:none;fill-opacity:0;stroke:none" />
    </g>
    <g
       id="normal-bottomright"
       transform="matrix(0.57142857,0,0,0.49999749,-302.51021,78.073551)"
       style="opacity:0.00499998;fill:none">
      <g
         id="g5065"
         style="fill:none">
        <g
           id="g5067"
           style="fill:none">
          <path
             id="path5071"
             d="m 325.1429,845.85714 -4,0 0,4 1.46875,0 c 1.40502,0 2.53125,-1.11588 2.53125,-2.53125 l 0,-1.46875 z"
             style="opacity:0.82272728;fill:none;fill-opacity:0.07843137;fill-rule:nonzero;stroke:none"
             inkscape:connector-curvature="0" />
          <path
             style="fill:none;fill-opacity:0.15686275;stroke:none"
             d="m 322.14285,849.85714 c 1.59707,0 3,-0.57542 3,-2.99996 0,-0.94263 0,-1 0,-1 l -1,0 c 0,0.88676 0,0.28587 0,1 0,0.89359 -0.31679,1.99996 -2,1.99996 l -1,0 0,1 z"
             id="path5069"
             inkscape:connector-curvature="0"
             sodipodi:nodetypes="csccscccc" />
          <path
             id="path5073"
             d="m 326.14286,847.32589 c 0,1.94821 -1.58839,3.53125 -3.53125,3.53125 l -1.46875,0 0,-1 1.46875,0 c 1.40502,0 2.53125,-1.11588 2.53125,-2.53125 l 0,-1.46875 1,0 0,1.46875 z"
             style="opacity:0.85199998;fill:none;fill-opacity:0.15686275;fill-rule:nonzero;stroke:none"
             inkscape:connector-curvature="0" />
        </g>
      </g>
      <rect
         style="opacity:0.52100004;fill:none;fill-opacity:0;stroke:none"
         id="rect5075"
         width="1.9999973"
         height="2.0000634"
         x="326.14285"
         y="851.85712" />
    </g>
    <path
       inkscape:connector-curvature="0"
       id="hover-center"
       d="m -252,525.46828 0,48 48,0 0,-48 -48,0 z"
       style="opacity:0.65;fill-opacity:1;fill-rule:nonzero;stroke:none;fill:currentColor"
       class="ColorScheme-Highlight"
       inkscape:label="#selected-center-5" />
    <path
       class="ColorScheme-Highlight"
       inkscape:connector-curvature="0"
       style="opacity:0.65;fill-rule:nonzero;stroke:none;stroke-width:1.73233438;fill:currentColor;fill-opacity:1"
       d="m -256,525.45249 v 48.01572 h 4 v -48.01572 z"
       id="hover-left"
       inkscape:label="#path4119-9" />
    <path
       class="ColorScheme-Highlight"
       inkscape:connector-curvature="0"
       id="hover-top"
       d="m -252.01,521.4683 v 4 h 48.02159 v -4 z"
       style="opacity:0.65;fill-opacity:1;fill-rule:nonzero;stroke:none;stroke-width:0.60545605;fill:currentColor"
       inkscape:label="#path4143-7" />
    <path
       class="ColorScheme-Highlight"
       inkscape:connector-curvature="0"
       id="hover-right"
       d="m -199.99999,525.46837 v 48.00003 h -4 v -48.00003 z"
       style="opacity:0.65;fill-opacity:1;fill-rule:nonzero;stroke:none;stroke-width:1.73205125;fill:currentColor"
       inkscape:label="#path4167-1" />
    <path
       inkscape:connector-curvature="0"
       id="selected+hover-center"
       d="m -147,525.26324 0,48 48,0 0,-48 -48,0 z"
       style="fill:currentColor;fill-opacity:1;fill-rule:nonzero;stroke:none;opacity:0.7"
       class="ColorScheme-Highlight"
       inkscape:label="#selected-center-5" />
    <g
       transform="matrix(1,0,0,3.0009825,-337.14285,-1965.1393)"
       id="selected+hover-left"
       inkscape:label="#selected-left-6"
       style="fill:currentColor;opacity:0.7">
      <path
         id="path4119-9-6"
         d="m 186.14285,829.85712 0,16 4,0 0,-16 -4,0 z"
         style="fill:currentColor;fill-rule:nonzero;stroke:none"
         inkscape:connector-curvature="0"
         class="ColorScheme-Highlight" />
    </g>
    <g
       transform="matrix(0.36657704,0,0,1,-216.71201,-304.59388)"
       id="selected+hover-top"
       inkscape:label="#selected-top-3"
       style="fill:currentColor;opacity:0.7">
      <path
         style="fill:currentColor;fill-opacity:1;fill-rule:nonzero;stroke:none"
         d="m 190.14286,825.85714 0,4 131,0 0,-4 -131,0 z"
         id="path4143-7-8"
         inkscape:connector-curvature="0"
         class="ColorScheme-Highlight" />
    </g>
    <g
       transform="matrix(1,0,0,3.0000017,-420.14285,-1964.3095)"
       id="selected+hover-right"
       inkscape:label="#selected-right-5"
       style="fill:currentColor;opacity:0.7">
      <path
         style="fill:currentColor;fill-opacity:1;fill-rule:nonzero;stroke:none"
         d="m 325.14286,829.85712 0,16 -4,0 0,-16 4,0 z"
         id="path4167-1-9"
         inkscape:connector-curvature="0"
         class="ColorScheme-Highlight" />
    </g>
    <path
       class="ColorScheme-Highlight"
       inkscape:connector-curvature="0"
       id="hover-bottom"
       d="m -203.97841,577.46856 v -4 H -252 v 4 z"
       style="opacity:0.65;fill-opacity:1;fill-rule:nonzero;stroke:none;stroke-width:0.60545605;fill:currentColor"
       inkscape:label="#path4143-7-6" />
    <g
       transform="matrix(-0.36657704,0,0,-1,-29.276401,1403.1203)"
       id="selected+hover-bottom"
       inkscape:label="#selected+hover-bottom"
       style="fill:currentColor;opacity:0.7">
      <path
         style="fill:currentColor;fill-opacity:1;fill-rule:nonzero;stroke:none"
         d="m 190.14286,825.85714 0,4 131,0 0,-4 -131,0 z"
         id="path4143-7-8-4"
         inkscape:connector-curvature="0"
         class="ColorScheme-Highlight" />
    </g>
    <path
       inkscape:connector-curvature="0"
       id="selected-center"
       d="m -266.98842,447.01565 v 48 h 48 v -48 z"
       style="opacity:0.6;fill-opacity:1;fill:currentColor;fill-rule:nonzero;stroke:none"
       class="ColorScheme-Highlight"
       inkscape:label="#selected-center-5" />
    <path
       class="ColorScheme-Highlight"
       inkscape:connector-curvature="0"
       style="opacity:0.6;fill:currentColor;fill-rule:nonzero;stroke:none;stroke-width:1.73233438"
       d="m -270.98842,446.99986 v 48.01572 h 4 v -48.01572 z"
       id="selected-left"
       inkscape:label="#path4119-9" />
    <path
       class="ColorScheme-Highlight"
       inkscape:connector-curvature="0"
       id="selected-top"
       d="m -266.99842,443.01567 v 4 h 48.02159 v -4 z"
       style="opacity:0.6;fill-opacity:1;fill:currentColor;fill-rule:nonzero;stroke:none;stroke-width:0.60545605"
       inkscape:label="#path4143-7" />
    <path
       class="ColorScheme-Highlight"
       inkscape:connector-curvature="0"
       id="selected-right"
       d="m -214.98841,447.01574 v 48.00003 h -4 v -48.00003 z"
       style="opacity:0.6;fill-opacity:1;fill:currentColor;fill-rule:nonzero;stroke:none;stroke-width:1.73205125"
       inkscape:label="#path4167-1" />
    <path
       class="ColorScheme-Highlight"
       inkscape:connector-curvature="0"
       id="selected-bottom"
       d="m -218.96683,499.01593 v -4 h -48.02159 v 4 z"
       style="opacity:0.6;fill-opacity:1;fill:currentColor;fill-rule:nonzero;stroke:none;stroke-width:0.60545605"
       inkscape:label="#path4143-7-6" />
    <rect
       class="ColorScheme-Highlight"
       style="opacity:0.65;fill-opacity:1;stroke:none;stroke-width:1.99354684;fill:currentColor"
       id="hover-topleft"
       width="3.98419"
       height="3.99"
       x="-525.45251"
       y="-256"
       transform="rotate(-90)"
       inkscape:label="#rect5003-5-6-8-5-1-3" />
    <rect
       class="ColorScheme-Highlight"
       style="opacity:0.65;fill-opacity:1;stroke:none;stroke-width:2.00008917;fill:currentColor"
       id="hover-bottomleft"
       width="4.0003567"
       height="4"
       x="-577.46857"
       y="-256"
       transform="rotate(-90)"
       inkscape:label="#rect5003-5-6-8-5-1-3" />
    <rect
       class="ColorScheme-Highlight"
       style="opacity:0.65;fill-opacity:1;stroke:none;stroke-width:1.99463761;fill:currentColor"
       id="hover-bottomright"
       width="4.0001602"
       height="3.97842"
       x="-577.46857"
       y="-203.97841"
       transform="rotate(-90)"
       inkscape:label="#rect5003-5-6-8-5-1-3" />
    <rect
       class="ColorScheme-Highlight"
       style="opacity:0.65;fill-opacity:1;stroke:none;stroke-width:1.99711859;fill:currentColor"
       id="hover-topright"
       width="4.0000701"
       height="3.9884133"
       x="-525.46838"
       y="-203.9884"
       transform="rotate(-90)"
       inkscape:label="#rect5003-5-6-8-5-1-3" />
    <rect
       class="ColorScheme-Highlight"
       style="opacity:0.6;fill-opacity:1;fill:currentColor;stroke:none;stroke-width:1.99354684"
       id="selected-topleft"
       width="3.98419"
       height="3.99"
       x="-446.99988"
       y="-270.98843"
       transform="rotate(-90)"
       inkscape:label="#rect5003-5-6-8-5-1-3" />
    <rect
       class="ColorScheme-Highlight"
       style="opacity:0.6;fill-opacity:1;fill:currentColor;stroke:none;stroke-width:2.00008917"
       id="selected-bottomleft"
       width="4.0003567"
       height="4"
       x="-499.01593"
       y="-270.98843"
       transform="rotate(-90)"
       inkscape:label="#rect5003-5-6-8-5-1-3" />
    <rect
       class="ColorScheme-Highlight"
       style="opacity:0.6;fill-opacity:1;fill:currentColor;stroke:none;stroke-width:1.99463761"
       id="selected-bottomright"
       width="4.0001602"
       height="3.97842"
       x="-499.01593"
       y="-218.96681"
       transform="rotate(-90)"
       inkscape:label="#rect5003-5-6-8-5-1-3" />
    <rect
       class="ColorScheme-Highlight"
       style="opacity:0.6;fill-opacity:1;fill:currentColor;stroke:none;stroke-width:1.99711859"
       id="selected-topright"
       width="4.0000701"
       height="3.9884133"
       x="-447.01575"
       y="-218.97682"
       transform="rotate(-90)"
       inkscape:label="#rect5003-5-6-8-5-1-3" />
    <rect
       class="ColorScheme-Highlight"
       style="opacity:0.7;fill-opacity:1;fill:currentColor;stroke:none;stroke-width:1.99354684"
       id="selected+hover-topleft"
       width="3.98419"
       height="3.99"
       x="-525.24744"
       y="-151"
       transform="rotate(-90)"
       inkscape:label="#rect5003-5-6-8-5-1-3" />
    <rect
       class="ColorScheme-Highlight"
       style="opacity:0.7;fill-opacity:1;fill:currentColor;stroke:none;stroke-width:2.00008917"
       id="selected+hover-bottomleft"
       width="4.0003567"
       height="4"
       x="-577.26349"
       y="-151"
       transform="rotate(-90)"
       inkscape:label="#rect5003-5-6-8-5-1-3" />
    <rect
       class="ColorScheme-Highlight"
       style="opacity:0.7;fill-opacity:1;fill:currentColor;stroke:none;stroke-width:1.99463761"
       id="selected+hover-bottomright"
       width="4.0001602"
       height="3.97842"
       x="-577.26343"
       y="-98.978409"
       transform="rotate(-90)"
       inkscape:label="#rect5003-5-" />
    <rect
       class="ColorScheme-Highlight"
       style="opacity:0.7;fill:currentColor;fill-opacity:1;stroke:none;stroke-width:1.99711859"
       id="selected+hover-topright"
       width="4.0000701"
       height="3.9884133"
       x="-525.26324"
       y="-98.988403"
       transform="rotate(-90)"
       inkscape:label="#rect5003-5-6-8-5-1-3" />
  </g>
</svg>
