/* XPM */
static char *hide_xpm[] = {
"32 32 27 1",
" 	c None",
"B	c #1D2D1E",
"C	c #061606",
"D	c #0D2E0D",
"E	c #1C641C",
"F	c #268926",
"G	c #2A9A2A",
"H	c #071907",
"I	c #1C671C",
"J	c #2C9F2C",
"K	c #2CA02C",
"L	c #2B9E2B",
"M	c #1D661D",
"N	c #237D23",
"O	c #1C681C",
"P	c #1C651C",
"Q	c #0C2D0C",
"R	c #1B631B",
"S	c #268A26",
"T	c #258825",
"U	c #2A992A",
"V	c #2A982A",
"W	c #195B19",
"X	c #1B621B",
"Y	c #0C2C0C",
"Z	c #227C22",
"a	c #227B22",
"BBBBBBBBBBBBBBBBBBBBBBBBBBBBBBBB",
"CCCCCCCCCCCCCCCCCCCCCCCCCCCCCCCC",
"CCCCCCCCCCCCCCCCCCCCCCCCCCCCCCCC",
"CCCCCCCCCCCCCCCCCCCCCCCCCCCCCCCC",
"CCCCCCCCCCCCCCCCCCCCCCCCCCCCCCCC",
"CCCCCCCCCCCCCCCCCCCCCCCCCCCCCCCC",
"CCCCCCCCCCCCCCCCCCCCCCCCCCCCCCCC",
"CCCCCCCCCCCCCCCCCCCCCCCCCCCCCCCC",
"CCCCCCCCCCCCDEFGGFEDCCCCCCCCCCCC",
"CCCCCCCCCCHIJKKKKKKLMHCCCCCCCCCC",
"CCCCCCCCCHNKKKKKKKKKKNHCCCCCCCCC",
"CCCCCCCCCOKKKKKKKKKKKKPCCCCCCCCC",
"CCCCCCCCDJKKKKKKKKKKKKLQCCCCCCCC",
"CCCCCCCCEKKKKKKKKKKKKKKRCCCCCCCC",
"CCCCCCCCSKKKKKKKKKKKKKKTCCCCCCCC",
"CCCCCCCCUKKKKKKKKKKKKKKUCCCCCCCC",
"CCCCCCCCUKKKKKKKKKKKKKKVCCCCCCCC",
"CCCCCCCCSKKHHHHHHHHHHKKTCCCCCCCC",
"CCCCCCCCEKKGGGGGGGGGGKKXCCCCCCCC",
"CCCCCCCCDLKKKKKKKKKKKKLYCCCCCCCC",
"CCCCCCCCCMKKKKKKKKKKKKECCCCCCCCC",
"CCCCCCCCCHZKKKKKKKKKKaHCCCCCCCCC",
"CCCCCCCCCCHPLKKKKKKLEHCCCCCCCCCC",
"CCCCCCCCCCCCQRTUUTXYCCCCCCCCCCCC",
"CCCCCCCCCCCCCCCCCCCCCCCCCCCCCCCC",
"CCCCCCCCCCCCCCCCCCCCCCCCCCCCCCCC",
"CCCCCCCCCCCCCCCCCCCCCCCCCCCCCCCC",
"CCCCCCCCCCCCCCCCCCCCCCCCCCCCCCCC",
"CCCCCCCCCCCCCCCCCCCCCCCCCCCCCCCC",
"CCCCCCCCCCCCCCCCCCCCCCCCCCCCCCCC",
"CCCCCCCCCCCCCCCCCCCCCCCCCCCCCCCC",
"CCCCCCCCCCCCCCCCCCCCCCCCCCCCCCCC"
};
