/* XPM */
static char * shade_toggled_prelight_xpm[] = {
"32 32 39 1",
" 	c None",
".	c #1D2D1E",
"+	c #061606",
"@	c #0D2E0D",
"#	c #1C641C",
"$	c #268926",
"%	c #2A9A2A",
"&	c #071907",
"*	c #1C671C",
"=	c #2C9F2C",
"-	c #2CA02C",
";	c #2B9E2B",
">	c #1D661D",
",	c #237D23",
"'	c #1C681C",
")	c #1C651C",
"!	c #0C2D0C",
"~	c #1B631B",
"{	c #268A26",
"]	c #258825",
"^	c #2A992A",
"/	c #289528",
"(	c #248324",
"_	c #0E310E",
":	c #217721",
"<	c #2A982A",
"[	c #299729",
"}	c #124412",
"|	c #144914",
"1	c #299529",
"2	c #217621",
"3	c #0D2F0D",
"4	c #1A5E1A",
"5	c #1B621B",
"6	c #1A5F1A",
"7	c #0C2C0C",
"8	c #2A9B2A",
"9	c #227C22",
"0	c #227B22",
"................................",
"++++++++++++++++++++++++++++++++",
"++++++++++++++++++++++++++++++++",
"++++++++++++++++++++++++++++++++",
"++++++++++++++++++++++++++++++++",
"++++++++++++++++++++++++++++++++",
"++++++++++++++++++++++++++++++++",
"++++++++++++++++++++++++++++++++",
"++++++++++++@#$%%$#@++++++++++++",
"++++++++++&*=------;>&++++++++++",
"+++++++++&,----------,&+++++++++",
"+++++++++'------------)+++++++++",
"++++++++@=------------;!++++++++",
"++++++++#--------------~++++++++",
"++++++++{--------------]++++++++",
"++++++++^]/----------/]^++++++++",
"++++++++^(_:--------:_(<++++++++",
"++++++++{-[}|1----1|}[-]++++++++",
"++++++++#---234^^432---5++++++++",
"++++++++@;---^6@@6^---;7++++++++",
"+++++++++>-----88-----#+++++++++",
"+++++++++&9----------0&+++++++++",
"++++++++++&);------;#&++++++++++",
"++++++++++++!~]^^]57++++++++++++",
"++++++++++++++++++++++++++++++++",
"++++++++++++++++++++++++++++++++",
"++++++++++++++++++++++++++++++++",
"++++++++++++++++++++++++++++++++",
"++++++++++++++++++++++++++++++++",
"++++++++++++++++++++++++++++++++",
"++++++++++++++++++++++++++++++++",
"++++++++++++++++++++++++++++++++"};
