/* XPM */
static char * shade_prelight_xpm[] = {
"32 32 39 1",
" 	c None",
".	c #1D2D1E",
"+	c #061606",
"@	c #0D2E0D",
"#	c #1C641C",
"$	c #268926",
"%	c #2A9A2A",
"&	c #071907",
"*	c #1C671C",
"=	c #2C9F2C",
"-	c #2CA02C",
";	c #2B9E2B",
">	c #1D661D",
",	c #237D23",
"'	c #1C681C",
")	c #2A9B2A",
"!	c #1C651C",
"~	c #2A992A",
"{	c #1A5F1A",
"]	c #0C2D0C",
"^	c #217621",
"/	c #0D2F0D",
"(	c #1A5E1A",
"_	c #1B631B",
":	c #268A26",
"<	c #299729",
"[	c #124412",
"}	c #144914",
"|	c #299529",
"1	c #258825",
"2	c #248324",
"3	c #0E310E",
"4	c #217721",
"5	c #289528",
"6	c #2A982A",
"7	c #1B621B",
"8	c #0C2C0C",
"9	c #227C22",
"0	c #227B22",
"................................",
"++++++++++++++++++++++++++++++++",
"++++++++++++++++++++++++++++++++",
"++++++++++++++++++++++++++++++++",
"++++++++++++++++++++++++++++++++",
"++++++++++++++++++++++++++++++++",
"++++++++++++++++++++++++++++++++",
"++++++++++++++++++++++++++++++++",
"++++++++++++@#$%%$#@++++++++++++",
"++++++++++&*=------;>&++++++++++",
"+++++++++&,----------,&+++++++++",
"+++++++++'-----))-----!+++++++++",
"++++++++@=---~{@@{~---;]++++++++",
"++++++++#---^/(~~(/^---_++++++++",
"++++++++:-<[}|----|}[<-1++++++++",
"++++++++~234--------432~++++++++",
"++++++++~15----------516++++++++",
"++++++++:--------------1++++++++",
"++++++++#--------------7++++++++",
"++++++++@;------------;8++++++++",
"+++++++++>------------#+++++++++",
"+++++++++&9----------0&+++++++++",
"++++++++++&!;------;#&++++++++++",
"++++++++++++]_1~~178++++++++++++",
"++++++++++++++++++++++++++++++++",
"++++++++++++++++++++++++++++++++",
"++++++++++++++++++++++++++++++++",
"++++++++++++++++++++++++++++++++",
"++++++++++++++++++++++++++++++++",
"++++++++++++++++++++++++++++++++",
"++++++++++++++++++++++++++++++++",
"++++++++++++++++++++++++++++++++"};
