/* XPM */
static char * stick_prelight_xpm[] = {
"32 32 28 1",
" 	c None",
".	c #1D2D1E",
"+	c #061606",
"@	c #0D2E0D",
"#	c #1C641C",
"$	c #268926",
"%	c #2A9A2A",
"&	c #071907",
"*	c #1C671C",
"=	c #2C9F2C",
"-	c #2CA02C",
";	c #2B9E2B",
">	c #1D661D",
",	c #237D23",
"'	c #1C681C",
")	c #1C651C",
"!	c #0C2D0C",
"~	c #1B631B",
"{	c #268A26",
"]	c #1E6E1E",
"^	c #258825",
"/	c #2A992A",
"(	c #1E6F1E",
"_	c #2A982A",
":	c #1B621B",
"<	c #0C2C0C",
"[	c #227C22",
"}	c #227B22",
"................................",
"++++++++++++++++++++++++++++++++",
"++++++++++++++++++++++++++++++++",
"++++++++++++++++++++++++++++++++",
"++++++++++++++++++++++++++++++++",
"++++++++++++++++++++++++++++++++",
"++++++++++++++++++++++++++++++++",
"++++++++++++++++++++++++++++++++",
"++++++++++++@#$%%$#@++++++++++++",
"++++++++++&*=------;>&++++++++++",
"+++++++++&,----------,&+++++++++",
"+++++++++'------------)+++++++++",
"++++++++@=------------;!++++++++",
"++++++++#--------------~++++++++",
"++++++++{-----=]]=-----^++++++++",
"++++++++/-----]++]-----/++++++++",
"++++++++/-----]++(-----_++++++++",
"++++++++{-----=((=-----^++++++++",
"++++++++#--------------:++++++++",
"++++++++@;------------;<++++++++",
"+++++++++>------------#+++++++++",
"+++++++++&[----------}&+++++++++",
"++++++++++&);------;#&++++++++++",
"++++++++++++!~^//^:<++++++++++++",
"++++++++++++++++++++++++++++++++",
"++++++++++++++++++++++++++++++++",
"++++++++++++++++++++++++++++++++",
"++++++++++++++++++++++++++++++++",
"++++++++++++++++++++++++++++++++",
"++++++++++++++++++++++++++++++++",
"++++++++++++++++++++++++++++++++",
"++++++++++++++++++++++++++++++++"};
