/* XPM */
static char * close_active_xpm[] = {
"32 32 20 1",
" 	c None",
".	c #2C202D",
"+	c #160816",
"@	c #230D23",
"#	c #3F173F",
"$	c #531F53",
"%	c #5C225C",
"&	c #401740",
"*	c #220D22",
"=	c #180918",
"-	c #411841",
";	c #5E245E",
">	c #5F245F",
",	c #401840",
"'	c #170917",
")	c #4D1D4D",
"!	c #4C1D4C",
"~	c #3F183F",
"{	c #5B225B",
"]	c #4C1C4C",
"................................",
"++++++++++++++++++++++++++++++++",
"++++++++++++++++++++++++++++++++",
"++++++++++++++++++++++++++++++++",
"++++++++++++++++++++++++++++++++",
"++++++++++++++++++++++++++++++++",
"++++++++++++++++++++++++++++++++",
"++++++++++++++++++++++++++++++++",
"++++++++++++@#$%%$&*++++++++++++",
"++++++++++=-;>>>>>>;,'++++++++++",
"+++++++++=)>>>>>>>>>>!'+++++++++",
"+++++++++->>>>>>>>>>>>,+++++++++",
"++++++++@;>>>>>>>>>>>>;*++++++++",
"++++++++#>>>>>>>>>>>>>>~++++++++",
"++++++++$>>>>>>>>>>>>>>$++++++++",
"++++++++%>>>>>>>>>>>>>>{++++++++",
"++++++++{>>>>>>>>>>>>>>{++++++++",
"++++++++$>>>>>>>>>>>>>>$++++++++",
"++++++++&>>>>>>>>>>>>>>~++++++++",
"++++++++*;>>>>>>>>>>>>;*++++++++",
"+++++++++,>>>>>>>>>>>>#+++++++++",
"+++++++++'!>>>>>>>>>>]=+++++++++",
"++++++++++',;>>>>>>;#=++++++++++",
"++++++++++++*~$%%$~*++++++++++++",
"++++++++++++++++++++++++++++++++",
"++++++++++++++++++++++++++++++++",
"++++++++++++++++++++++++++++++++",
"++++++++++++++++++++++++++++++++",
"++++++++++++++++++++++++++++++++",
"++++++++++++++++++++++++++++++++",
"++++++++++++++++++++++++++++++++",
"++++++++++++++++++++++++++++++++"};
