/* XPM */
static char *hide_xpm[] = {
"32 32 29 1",
" 	c None",
"B	c #2C202D",
"C	c #160816",
"D	c #2C112C",
"E	c #5E235E",
"F	c #813081",
"G	c #913791",
"H	c #5F235F",
"I	c #190A19",
"J	c #612561",
"K	c #953995",
"L	c #963996",
"M	c #943894",
"N	c #602460",
"O	c #190919",
"P	c #762C76",
"Q	c #752C75",
"R	c #622562",
"S	c #5F245F",
"T	c #2B112B",
"U	c #5E245E",
"V	c #813181",
"W	c #803080",
"X	c #903690",
"Y	c #8F368F",
"Z	c #562056",
"a	c #5D245D",
"b	c #2B102B",
"c	c #742C74",
"BBBBBBBBBBBBBBBBBBBBBBBBBBBBBBBB",
"CCCCCCCCCCCCCCCCCCCCCCCCCCCCCCCC",
"CCCCCCCCCCCCCCCCCCCCCCCCCCCCCCCC",
"CCCCCCCCCCCCCCCCCCCCCCCCCCCCCCCC",
"CCCCCCCCCCCCCCCCCCCCCCCCCCCCCCCC",
"CCCCCCCCCCCCCCCCCCCCCCCCCCCCCCCC",
"CCCCCCCCCCCCCCCCCCCCCCCCCCCCCCCC",
"CCCCCCCCCCCCCCCCCCCCCCCCCCCCCCCC",
"CCCCCCCCCCCCDEFGGFHDCCCCCCCCCCCC",
"CCCCCCCCCCIJKLLLLLLMNOCCCCCCCCCC",
"CCCCCCCCCIPLLLLLLLLLLQOCCCCCCCCC",
"CCCCCCCCCRLLLLLLLLLLLLSCCCCCCCCC",
"CCCCCCCCDKLLLLLLLLLLLLMTCCCCCCCC",
"CCCCCCCCELLLLLLLLLLLLLLUCCCCCCCC",
"CCCCCCCCVLLLLLLLLLLLLLLWCCCCCCCC",
"CCCCCCCCXLLLLLLLLLLLLLLYCCCCCCCC",
"CCCCCCCCYLLLLLLLLLLLLLLYCCCCCCCC",
"CCCCCCCCVLLIIIIIIIIIILLWCCCCCCCC",
"CCCCCCCCHLLGGGGGGGGGGLLaCCCCCCCC",
"CCCCCCCCDMLLLLLLLLLLLLMbCCCCCCCC",
"CCCCCCCCCNLLLLLLLLLLLLECCCCCCCCC",
"CCCCCCCCCOQLLLLLLLLLLcOCCCCCCCCC",
"CCCCCCCCCCOSMLLLLLLMEOCCCCCCCCCC",
"CCCCCCCCCCCCTUWXXWabCCCCCCCCCCCC",
"CCCCCCCCCCCCCCCCCCCCCCCCCCCCCCCC",
"CCCCCCCCCCCCCCCCCCCCCCCCCCCCCCCC",
"CCCCCCCCCCCCCCCCCCCCCCCCCCCCCCCC",
"CCCCCCCCCCCCCCCCCCCCCCCCCCCCCCCC",
"CCCCCCCCCCCCCCCCCCCCCCCCCCCCCCCC",
"CCCCCCCCCCCCCCCCCCCCCCCCCCCCCCCC",
"CCCCCCCCCCCCCCCCCCCCCCCCCCCCCCCC",
"CCCCCCCCCCCCCCCCCCCCCCCCCCCCCCCC"
};
