/* XPM */
static char * shade_toggled_prelight_xpm[] = {
"32 32 40 1",
" 	c None",
".	c #2C202D",
"+	c #160816",
"@	c #2C112C",
"#	c #5E235E",
"$	c #813081",
"%	c #913791",
"&	c #5F235F",
"*	c #190A19",
"=	c #612561",
"-	c #953995",
";	c #963996",
">	c #943894",
",	c #602460",
"'	c #190919",
")	c #762C76",
"!	c #752C75",
"~	c #622562",
"{	c #5F245F",
"]	c #2B112B",
"^	c #5E245E",
"/	c #813181",
"(	c #803080",
"_	c #903690",
":	c #8C358C",
"<	c #8F368F",
"[	c #7B2F7B",
"}	c #2F112F",
"|	c #702A70",
"1	c #8D368D",
"2	c #401840",
"3	c #451A45",
"4	c #8C368C",
"5	c #6F2A6F",
"6	c #2E122E",
"7	c #592259",
"8	c #5D245D",
"9	c #2B102B",
"0	c #923792",
"a	c #742C74",
"................................",
"++++++++++++++++++++++++++++++++",
"++++++++++++++++++++++++++++++++",
"++++++++++++++++++++++++++++++++",
"++++++++++++++++++++++++++++++++",
"++++++++++++++++++++++++++++++++",
"++++++++++++++++++++++++++++++++",
"++++++++++++++++++++++++++++++++",
"++++++++++++@#$%%$&@++++++++++++",
"++++++++++*=-;;;;;;>,'++++++++++",
"+++++++++*);;;;;;;;;;!'+++++++++",
"+++++++++~;;;;;;;;;;;;{+++++++++",
"++++++++@-;;;;;;;;;;;;>]++++++++",
"++++++++#;;;;;;;;;;;;;;^++++++++",
"++++++++/;;;;;;;;;;;;;;(++++++++",
"++++++++_(:;;;;;;;;;;:(<++++++++",
"++++++++<[}|;;;;;;;;|}[<++++++++",
"++++++++/;1234;;;;4321;(++++++++",
"++++++++&;;;567__765;;;8++++++++",
"++++++++@>;;;_7@@7_;;;>9++++++++",
"+++++++++,;;;;;00;;;;;#+++++++++",
"+++++++++'!;;;;;;;;;;a'+++++++++",
"++++++++++'{>;;;;;;>#'++++++++++",
"++++++++++++]^(__(89++++++++++++",
"++++++++++++++++++++++++++++++++",
"++++++++++++++++++++++++++++++++",
"++++++++++++++++++++++++++++++++",
"++++++++++++++++++++++++++++++++",
"++++++++++++++++++++++++++++++++",
"++++++++++++++++++++++++++++++++",
"++++++++++++++++++++++++++++++++",
"++++++++++++++++++++++++++++++++"};
