/* XPM */
static char * shade_prelight_xpm[] = {
"32 32 40 1",
" 	c None",
".	c #2C202D",
"+	c #160816",
"@	c #2C112C",
"#	c #5E235E",
"$	c #813081",
"%	c #913791",
"&	c #5F235F",
"*	c #190A19",
"=	c #612561",
"-	c #953995",
";	c #963996",
">	c #943894",
",	c #602460",
"'	c #190919",
")	c #762C76",
"!	c #752C75",
"~	c #622562",
"{	c #923792",
"]	c #5F245F",
"^	c #903690",
"/	c #592259",
"(	c #2B112B",
"_	c #6F2A6F",
":	c #2E122E",
"<	c #5E245E",
"[	c #813181",
"}	c #8D368D",
"|	c #401840",
"1	c #451A45",
"2	c #8C368C",
"3	c #803080",
"4	c #7B2F7B",
"5	c #2F112F",
"6	c #702A70",
"7	c #8F368F",
"8	c #8C358C",
"9	c #5D245D",
"0	c #2B102B",
"a	c #742C74",
"................................",
"++++++++++++++++++++++++++++++++",
"++++++++++++++++++++++++++++++++",
"++++++++++++++++++++++++++++++++",
"++++++++++++++++++++++++++++++++",
"++++++++++++++++++++++++++++++++",
"++++++++++++++++++++++++++++++++",
"++++++++++++++++++++++++++++++++",
"++++++++++++@#$%%$&@++++++++++++",
"++++++++++*=-;;;;;;>,'++++++++++",
"+++++++++*);;;;;;;;;;!'+++++++++",
"+++++++++~;;;;;{{;;;;;]+++++++++",
"++++++++@-;;;^/@@/^;;;>(++++++++",
"++++++++#;;;_:/^^/:_;;;<++++++++",
"++++++++[;}|12;;;;21|};3++++++++",
"++++++++^456;;;;;;;;6547++++++++",
"++++++++738;;;;;;;;;;837++++++++",
"++++++++[;;;;;;;;;;;;;;3++++++++",
"++++++++&;;;;;;;;;;;;;;9++++++++",
"++++++++@>;;;;;;;;;;;;>0++++++++",
"+++++++++,;;;;;;;;;;;;#+++++++++",
"+++++++++'!;;;;;;;;;;a'+++++++++",
"++++++++++']>;;;;;;>#'++++++++++",
"++++++++++++(<3^^390++++++++++++",
"++++++++++++++++++++++++++++++++",
"++++++++++++++++++++++++++++++++",
"++++++++++++++++++++++++++++++++",
"++++++++++++++++++++++++++++++++",
"++++++++++++++++++++++++++++++++",
"++++++++++++++++++++++++++++++++",
"++++++++++++++++++++++++++++++++",
"++++++++++++++++++++++++++++++++"};
