/* XPM */
static char * close_inactive_xpm[] = {
"32 32 17 1",
" 	c None",
".	c #2C1E1E",
"+	c #160606",
"@	c #210909",
"#	c #381010",
"$	c #491414",
"%	c #501616",
"&	c #391010",
"*	c #200909",
"=	c #170707",
"-	c #3A1010",
";	c #521717",
">	c #531717",
",	c #441313",
"'	c #4F1616",
")	c #431313",
"!	c #180606",
"................................",
"++++++++++++++++++++++++++++++++",
"++++++++++++++++++++++++++++++++",
"++++++++++++++++++++++++++++++++",
"++++++++++++++++++++++++++++++++",
"++++++++++++++++++++++++++++++++",
"++++++++++++++++++++++++++++++++",
"++++++++++++++++++++++++++++++++",
"++++++++++++@#$%%$&*++++++++++++",
"++++++++++=-;>>>>>>;&=++++++++++",
"+++++++++=,>>>>>>>>>>,=+++++++++",
"+++++++++->>>>>>>>>>>>&+++++++++",
"++++++++@;>>>>>>>>>>>>;*++++++++",
"++++++++#>>>>>>>>>>>>>>#++++++++",
"++++++++$>>>>>>>>>>>>>>$++++++++",
"++++++++%>>>>>>>>>>>>>>%++++++++",
"++++++++%>>>>>>>>>>>>>>'++++++++",
"++++++++$>>>>>>>>>>>>>>$++++++++",
"++++++++&>>>>>>>>>>>>>>#++++++++",
"++++++++*;>>>>>>>>>>>>;*++++++++",
"+++++++++&>>>>>>>>>>>>#+++++++++",
"+++++++++=)>>>>>>>>>>)!+++++++++",
"++++++++++=&;>>>>>>;#!++++++++++",
"++++++++++++*#$%%$#*++++++++++++",
"++++++++++++++++++++++++++++++++",
"++++++++++++++++++++++++++++++++",
"++++++++++++++++++++++++++++++++",
"++++++++++++++++++++++++++++++++",
"++++++++++++++++++++++++++++++++",
"++++++++++++++++++++++++++++++++",
"++++++++++++++++++++++++++++++++",
"++++++++++++++++++++++++++++++++"};
