/* XPM */
static char * maximize_toggled_prelight_xpm[] = {
"32 32 27 1",
" 	c None",
".	c #2C1E1E",
"+	c #160606",
"@	c #2E0D0D",
"#	c #641C1C",
"$	c #892626",
"%	c #9A2A2A",
"&	c #190707",
"*	c #671C1C",
"=	c #9F2C2C",
"-	c #A02C2C",
";	c #9E2B2B",
">	c #661D1D",
",	c #7D2323",
"'	c #681C1C",
")	c #651C1C",
"!	c #5B1919",
"~	c #2D0C0C",
"{	c #631B1B",
"]	c #8A2626",
"^	c #882525",
"/	c #992A2A",
"(	c #982A2A",
"_	c #621B1B",
":	c #2C0C0C",
"<	c #7C2222",
"[	c #7B2222",
"................................",
"++++++++++++++++++++++++++++++++",
"++++++++++++++++++++++++++++++++",
"++++++++++++++++++++++++++++++++",
"++++++++++++++++++++++++++++++++",
"++++++++++++++++++++++++++++++++",
"++++++++++++++++++++++++++++++++",
"++++++++++++++++++++++++++++++++",
"++++++++++++@#$%%$#@++++++++++++",
"++++++++++&*=------;>&++++++++++",
"+++++++++&,----------,&+++++++++",
"+++++++++'------------)+++++++++",
"++++++++@=----!!!!!!--;~++++++++",
"++++++++#----------!---{++++++++",
"++++++++]---++++++-!---^++++++++",
"++++++++/---+----+-!---/++++++++",
"++++++++/---+----+-!---(++++++++",
"++++++++]---+----+-!---^++++++++",
"++++++++#---+----+-----_++++++++",
"++++++++@;--++++++----;:++++++++",
"+++++++++>------------#+++++++++",
"+++++++++&<----------[&+++++++++",
"++++++++++&);------;#&++++++++++",
"++++++++++++~{^//^_:++++++++++++",
"++++++++++++++++++++++++++++++++",
"++++++++++++++++++++++++++++++++",
"++++++++++++++++++++++++++++++++",
"++++++++++++++++++++++++++++++++",
"++++++++++++++++++++++++++++++++",
"++++++++++++++++++++++++++++++++",
"++++++++++++++++++++++++++++++++",
"++++++++++++++++++++++++++++++++"};
