/* XPM */
static char * stick_toggled_prelight_xpm[] = {
"32 32 39 1",
" 	c None",
".	c #2C2119",
"+	c #160900",
"@	c #3F1D07",
"#	c #9A4C18",
"$	c #D86C23",
"%	c #F57A28",
"&	c #3E1D07",
"*	c #1C0C01",
"=	c #9F4F19",
"-	c #FD7E2A",
";	c #FF7F2A",
">	c #FC7E2A",
",	c #9D4E18",
"'	c #1B0C01",
")	c #C4611F",
"!	c #C3601F",
"~	c #A04F19",
"{	c #9C4D18",
"]	c #3D1C07",
"^	c #F07827",
"/	c #A25019",
"(	c #984B17",
"_	c #D96B23",
":	c #331805",
"<	c #341805",
"[	c #D76B23",
"}	c #F47928",
"|	c #F37928",
"1	c #A15019",
"2	c #A35119",
"3	c #F27828",
"4	c #351906",
"5	c #F17928",
"6	c #974A17",
"7	c #3C1D07",
"8	c #C2601F",
"9	c #C15F1F",
"0	c #1B0B01",
"................................",
"++++++++++++++++++++++++++++++++",
"++++++++++++++++++++++++++++++++",
"++++++++++++++++++++++++++++++++",
"++++++++++++++++++++++++++++++++",
"++++++++++++++++++++++++++++++++",
"++++++++++++++++++++++++++++++++",
"++++++++++++++++++++++++++++++++",
"++++++++++++@#$%%$#&++++++++++++",
"++++++++++*=-;;;;;;>,'++++++++++",
"+++++++++*);;;;;;;;;;!'+++++++++",
"+++++++++~;;;;;;;;;;;;{+++++++++",
"++++++++@-;;;;;;;;;;;;>]++++++++",
"++++++++#;;;;;^//^;;;;;(++++++++",
"++++++++_;;;;^:++<^;;;;[++++++++",
"++++++++};;;;~++++/;;;;|++++++++",
"++++++++|;;;;1++++2;;;;3++++++++",
"++++++++_;;;;^<++45;;;;[++++++++",
"++++++++#;;;;;^225;;;;;6++++++++",
"++++++++&>;;;;;;;;;;;;>7++++++++",
"+++++++++,;;;;;;;;;;;;#+++++++++",
"+++++++++'8;;;;;;;;;;90+++++++++",
"++++++++++'{>;;;;;;>#0++++++++++",
"++++++++++++]([}}[67++++++++++++",
"++++++++++++++++++++++++++++++++",
"++++++++++++++++++++++++++++++++",
"++++++++++++++++++++++++++++++++",
"++++++++++++++++++++++++++++++++",
"++++++++++++++++++++++++++++++++",
"++++++++++++++++++++++++++++++++",
"++++++++++++++++++++++++++++++++",
"++++++++++++++++++++++++++++++++"};
