/* XPM */
static char * close_inactive_xpm[] = {
"32 32 21 1",
" 	c None",
".	c #2C202D",
"+	c #160816",
"@	c #200C20",
"#	c #361436",
"$	c #461A46",
"%	c #4D1D4D",
"&	c #371437",
"*	c #170917",
"=	c #371537",
"-	c #4E1E4E",
";	c #4F1E4F",
">	c #411841",
",	c #381538",
"'	c #1F0C1F",
")	c #361536",
"!	c #451A45",
"~	c #4C1D4C",
"{	c #4C1C4C",
"]	c #401840",
"^	c #180918",
"................................",
"++++++++++++++++++++++++++++++++",
"++++++++++++++++++++++++++++++++",
"++++++++++++++++++++++++++++++++",
"++++++++++++++++++++++++++++++++",
"++++++++++++++++++++++++++++++++",
"++++++++++++++++++++++++++++++++",
"++++++++++++++++++++++++++++++++",
"++++++++++++@#$%%$&@++++++++++++",
"++++++++++*=-;;;;;;-&*++++++++++",
"+++++++++*>;;;;;;;;;;>*+++++++++",
"+++++++++,;;;;;;;;;;;;&+++++++++",
"++++++++@-;;;;;;;;;;;;-'++++++++",
"++++++++#;;;;;;;;;;;;;;)++++++++",
"++++++++$;;;;;;;;;;;;;;!++++++++",
"++++++++~;;;;;;;;;;;;;;{++++++++",
"++++++++{;;;;;;;;;;;;;;{++++++++",
"++++++++$;;;;;;;;;;;;;;!++++++++",
"++++++++&;;;;;;;;;;;;;;)++++++++",
"++++++++@-;;;;;;;;;;;;-'++++++++",
"+++++++++&;;;;;;;;;;;;#+++++++++",
"+++++++++*];;;;;;;;;;]^+++++++++",
"++++++++++*&-;;;;;;-#^++++++++++",
"++++++++++++')!~~!)'++++++++++++",
"++++++++++++++++++++++++++++++++",
"++++++++++++++++++++++++++++++++",
"++++++++++++++++++++++++++++++++",
"++++++++++++++++++++++++++++++++",
"++++++++++++++++++++++++++++++++",
"++++++++++++++++++++++++++++++++",
"++++++++++++++++++++++++++++++++",
"++++++++++++++++++++++++++++++++"};
