/* XPM */
static char *menu_xpm[] = {
"32 32 31 1",
" 	c None",
"B	c #2C202D",
"C	c #160816",
"D	c #2C112C",
"E	c #5E235E",
"F	c #813081",
"G	c #913791",
"H	c #5F235F",
"I	c #190A19",
"J	c #612561",
"K	c #953995",
"L	c #963996",
"M	c #943894",
"N	c #602460",
"O	c #190919",
"P	c #762C76",
"Q	c #752C75",
"R	c #622562",
"S	c #5F245F",
"T	c #481C48",
"U	c #2B112B",
"V	c #7C307C",
"W	c #5E245E",
"X	c #813181",
"Y	c #803080",
"Z	c #903690",
"a	c #632563",
"b	c #8F368F",
"c	c #5D245D",
"d	c #2B102B",
"e	c #742C74",
"BBBBBBBBBBBBBBBBBBBBBBBBBBBBBBBB",
"CCCCCCCCCCCCCCCCCCCCCCCCCCCCCCCC",
"CCCCCCCCCCCCCCCCCCCCCCCCCCCCCCCC",
"CCCCCCCCCCCCCCCCCCCCCCCCCCCCCCCC",
"CCCCCCCCCCCCCCCCCCCCCCCCCCCCCCCC",
"CCCCCCCCCCCCCCCCCCCCCCCCCCCCCCCC",
"CCCCCCCCCCCCCCCCCCCCCCCCCCCCCCCC",
"CCCCCCCCCCCCCCCCCCCCCCCCCCCCCCCC",
"CCCCCCCCCCCCDEFGGFHDCCCCCCCCCCCC",
"CCCCCCCCCCIJKLLLLLLMNOCCCCCCCCCC",
"CCCCCCCCCIPLLLLLLLLLLQOCCCCCCCCC",
"CCCCCCCCCRLLLLLLLLLLLLSCCCCCCCCC",
"CCCCCCCCDKLLIIIIIIIILLMUCCCCCCCC",
"CCCCCCCCELLLGGGGGGGGLLLWCCCCCCCC",
"CCCCCCCCXLLLLLLLLLLLLLLYCCCCCCCC",
"CCCCCCCCZLLLIIIIIIIILLLbCCCCCCCC",
"CCCCCCCCbLLLGGGGGGGGLLLbCCCCCCCC",
"CCCCCCCCXLLLLLLLLLLLLLLYCCCCCCCC",
"CCCCCCCCHLLLIIIIIIIILLLcCCCCCCCC",
"CCCCCCCCDMLLGGGGGGGGLLMdCCCCCCCC",
"CCCCCCCCCNLLLLLLLLLLLLECCCCCCCCC",
"CCCCCCCCCOQLLLLLLLLLLeOCCCCCCCCC",
"CCCCCCCCCCOSMLLLLLLMEOCCCCCCCCCC",
"CCCCCCCCCCCCUWYZZYcdCCCCCCCCCCCC",
"CCCCCCCCCCCCCCCCCCCCCCCCCCCCCCCC",
"CCCCCCCCCCCCCCCCCCCCCCCCCCCCCCCC",
"CCCCCCCCCCCCCCCCCCCCCCCCCCCCCCCC",
"CCCCCCCCCCCCCCCCCCCCCCCCCCCCCCCC",
"CCCCCCCCCCCCCCCCCCCCCCCCCCCCCCCC",
"CCCCCCCCCCCCCCCCCCCCCCCCCCCCCCCC",
"CCCCCCCCCCCCCCCCCCCCCCCCCCCCCCCC",
"CCCCCCCCCCCCCCCCCCCCCCCCCCCCCCCC"
};
