/* XPM */
static char * stick_toggled_prelight_xpm[] = {
"32 32 34 1",
" 	c None",
".	c #2C202D",
"+	c #160816",
"@	c #2C112C",
"#	c #5E235E",
"$	c #813081",
"%	c #913791",
"&	c #5F235F",
"*	c #190A19",
"=	c #612561",
"-	c #953995",
";	c #963996",
">	c #943894",
",	c #602460",
"'	c #190919",
")	c #762C76",
"!	c #752C75",
"~	c #622562",
"{	c #5F245F",
"]	c #2B112B",
"^	c #8E358E",
"/	c #632563",
"(	c #5E245E",
"_	c #813181",
":	c #260E26",
"<	c #803080",
"[	c #903690",
"}	c #8F368F",
"|	c #642564",
"1	c #270F27",
"2	c #8E368E",
"3	c #5D245D",
"4	c #2B102B",
"5	c #742C74",
"................................",
"++++++++++++++++++++++++++++++++",
"++++++++++++++++++++++++++++++++",
"++++++++++++++++++++++++++++++++",
"++++++++++++++++++++++++++++++++",
"++++++++++++++++++++++++++++++++",
"++++++++++++++++++++++++++++++++",
"++++++++++++++++++++++++++++++++",
"++++++++++++@#$%%$&@++++++++++++",
"++++++++++*=-;;;;;;>,'++++++++++",
"+++++++++*);;;;;;;;;;!'+++++++++",
"+++++++++~;;;;;;;;;;;;{+++++++++",
"++++++++@-;;;;;;;;;;;;>]++++++++",
"++++++++#;;;;;^//^;;;;;(++++++++",
"++++++++_;;;;^:++:^;;;;<++++++++",
"++++++++[;;;;~++++/;;;;}++++++++",
"++++++++};;;;~++++|;;;;}++++++++",
"++++++++_;;;;^:++12;;;;<++++++++",
"++++++++&;;;;;^||2;;;;;3++++++++",
"++++++++@>;;;;;;;;;;;;>4++++++++",
"+++++++++,;;;;;;;;;;;;#+++++++++",
"+++++++++'!;;;;;;;;;;5'+++++++++",
"++++++++++'{>;;;;;;>#'++++++++++",
"++++++++++++](<[[<34++++++++++++",
"++++++++++++++++++++++++++++++++",
"++++++++++++++++++++++++++++++++",
"++++++++++++++++++++++++++++++++",
"++++++++++++++++++++++++++++++++",
"++++++++++++++++++++++++++++++++",
"++++++++++++++++++++++++++++++++",
"++++++++++++++++++++++++++++++++",
"++++++++++++++++++++++++++++++++"};
