/* XPM */
static char * stick_toggled_prelight_xpm[] = {
"32 32 36 1",
" 	c None",
".	c #1D292D",
"+	c #061216",
"@	c #0D272E",
"#	c #1C5664",
"$	c #267589",
"%	c #2A849A",
"&	c #1C5564",
"*	c #071619",
"=	c #1C5867",
"-	c #2C889F",
";	c #2C89A0",
">	c #2B879E",
",	c #1D5866",
"'	c #071519",
")	c #236B7D",
"!	c #1C5868",
"~	c #1C5765",
"{	c #0C262D",
"]	c #298197",
"^	c #1C5969",
"/	c #1B5463",
"(	c #26758A",
"_	c #0B2127",
":	c #0B2228",
"<	c #257488",
"[	c #2A8499",
"}	c #2A8399",
"|	c #1C5968",
"1	c #1D5A6A",
"2	c #2A8298",
"3	c #298298",
"4	c #1B5462",
"5	c #0C262C",
"6	c #226A7C",
"7	c #22697B",
"................................",
"++++++++++++++++++++++++++++++++",
"++++++++++++++++++++++++++++++++",
"++++++++++++++++++++++++++++++++",
"++++++++++++++++++++++++++++++++",
"++++++++++++++++++++++++++++++++",
"++++++++++++++++++++++++++++++++",
"++++++++++++++++++++++++++++++++",
"++++++++++++@#$%%$&@++++++++++++",
"++++++++++*=-;;;;;;>,'++++++++++",
"+++++++++*);;;;;;;;;;)'+++++++++",
"+++++++++!;;;;;;;;;;;;~+++++++++",
"++++++++@-;;;;;;;;;;;;>{++++++++",
"++++++++#;;;;;]^^];;;;;/++++++++",
"++++++++(;;;;]_++:];;;;<++++++++",
"++++++++[;;;;!++++^;;;;}++++++++",
"++++++++};;;;|++++1;;;;2++++++++",
"++++++++(;;;;]:++:3;;;;<++++++++",
"++++++++&;;;;;]113;;;;;4++++++++",
"++++++++@>;;;;;;;;;;;;>5++++++++",
"+++++++++,;;;;;;;;;;;;#+++++++++",
"+++++++++'6;;;;;;;;;;7'+++++++++",
"++++++++++'~>;;;;;;>#'++++++++++",
"++++++++++++{/<[[<45++++++++++++",
"++++++++++++++++++++++++++++++++",
"++++++++++++++++++++++++++++++++",
"++++++++++++++++++++++++++++++++",
"++++++++++++++++++++++++++++++++",
"++++++++++++++++++++++++++++++++",
"++++++++++++++++++++++++++++++++",
"++++++++++++++++++++++++++++++++",
"++++++++++++++++++++++++++++++++"};
