<?xml version="1.0" encoding="UTF-8" standalone="no"?>
<svg
   xmlns:dc="http://purl.org/dc/elements/1.1/"
   xmlns:cc="http://creativecommons.org/ns#"
   xmlns:rdf="http://www.w3.org/1999/02/22-rdf-syntax-ns#"
   xmlns:svg="http://www.w3.org/2000/svg"
   xmlns="http://www.w3.org/2000/svg"
   xmlns:sodipodi="http://sodipodi.sourceforge.net/DTD/sodipodi-0.dtd"
   xmlns:inkscape="http://www.inkscape.org/namespaces/inkscape"
   id="svg4306"
   width="22"
   height="22"
   version="1.1"
   style="enable-background:new"
   sodipodi:docname="alldesktops.svg"
   inkscape:version="0.92.4 (5da689c313, 2019-01-14)">
  <metadata
     id="metadata31">
    <rdf:RDF>
      <cc:Work
         rdf:about="">
        <dc:format>image/svg+xml</dc:format>
        <dc:type
           rdf:resource="http://purl.org/dc/dcmitype/StillImage" />
        <dc:title></dc:title>
      </cc:Work>
    </rdf:RDF>
  </metadata>
  <defs
     id="defs29" />
  <sodipodi:namedview
     pagecolor="#0effff"
     bordercolor="#666666"
     borderopacity="1"
     objecttolerance="10"
     gridtolerance="10"
     guidetolerance="10"
     inkscape:pageopacity="0"
     inkscape:pageshadow="2"
     inkscape:window-width="1366"
     inkscape:window-height="708"
     id="namedview27"
     showgrid="false"
     inkscape:zoom="5.6818182"
     inkscape:cx="11"
     inkscape:cy="11"
     inkscape:window-x="0"
     inkscape:window-y="0"
     inkscape:window-maximized="1"
     inkscape:current-layer="svg4306" />
  <g
     id="active-center"
     inkscape:label="#g848">
    <circle
       inkscape:label=""
       id="15-7"
       cx="11"
       cy="11"
       r="11"
       style="opacity:0.00100002;fill:#ffffff;fill-opacity:1;fill-rule:nonzero;stroke:none;stroke-width:0;stroke-linecap:square;stroke-linejoin:round;stroke-miterlimit:4;stroke-dasharray:none;stroke-dashoffset:478.43673706;stroke-opacity:0.4" />
    <g
       id="layer12-3"
       style="display:inline;fill:#ffffff;enable-background:new"
       transform="matrix(0.6,0,0,0.6,-246.40003,39.802028)">
      <path
         d="m 429.00005,-53.00338 c -2.75925,0 -5,2.24074 -5,5 0,2.75925 2.24075,5 5,5 2.75925,0 5,-2.24075 5,-5 0,-2.75926 -2.24075,-5 -5,-5 z"
         id="path4646-0"
         style="fill:#ffffff;fill-opacity:1;stroke:none"
         inkscape:connector-curvature="0" />
    </g>
  </g>
  <g
     id="inactive-center"
     transform="translate(22)"
     inkscape:label="#g920">
    <circle
       inkscape:label=""
       id="15-7-75"
       cx="11"
       cy="11"
       r="11"
       style="opacity:0.00100002;fill:#ffffff;fill-opacity:1;fill-rule:nonzero;stroke:none;stroke-width:0;stroke-linecap:square;stroke-linejoin:round;stroke-miterlimit:4;stroke-dasharray:none;stroke-dashoffset:478.43673706;stroke-opacity:0.4" />
    <g
       id="layer12-3-3"
       style="display:inline;opacity:0.3;fill:#ffffff;enable-background:new"
       transform="matrix(0.6,0,0,0.6,-246.40003,39.802028)">
      <path
         d="m 429.00005,-53.00338 c -2.75925,0 -5,2.24074 -5,5 0,2.75925 2.24075,5 5,5 2.75925,0 5,-2.24075 5,-5 0,-2.75926 -2.24075,-5 -5,-5 z"
         id="path4646-0-5"
         style="fill:#ffffff;fill-opacity:1;stroke:none"
         inkscape:connector-curvature="0" />
    </g>
  </g>
  <g
     id="pressed-center"
     transform="translate(-44)"
     inkscape:label="#g912">
    <circle
       inkscape:label=""
       id="15-7-9"
       cx="11"
       cy="11"
       r="11"
       style="opacity:0.00100002;fill:#ffffff;fill-opacity:1;fill-rule:nonzero;stroke:none;stroke-width:0;stroke-linecap:square;stroke-linejoin:round;stroke-miterlimit:4;stroke-dasharray:none;stroke-dashoffset:478.43673706;stroke-opacity:0.4" />
    <g
       id="layer12-3-1"
       style="display:inline;fill:#ffffff;enable-background:new"
       transform="translate(-418.00005,59.00338)">
      <path
         d="m 429.00005,-53.00338 c -2.75925,0 -5,2.24074 -5,5 0,2.75925 2.24075,5 5,5 2.75925,0 5,-2.24075 5,-5 0,-2.75926 -2.24075,-5 -5,-5 z"
         id="path4646-0-2"
         style="fill:#ffffff;fill-opacity:1;stroke:none"
         inkscape:connector-curvature="0" />
    </g>
  </g>
  <g
     id="hover-center"
     transform="translate(-22)"
     inkscape:label="#g904">
    <circle
       inkscape:label=""
       id="15-7-0"
       cx="11"
       cy="11"
       r="11"
       style="opacity:0.2;fill:#ffffff;fill-opacity:1;fill-rule:nonzero;stroke:none;stroke-width:0;stroke-linecap:square;stroke-linejoin:round;stroke-miterlimit:4;stroke-dasharray:none;stroke-dashoffset:478.43673706;stroke-opacity:0.4" />
    <g
       id="layer12-3-9"
       style="display:inline;fill:#ffffff;enable-background:new"
       transform="matrix(0.6,0,0,0.6,-246.40003,39.802028)">
      <path
         d="m 429.00005,-53.00338 c -2.75925,0 -5,2.24074 -5,5 0,2.75925 2.24075,5 5,5 2.75925,0 5,-2.24075 5,-5 0,-2.75926 -2.24075,-5 -5,-5 z"
         id="path4646-0-3"
         style="fill:#ffffff;fill-opacity:1;stroke:none"
         inkscape:connector-curvature="0" />
    </g>
  </g>
  <g
     style="enable-background:new"
     id="deactivated-center"
     transform="translate(44)"
     inkscape:label="#g920-6">
    <circle
       inkscape:label=""
       id="15-7-75-0"
       cx="11"
       cy="11"
       r="11"
       style="opacity:0.00100002;fill:#ffffff;fill-opacity:1;fill-rule:nonzero;stroke:none;stroke-width:0;stroke-linecap:square;stroke-linejoin:round;stroke-miterlimit:4;stroke-dasharray:none;stroke-dashoffset:478.43673706;stroke-opacity:0.4" />
    <g
       id="layer12-3-3-6"
       style="display:inline;opacity:0.3;fill:#ffffff;enable-background:new"
       transform="matrix(0.6,0,0,0.6,-246.40003,39.802028)">
      <path
         d="m 429.00005,-53.00338 c -2.75925,0 -5,2.24074 -5,5 0,2.75925 2.24075,5 5,5 2.75925,0 5,-2.24075 5,-5 0,-2.75926 -2.24075,-5 -5,-5 z"
         id="path4646-0-5-2"
         style="fill:#ffffff;fill-opacity:1;stroke:none"
         inkscape:connector-curvature="0" />
    </g>
  </g>
</svg>
