<?xml version="1.0" encoding="UTF-8" standalone="no"?>
<svg
   xmlns:dc="http://purl.org/dc/elements/1.1/"
   xmlns:cc="http://creativecommons.org/ns#"
   xmlns:rdf="http://www.w3.org/1999/02/22-rdf-syntax-ns#"
   xmlns:svg="http://www.w3.org/2000/svg"
   xmlns="http://www.w3.org/2000/svg"
   xmlns:sodipodi="http://sodipodi.sourceforge.net/DTD/sodipodi-0.dtd"
   xmlns:inkscape="http://www.inkscape.org/namespaces/inkscape"
   id="svg4306"
   width="22"
   height="22"
   version="1.1"
   style="enable-background:new"
   sodipodi:docname="close.svg"
   inkscape:version="0.92.4 (5da689c313, 2019-01-14)">
  <metadata
     id="metadata31">
    <rdf:RDF>
      <cc:Work
         rdf:about="">
        <dc:format>image/svg+xml</dc:format>
        <dc:type
           rdf:resource="http://purl.org/dc/dcmitype/StillImage" />
        <dc:title></dc:title>
      </cc:Work>
    </rdf:RDF>
  </metadata>
  <defs
     id="defs29" />
  <sodipodi:namedview
     pagecolor="#0effff"
     bordercolor="#666666"
     borderopacity="1"
     objecttolerance="10"
     gridtolerance="10"
     guidetolerance="10"
     inkscape:pageopacity="0"
     inkscape:pageshadow="2"
     inkscape:window-width="1366"
     inkscape:window-height="708"
     id="namedview27"
     showgrid="false"
     inkscape:zoom="4.0176522"
     inkscape:cx="11"
     inkscape:cy="11"
     inkscape:window-x="0"
     inkscape:window-y="0"
     inkscape:window-maximized="1"
     inkscape:current-layer="svg4306" />
  <g
     id="active-center">
    <circle
       inkscape:label=""
       id="15-7"
       cx="11"
       cy="11"
       r="11"
       style="opacity:0.00100002;fill:#ffffff;fill-opacity:1;fill-rule:nonzero;stroke:none;stroke-width:0;stroke-linecap:square;stroke-linejoin:round;stroke-miterlimit:4;stroke-dasharray:none;stroke-dashoffset:478.43673706;stroke-opacity:0.4" />
    <g
       id="layer12"
       style="display:inline;fill:#ffffff;enable-background:new"
       transform="translate(-498.00296,59.00337)">
      <path
         d="m 504.99999,-52.00337 v 1 c 0,0.27614 0.10028,0.53778 0.28125,0.71875 l 2.28125,2.28125 -2.28125,2.28125 c -0.18097,0.18097 -0.28125,0.44261 -0.28125,0.71875 v 1 h 1 c 0.27614,0 0.53778,-0.10028 0.71875,-0.28125 l 2.28125,-2.28125 2.28125,2.28125 c 0.18096,0.18097 0.44261,0.28125 0.71875,0.28125 h 1 v -1 c 0,-0.27614 -0.10029,-0.53778 -0.28125,-0.71875 l -2.28125,-2.28125 2.28125,-2.28125 c 0.18096,-0.18097 0.3178,-0.44504 0.28125,-0.71875 v -1 h -1 c -0.27614,0 -0.53779,0.10028 -0.71875,0.28125 l -2.28125,2.28125 -2.28125,-2.28125 c -0.18097,-0.18097 -0.44261,-0.28125 -0.71875,-0.28125 z"
         id="path5757"
         style="color:#000000;display:inline;overflow:visible;visibility:visible;fill:#ffffff;fill-opacity:1;fill-rule:nonzero;stroke:none;stroke-width:2;marker:none;enable-background:new"
         inkscape:connector-curvature="0" />
    </g>
  </g>
  <g
     id="inactive-center"
     transform="translate(22)">
    <circle
       inkscape:label=""
       id="15-7-7"
       cx="11"
       cy="11"
       r="11"
       style="opacity:0.00100002;fill:#ffffff;fill-opacity:1;fill-rule:nonzero;stroke:none;stroke-width:0;stroke-linecap:square;stroke-linejoin:round;stroke-miterlimit:4;stroke-dasharray:none;stroke-dashoffset:478.43673706;stroke-opacity:0.4" />
    <g
       id="layer12-0"
       style="display:inline;opacity:0.3;fill:#ffffff;enable-background:new"
       transform="translate(-498.00296,59.00337)">
      <path
         d="m 504.99999,-52.00337 v 1 c 0,0.27614 0.10028,0.53778 0.28125,0.71875 l 2.28125,2.28125 -2.28125,2.28125 c -0.18097,0.18097 -0.28125,0.44261 -0.28125,0.71875 v 1 h 1 c 0.27614,0 0.53778,-0.10028 0.71875,-0.28125 l 2.28125,-2.28125 2.28125,2.28125 c 0.18096,0.18097 0.44261,0.28125 0.71875,0.28125 h 1 v -1 c 0,-0.27614 -0.10029,-0.53778 -0.28125,-0.71875 l -2.28125,-2.28125 2.28125,-2.28125 c 0.18096,-0.18097 0.3178,-0.44504 0.28125,-0.71875 v -1 h -1 c -0.27614,0 -0.53779,0.10028 -0.71875,0.28125 l -2.28125,2.28125 -2.28125,-2.28125 c -0.18097,-0.18097 -0.44261,-0.28125 -0.71875,-0.28125 z"
         id="path5757-9"
         style="color:#000000;display:inline;overflow:visible;visibility:visible;fill:#ffffff;fill-opacity:1;fill-rule:nonzero;stroke:none;stroke-width:2;marker:none;enable-background:new"
         inkscape:connector-curvature="0" />
    </g>
  </g>
  <g
     id="pressed-center"
     transform="translate(-44)">
    <circle
       inkscape:label=""
       id="15-7-6"
       cx="11"
       cy="11"
       r="11"
       style="opacity:0.3;fill:#ffffff;fill-opacity:1;fill-rule:nonzero;stroke:none;stroke-width:0;stroke-linecap:square;stroke-linejoin:round;stroke-miterlimit:4;stroke-dasharray:none;stroke-dashoffset:478.43673706;stroke-opacity:0.4" />
    <g
       id="layer12-06"
       style="display:inline;fill:#ffffff;enable-background:new"
       transform="translate(-498.00296,59.00337)">
      <path
         d="m 504.99999,-52.00337 v 1 c 0,0.27614 0.10028,0.53778 0.28125,0.71875 l 2.28125,2.28125 -2.28125,2.28125 c -0.18097,0.18097 -0.28125,0.44261 -0.28125,0.71875 v 1 h 1 c 0.27614,0 0.53778,-0.10028 0.71875,-0.28125 l 2.28125,-2.28125 2.28125,2.28125 c 0.18096,0.18097 0.44261,0.28125 0.71875,0.28125 h 1 v -1 c 0,-0.27614 -0.10029,-0.53778 -0.28125,-0.71875 l -2.28125,-2.28125 2.28125,-2.28125 c 0.18096,-0.18097 0.3178,-0.44504 0.28125,-0.71875 v -1 h -1 c -0.27614,0 -0.53779,0.10028 -0.71875,0.28125 l -2.28125,2.28125 -2.28125,-2.28125 c -0.18097,-0.18097 -0.44261,-0.28125 -0.71875,-0.28125 z"
         id="path5757-2"
         style="color:#000000;display:inline;overflow:visible;visibility:visible;fill:#ffffff;fill-opacity:1;fill-rule:nonzero;stroke:none;stroke-width:2;marker:none;enable-background:new"
         inkscape:connector-curvature="0" />
    </g>
  </g>
  <g
     id="hover-center"
     transform="translate(-22)">
    <circle
       inkscape:label=""
       id="15-7-8"
       cx="11"
       cy="11"
       r="11"
       style="opacity:0.2;fill:#ffffff;fill-opacity:1;fill-rule:nonzero;stroke:none;stroke-width:0;stroke-linecap:square;stroke-linejoin:round;stroke-miterlimit:4;stroke-dasharray:none;stroke-dashoffset:478.43673706;stroke-opacity:0.4" />
    <g
       id="layer12-7"
       style="display:inline;fill:#ffffff;enable-background:new"
       transform="translate(-498.00296,59.00337)">
      <path
         d="m 504.99999,-52.00337 v 1 c 0,0.27614 0.10028,0.53778 0.28125,0.71875 l 2.28125,2.28125 -2.28125,2.28125 c -0.18097,0.18097 -0.28125,0.44261 -0.28125,0.71875 v 1 h 1 c 0.27614,0 0.53778,-0.10028 0.71875,-0.28125 l 2.28125,-2.28125 2.28125,2.28125 c 0.18096,0.18097 0.44261,0.28125 0.71875,0.28125 h 1 v -1 c 0,-0.27614 -0.10029,-0.53778 -0.28125,-0.71875 l -2.28125,-2.28125 2.28125,-2.28125 c 0.18096,-0.18097 0.3178,-0.44504 0.28125,-0.71875 v -1 h -1 c -0.27614,0 -0.53779,0.10028 -0.71875,0.28125 l -2.28125,2.28125 -2.28125,-2.28125 c -0.18097,-0.18097 -0.44261,-0.28125 -0.71875,-0.28125 z"
         id="path5757-92"
         style="color:#000000;display:inline;overflow:visible;visibility:visible;fill:#ffffff;fill-opacity:1;fill-rule:nonzero;stroke:none;stroke-width:2;marker:none;enable-background:new"
         inkscape:connector-curvature="0" />
    </g>
  </g>
  <g
     style="enable-background:new"
     id="deactivated-center"
     transform="translate(44)"
     inkscape:label="#g943-0">
    <circle
       inkscape:label=""
       id="15-7-7-2"
       cx="11"
       cy="11"
       r="11"
       style="opacity:0.00100002;fill:#ffffff;fill-opacity:1;fill-rule:nonzero;stroke:none;stroke-width:0;stroke-linecap:square;stroke-linejoin:round;stroke-miterlimit:4;stroke-dasharray:none;stroke-dashoffset:478.43673706;stroke-opacity:0.4" />
    <g
       id="layer12-0-3"
       style="display:inline;opacity:0.3;fill:#ffffff;enable-background:new"
       transform="translate(-498.00296,59.00337)">
      <path
         d="m 504.99999,-52.00337 v 1 c 0,0.27614 0.10028,0.53778 0.28125,0.71875 l 2.28125,2.28125 -2.28125,2.28125 c -0.18097,0.18097 -0.28125,0.44261 -0.28125,0.71875 v 1 h 1 c 0.27614,0 0.53778,-0.10028 0.71875,-0.28125 l 2.28125,-2.28125 2.28125,2.28125 c 0.18096,0.18097 0.44261,0.28125 0.71875,0.28125 h 1 v -1 c 0,-0.27614 -0.10029,-0.53778 -0.28125,-0.71875 l -2.28125,-2.28125 2.28125,-2.28125 c 0.18096,-0.18097 0.3178,-0.44504 0.28125,-0.71875 v -1 h -1 c -0.27614,0 -0.53779,0.10028 -0.71875,0.28125 l -2.28125,2.28125 -2.28125,-2.28125 c -0.18097,-0.18097 -0.44261,-0.28125 -0.71875,-0.28125 z"
         id="path5757-9-7"
         style="color:#000000;display:inline;overflow:visible;visibility:visible;fill:#ffffff;fill-opacity:1;fill-rule:nonzero;stroke:none;stroke-width:2;marker:none;enable-background:new"
         inkscape:connector-curvature="0" />
    </g>
  </g>
</svg>
