<?xml version="1.0" encoding="UTF-8" standalone="no"?>
<svg
   xmlns:dc="http://purl.org/dc/elements/1.1/"
   xmlns:cc="http://creativecommons.org/ns#"
   xmlns:rdf="http://www.w3.org/1999/02/22-rdf-syntax-ns#"
   xmlns:svg="http://www.w3.org/2000/svg"
   xmlns="http://www.w3.org/2000/svg"
   xmlns:sodipodi="http://sodipodi.sourceforge.net/DTD/sodipodi-0.dtd"
   xmlns:inkscape="http://www.inkscape.org/namespaces/inkscape"
   id="svg4306"
   width="22"
   height="22"
   version="1.1"
   style="enable-background:new"
   sodipodi:docname="restore.svg"
   inkscape:version="0.92.4 (5da689c313, 2019-01-14)">
  <metadata
     id="metadata31">
    <rdf:RDF>
      <cc:Work
         rdf:about="">
        <dc:format>image/svg+xml</dc:format>
        <dc:type
           rdf:resource="http://purl.org/dc/dcmitype/StillImage" />
        <dc:title></dc:title>
      </cc:Work>
    </rdf:RDF>
  </metadata>
  <defs
     id="defs29" />
  <sodipodi:namedview
     pagecolor="#0effff"
     bordercolor="#666666"
     borderopacity="1"
     objecttolerance="10"
     gridtolerance="10"
     guidetolerance="10"
     inkscape:pageopacity="0"
     inkscape:pageshadow="2"
     inkscape:window-width="1366"
     inkscape:window-height="708"
     id="namedview27"
     showgrid="false"
     inkscape:zoom="4.0176522"
     inkscape:cx="11"
     inkscape:cy="11"
     inkscape:window-x="0"
     inkscape:window-y="0"
     inkscape:window-maximized="1"
     inkscape:current-layer="svg4306" />
  <g
     id="active-center"
     inkscape:label="#g848">
    <circle
       inkscape:label=""
       id="15-7"
       cx="11"
       cy="11"
       r="11"
       style="opacity:0.00100002;fill:#ffffff;fill-opacity:1;fill-rule:nonzero;stroke:none;stroke-width:0;stroke-linecap:square;stroke-linejoin:round;stroke-miterlimit:4;stroke-dasharray:none;stroke-dashoffset:478.43673706;stroke-opacity:0.4" />
    <g
       id="layer12-3"
       style="display:inline;fill:#ffffff;enable-background:new"
       transform="matrix(1.2,0,0,1.2,-671.80024,68.60408)">
      <path
         d="m 574.0002,-48.0034 -1.78125,-1.7813 1.5,-1.5 -1.4375,-1.4375 -1.5,1.5 -1.78125,-1.7812 v 5 z m -5,5 v -5 h -5 l 1.78125,1.7812 -1.5,1.5 1.4375,1.4375 1.5,-1.5 z"
         id="path4564"
         style="display:inline;fill:#ffffff;fill-opacity:1;stroke:none;enable-background:new"
         inkscape:connector-curvature="0" />
    </g>
  </g>
  <g
     id="hover-center"
     inkscape:label="#g870"
     transform="translate(-22)">
    <circle
       inkscape:label=""
       id="15-7-8"
       cx="11"
       cy="11"
       r="11"
       style="opacity:0.2;fill:#ffffff;fill-opacity:1;fill-rule:nonzero;stroke:none;stroke-width:0;stroke-linecap:square;stroke-linejoin:round;stroke-miterlimit:4;stroke-dasharray:none;stroke-dashoffset:478.43673706;stroke-opacity:0.4" />
    <g
       id="layer12-3-3"
       style="display:inline;fill:#ffffff;enable-background:new"
       transform="matrix(1.2,0,0,1.2,-671.80024,68.60408)">
      <path
         d="m 574.0002,-48.0034 -1.78125,-1.7813 1.5,-1.5 -1.4375,-1.4375 -1.5,1.5 -1.78125,-1.7812 v 5 z m -5,5 v -5 h -5 l 1.78125,1.7812 -1.5,1.5 1.4375,1.4375 1.5,-1.5 z"
         id="path4564-6"
         style="display:inline;fill:#ffffff;fill-opacity:1;stroke:none;enable-background:new"
         inkscape:connector-curvature="0" />
    </g>
  </g>
  <g
     id="inactive-center"
     inkscape:label="#g886"
     transform="translate(22)">
    <circle
       inkscape:label=""
       id="15-7-7"
       cx="11"
       cy="11"
       r="11"
       style="opacity:0.00100002;fill:#ffffff;fill-opacity:1;fill-rule:nonzero;stroke:none;stroke-width:0;stroke-linecap:square;stroke-linejoin:round;stroke-miterlimit:4;stroke-dasharray:none;stroke-dashoffset:478.43673706;stroke-opacity:0.4" />
    <g
       id="layer12-3-7"
       style="display:inline;opacity:0.3;fill:#ffffff;enable-background:new"
       transform="matrix(1.2,0,0,1.2,-671.80024,68.60408)">
      <path
         d="m 574.0002,-48.0034 -1.78125,-1.7813 1.5,-1.5 -1.4375,-1.4375 -1.5,1.5 -1.78125,-1.7812 v 5 z m -5,5 v -5 h -5 l 1.78125,1.7812 -1.5,1.5 1.4375,1.4375 1.5,-1.5 z"
         id="path4564-5"
         style="display:inline;fill:#ffffff;fill-opacity:1;stroke:none;enable-background:new"
         inkscape:connector-curvature="0" />
    </g>
  </g>
  <g
     style="enable-background:new"
     id="deactivated-center"
     inkscape:label="#g886"
     transform="translate(44)">
    <circle
       inkscape:label=""
       id="15-7-7-5"
       cx="11"
       cy="11"
       r="11"
       style="opacity:0.00100002;fill:#ffffff;fill-opacity:1;fill-rule:nonzero;stroke:none;stroke-width:0;stroke-linecap:square;stroke-linejoin:round;stroke-miterlimit:4;stroke-dasharray:none;stroke-dashoffset:478.43673706;stroke-opacity:0.4" />
    <g
       id="layer12-3-7-6"
       style="display:inline;opacity:0.3;fill:#ffffff;enable-background:new"
       transform="matrix(1.2,0,0,1.2,-671.80024,68.60408)">
      <path
         d="m 574.0002,-48.0034 -1.78125,-1.7813 1.5,-1.5 -1.4375,-1.4375 -1.5,1.5 -1.78125,-1.7812 v 5 z m -5,5 v -5 h -5 l 1.78125,1.7812 -1.5,1.5 1.4375,1.4375 1.5,-1.5 z"
         id="path4564-5-2"
         style="display:inline;fill:#ffffff;fill-opacity:1;stroke:none;enable-background:new"
         inkscape:connector-curvature="0" />
    </g>
  </g>
  <g
     id="pressed-center"
     inkscape:label="#g926"
     transform="translate(-44)">
    <circle
       inkscape:label=""
       id="15-7-6"
       cx="11"
       cy="11"
       r="11"
       style="opacity:0.3;fill:#ffffff;fill-opacity:1;fill-rule:nonzero;stroke:none;stroke-width:0;stroke-linecap:square;stroke-linejoin:round;stroke-miterlimit:4;stroke-dasharray:none;stroke-dashoffset:478.43673706;stroke-opacity:0.4" />
    <g
       id="layer12-3-9"
       style="display:inline;fill:#ffffff;enable-background:new"
       transform="matrix(1.2,0,0,1.2,-671.80024,68.60408)">
      <path
         d="m 574.0002,-48.0034 -1.78125,-1.7813 1.5,-1.5 -1.4375,-1.4375 -1.5,1.5 -1.78125,-1.7812 v 5 z m -5,5 v -5 h -5 l 1.78125,1.7812 -1.5,1.5 1.4375,1.4375 1.5,-1.5 z"
         id="path4564-1"
         style="display:inline;fill:#ffffff;fill-opacity:1;stroke:none;enable-background:new"
         inkscape:connector-curvature="0" />
    </g>
  </g>
</svg>
