/* XPM */
static char * close_inactive_xpm[] = {
"32 32 23 1",
" 	c None",
".	c #2C2119",
"+	c #160900",
"@	c #240E00",
"#	c #421B00",
"$	c #582300",
"%	c #622600",
"&	c #431B00",
"*	c #230E00",
"=	c #180A00",
"-	c #441C00",
";	c #642800",
">	c #652800",
",	c #441B00",
"'	c #170A00",
")	c #512000",
"!	c #451C00",
"~	c #421A00",
"{	c #582200",
"]	c #612600",
"^	c #602600",
"/	c #230F00",
"(	c #501F00",
"................................",
"++++++++++++++++++++++++++++++++",
"++++++++++++++++++++++++++++++++",
"++++++++++++++++++++++++++++++++",
"++++++++++++++++++++++++++++++++",
"++++++++++++++++++++++++++++++++",
"++++++++++++++++++++++++++++++++",
"++++++++++++++++++++++++++++++++",
"++++++++++++@#$%%$&*++++++++++++",
"++++++++++=-;>>>>>>;,'++++++++++",
"+++++++++=)>>>>>>>>>>)'+++++++++",
"+++++++++!>>>>>>>>>>>>&+++++++++",
"++++++++@;>>>>>>>>>>>>;*++++++++",
"++++++++#>>>>>>>>>>>>>>~++++++++",
"++++++++{>>>>>>>>>>>>>>$++++++++",
"++++++++]>>>>>>>>>>>>>>]++++++++",
"++++++++]>>>>>>>>>>>>>>^++++++++",
"++++++++{>>>>>>>>>>>>>>$++++++++",
"++++++++&>>>>>>>>>>>>>>~++++++++",
"++++++++*;>>>>>>>>>>>>;/++++++++",
"+++++++++,>>>>>>>>>>>>#+++++++++",
"+++++++++'(>>>>>>>>>>(=+++++++++",
"++++++++++'&;>>>>>>;#=++++++++++",
"++++++++++++*~$]]$~/++++++++++++",
"++++++++++++++++++++++++++++++++",
"++++++++++++++++++++++++++++++++",
"++++++++++++++++++++++++++++++++",
"++++++++++++++++++++++++++++++++",
"++++++++++++++++++++++++++++++++",
"++++++++++++++++++++++++++++++++",
"++++++++++++++++++++++++++++++++",
"++++++++++++++++++++++++++++++++"};
