/* XPM */
static char * close_active_xpm[] = {
"32 32 27 1",
" 	c None",
".	c #2C2119",
"+	c #160900",
"@	c #2B1100",
"#	c #592400",
"$	c #783100",
"%	c #873600",
"&	c #2A1100",
"*	c #190B00",
"=	c #5B2500",
"-	c #8B3800",
";	c #8C3800",
">	c #8A3700",
",	c #5A2400",
"'	c #180A00",
")	c #6E2C00",
"!	c #5C2500",
"~	c #2A1000",
"{	c #582300",
"]	c #793000",
"^	c #783000",
"/	c #863500",
"(	c #853500",
"_	c #572300",
":	c #291100",
"<	c #6D2B00",
"[	c #190A00",
"................................",
"++++++++++++++++++++++++++++++++",
"++++++++++++++++++++++++++++++++",
"++++++++++++++++++++++++++++++++",
"++++++++++++++++++++++++++++++++",
"++++++++++++++++++++++++++++++++",
"++++++++++++++++++++++++++++++++",
"++++++++++++++++++++++++++++++++",
"++++++++++++@#$%%$#&++++++++++++",
"++++++++++*=-;;;;;;>,'++++++++++",
"+++++++++*);;;;;;;;;;)'+++++++++",
"+++++++++!;;;;;;;;;;;;,+++++++++",
"++++++++@-;;;;;;;;;;;;>~++++++++",
"++++++++#;;;;;;;;;;;;;;{++++++++",
"++++++++];;;;;;;;;;;;;;^++++++++",
"++++++++/;;;;;;;;;;;;;;/++++++++",
"++++++++/;;;;;;;;;;;;;;(++++++++",
"++++++++];;;;;;;;;;;;;;^++++++++",
"++++++++#;;;;;;;;;;;;;;_++++++++",
"++++++++&>;;;;;;;;;;;;>:++++++++",
"+++++++++,;;;;;;;;;;;;#+++++++++",
"+++++++++'<;;;;;;;;;;<[+++++++++",
"++++++++++',>;;;;;;>#[++++++++++",
"++++++++++++~{^//^_:++++++++++++",
"++++++++++++++++++++++++++++++++",
"++++++++++++++++++++++++++++++++",
"++++++++++++++++++++++++++++++++",
"++++++++++++++++++++++++++++++++",
"++++++++++++++++++++++++++++++++",
"++++++++++++++++++++++++++++++++",
"++++++++++++++++++++++++++++++++",
"++++++++++++++++++++++++++++++++"};
