/* XPM */
static char * maximize_prelight_xpm[] = {
"32 32 31 1",
" 	c None",
".	c #2C2119",
"+	c #160900",
"@	c #3F1D07",
"#	c #9A4C18",
"$	c #D86C23",
"%	c #F57A28",
"&	c #3E1D07",
"*	c #1C0C01",
"=	c #9F4F19",
"-	c #FD7E2A",
";	c #FF7F2A",
">	c #FC7E2A",
",	c #9D4E18",
"'	c #1B0C01",
")	c #C4611F",
"!	c #C3601F",
"~	c #A04F19",
"{	c #9C4D18",
"]	c #3D1C07",
"^	c #984B17",
"/	c #D96B23",
"(	c #D76B23",
"_	c #F47928",
":	c #F37928",
"<	c #F27828",
"[	c #974A17",
"}	c #3C1D07",
"|	c #C2601F",
"1	c #C15F1F",
"2	c #1B0B01",
"................................",
"++++++++++++++++++++++++++++++++",
"++++++++++++++++++++++++++++++++",
"++++++++++++++++++++++++++++++++",
"++++++++++++++++++++++++++++++++",
"++++++++++++++++++++++++++++++++",
"++++++++++++++++++++++++++++++++",
"++++++++++++++++++++++++++++++++",
"++++++++++++@#$%%$#&++++++++++++",
"++++++++++*=-;;;;;;>,'++++++++++",
"+++++++++*);;;;;;;;;;!'+++++++++",
"+++++++++~;;;;;;;;;;;;{+++++++++",
"++++++++@-;;++++++++;;>]++++++++",
"++++++++#;;;+;;;;;;+;;;^++++++++",
"++++++++/;;;+;;;;;;+;;;(++++++++",
"++++++++_;;;+;;;;;;+;;;:++++++++",
"++++++++:;;;+;;;;;;+;;;<++++++++",
"++++++++/;;;+;;;;;;+;;;(++++++++",
"++++++++#;;;+;;;;;;+;;;[++++++++",
"++++++++&>;;++++++++;;>}++++++++",
"+++++++++,;;;;;;;;;;;;#+++++++++",
"+++++++++'|;;;;;;;;;;12+++++++++",
"++++++++++'{>;;;;;;>#2++++++++++",
"++++++++++++]^(__([}++++++++++++",
"++++++++++++++++++++++++++++++++",
"++++++++++++++++++++++++++++++++",
"++++++++++++++++++++++++++++++++",
"++++++++++++++++++++++++++++++++",
"++++++++++++++++++++++++++++++++",
"++++++++++++++++++++++++++++++++",
"++++++++++++++++++++++++++++++++",
"++++++++++++++++++++++++++++++++"};
