/* XPM */
static char * shade_prelight_xpm[] = {
"32 32 45 1",
" 	c None",
".	c #2C2119",
"+	c #160900",
"@	c #3F1D07",
"#	c #9A4C18",
"$	c #D86C23",
"%	c #F57A28",
"&	c #3E1D07",
"*	c #1C0C01",
"=	c #9F4F19",
"-	c #FD7E2A",
";	c #FF7F2A",
">	c #FC7E2A",
",	c #9D4E18",
"'	c #1B0C01",
")	c #C4611F",
"!	c #C3601F",
"~	c #A04F19",
"{	c #F77B29",
"]	c #9C4D18",
"^	c #F47928",
"/	c #914716",
"(	c #3D1C07",
"_	c #B85B1D",
":	c #411E08",
"<	c #904716",
"[	c #984B17",
"}	c #D96B23",
"|	c #EF7727",
"1	c #63300E",
"2	c #6C350F",
"3	c #ED7627",
"4	c #D76B23",
"5	c #CE6621",
"6	c #442008",
"7	c #BA5D1E",
"8	c #F37928",
"9	c #D66B23",
"0	c #EC7627",
"a	c #F27828",
"b	c #974A17",
"c	c #3C1D07",
"d	c #C2601F",
"e	c #C15F1F",
"f	c #1B0B01",
"................................",
"++++++++++++++++++++++++++++++++",
"++++++++++++++++++++++++++++++++",
"++++++++++++++++++++++++++++++++",
"++++++++++++++++++++++++++++++++",
"++++++++++++++++++++++++++++++++",
"++++++++++++++++++++++++++++++++",
"++++++++++++++++++++++++++++++++",
"++++++++++++@#$%%$#&++++++++++++",
"++++++++++*=-;;;;;;>,'++++++++++",
"+++++++++*);;;;;;;;;;!'+++++++++",
"+++++++++~;;;;;{{;;;;;]+++++++++",
"++++++++@-;;;^/&&/^;;;>(++++++++",
"++++++++#;;;_:<^^<:_;;;[++++++++",
"++++++++};|123;;;;321|;4++++++++",
"++++++++^567;;;;;;;;7658++++++++",
"++++++++890;;;;;;;;;;09a++++++++",
"++++++++};;;;;;;;;;;;;;4++++++++",
"++++++++#;;;;;;;;;;;;;;b++++++++",
"++++++++&>;;;;;;;;;;;;>c++++++++",
"+++++++++,;;;;;;;;;;;;#+++++++++",
"+++++++++'d;;;;;;;;;;ef+++++++++",
"++++++++++']>;;;;;;>#f++++++++++",
"++++++++++++([4^^4bc++++++++++++",
"++++++++++++++++++++++++++++++++",
"++++++++++++++++++++++++++++++++",
"++++++++++++++++++++++++++++++++",
"++++++++++++++++++++++++++++++++",
"++++++++++++++++++++++++++++++++",
"++++++++++++++++++++++++++++++++",
"++++++++++++++++++++++++++++++++",
"++++++++++++++++++++++++++++++++"};
