/* XPM */
static char * shade_toggled_prelight_xpm[] = {
"32 32 45 1",
" 	c None",
".	c #2C2119",
"+	c #160900",
"@	c #3F1D07",
"#	c #9A4C18",
"$	c #D86C23",
"%	c #F57A28",
"&	c #3E1D07",
"*	c #1C0C01",
"=	c #9F4F19",
"-	c #FD7E2A",
";	c #FF7F2A",
">	c #FC7E2A",
",	c #9D4E18",
"'	c #1B0C01",
")	c #C4611F",
"!	c #C3601F",
"~	c #A04F19",
"{	c #9C4D18",
"]	c #3D1C07",
"^	c #984B17",
"/	c #D96B23",
"(	c #D76B23",
"_	c #F47928",
":	c #D66B23",
"<	c #EC7627",
"[	c #F37928",
"}	c #CE6621",
"|	c #442008",
"1	c #BA5D1E",
"2	c #F27828",
"3	c #EF7727",
"4	c #63300E",
"5	c #6C350F",
"6	c #ED7627",
"7	c #B85B1D",
"8	c #411E08",
"9	c #904716",
"0	c #974A17",
"a	c #914716",
"b	c #3C1D07",
"c	c #F77B29",
"d	c #C2601F",
"e	c #C15F1F",
"f	c #1B0B01",
"................................",
"++++++++++++++++++++++++++++++++",
"++++++++++++++++++++++++++++++++",
"++++++++++++++++++++++++++++++++",
"++++++++++++++++++++++++++++++++",
"++++++++++++++++++++++++++++++++",
"++++++++++++++++++++++++++++++++",
"++++++++++++++++++++++++++++++++",
"++++++++++++@#$%%$#&++++++++++++",
"++++++++++*=-;;;;;;>,'++++++++++",
"+++++++++*);;;;;;;;;;!'+++++++++",
"+++++++++~;;;;;;;;;;;;{+++++++++",
"++++++++@-;;;;;;;;;;;;>]++++++++",
"++++++++#;;;;;;;;;;;;;;^++++++++",
"++++++++/;;;;;;;;;;;;;;(++++++++",
"++++++++_:<;;;;;;;;;;<:[++++++++",
"++++++++[}|1;;;;;;;;1|}2++++++++",
"++++++++/;3456;;;;6543;(++++++++",
"++++++++#;;;789__987;;;0++++++++",
"++++++++&>;;;_a&&a_;;;>b++++++++",
"+++++++++,;;;;;cc;;;;;#+++++++++",
"+++++++++'d;;;;;;;;;;ef+++++++++",
"++++++++++'{>;;;;;;>#f++++++++++",
"++++++++++++]^(__(0b++++++++++++",
"++++++++++++++++++++++++++++++++",
"++++++++++++++++++++++++++++++++",
"++++++++++++++++++++++++++++++++",
"++++++++++++++++++++++++++++++++",
"++++++++++++++++++++++++++++++++",
"++++++++++++++++++++++++++++++++",
"++++++++++++++++++++++++++++++++",
"++++++++++++++++++++++++++++++++"};
