/* XPM */
static char * title_1_active_xpm[] = {
"2 32 3 1",
" 	c None",
".	c #2D2119",
"+	c #160900",
"..",
"++",
"++",
"++",
"++",
"++",
"++",
"++",
"++",
"++",
"++",
"++",
"++",
"++",
"++",
"++",
"++",
"++",
"++",
"++",
"++",
"++",
"++",
"++",
"++",
"++",
"++",
"++",
"++",
"++",
"++",
"++"};
