/* XPM */
static char * close_prelight_xpm[] = {
"32 32 36 1",
" 	c None",
".	c #1B3632",
"+	c #03201C",
"@	c #12443E",
"#	c #359589",
"$	c #4DCBBC",
"%	c #57E5D4",
"&	c #349488",
"*	c #12433D",
"=	c #052621",
"-	c #37998D",
";	c #5AECDA",
">	c #5BEEDC",
",	c #5AEBD9",
"'	c #36978C",
")	c #052520",
"!	c #45B9AB",
"~	c #44B8AA",
"{	c #379A8D",
"]	c #35978B",
"^	c #0E3A34",
"/	c #45BAAC",
"(	c #11433C",
"_	c #47BEAF",
":	c #0B322D",
"<	c #349387",
"[	c #4CCCBD",
"}	c #4CCBBB",
"|	c #57E5D3",
"1	c #56E4D2",
"2	c #56E3D2",
"3	c #339287",
"4	c #12423B",
"5	c #44B7A9",
"6	c #44B8A8",
"7	c #05241F",
"................................",
"++++++++++++++++++++++++++++++++",
"++++++++++++++++++++++++++++++++",
"++++++++++++++++++++++++++++++++",
"++++++++++++++++++++++++++++++++",
"++++++++++++++++++++++++++++++++",
"++++++++++++++++++++++++++++++++",
"++++++++++++++++++++++++++++++++",
"++++++++++++@#$%%$&*++++++++++++",
"++++++++++=-;>>>>>>,')++++++++++",
"+++++++++=!>>>>>>>>>>~)+++++++++",
"+++++++++{>>%>>>>>>%>>]+++++++++",
"++++++++@;>%^/>>>>/^%>,(++++++++",
"++++++++#>>>_:~>>_:~>>><++++++++",
"++++++++[>>>>_:~_:~>>>>}++++++++",
"++++++++|>>>>>/::/>>>>>1++++++++",
"++++++++1>>>>>/::/>>>>>2++++++++",
"++++++++[>>>>_:~_:~>>>>}++++++++",
"++++++++&>>>_:~>>_:~>>>3++++++++",
"++++++++*,>%^/>>>>/^%>,4++++++++",
"+++++++++'>>%>>>>>>%>>#+++++++++",
"+++++++++)5>>>>>>>>>>67+++++++++",
"++++++++++)],>>>>>>,#7++++++++++",
"++++++++++++(<}||}34++++++++++++",
"++++++++++++++++++++++++++++++++",
"++++++++++++++++++++++++++++++++",
"++++++++++++++++++++++++++++++++",
"++++++++++++++++++++++++++++++++",
"++++++++++++++++++++++++++++++++",
"++++++++++++++++++++++++++++++++",
"++++++++++++++++++++++++++++++++",
"++++++++++++++++++++++++++++++++"};
