/* XPM */
static char * close_active_xpm[] = {
"32 32 25 1",
" 	c None",
".	c #1B3632",
"+	c #03201C",
"@	c #042F2A",
"#	c #085249",
"$	c #0B695E",
"%	c #0B7467",
"&	c #085248",
"*	c #042F29",
"=	c #03221E",
"-	c #08544B",
";	c #0C776A",
">	c #0C786B",
",	c #08534A",
"'	c #0A6157",
")	c #0A6156",
"!	c #08544A",
"~	c #085148",
"{	c #0A695E",
"]	c #0B7367",
"^	c #085048",
"/	c #052F29",
"(	c #0A6056",
"_	c #0A6155",
":	c #03211D",
"................................",
"++++++++++++++++++++++++++++++++",
"++++++++++++++++++++++++++++++++",
"++++++++++++++++++++++++++++++++",
"++++++++++++++++++++++++++++++++",
"++++++++++++++++++++++++++++++++",
"++++++++++++++++++++++++++++++++",
"++++++++++++++++++++++++++++++++",
"++++++++++++@#$%%$&*++++++++++++",
"++++++++++=-;>>>>>>;,=++++++++++",
"+++++++++='>>>>>>>>>>)=+++++++++",
"+++++++++!>>>>>>>>>>>>,+++++++++",
"++++++++@;>>>>>>>>>>>>;*++++++++",
"++++++++#>>>>>>>>>>>>>>~++++++++",
"++++++++{>>>>>>>>>>>>>>$++++++++",
"++++++++%>>>>>>>>>>>>>>%++++++++",
"++++++++%>>>>>>>>>>>>>>]++++++++",
"++++++++{>>>>>>>>>>>>>>$++++++++",
"++++++++&>>>>>>>>>>>>>>^++++++++",
"++++++++*;>>>>>>>>>>>>;/++++++++",
"+++++++++,>>>>>>>>>>>>#+++++++++",
"+++++++++=(>>>>>>>>>>_:+++++++++",
"++++++++++=,;>>>>>>;#:++++++++++",
"++++++++++++*~$%%$^/++++++++++++",
"++++++++++++++++++++++++++++++++",
"++++++++++++++++++++++++++++++++",
"++++++++++++++++++++++++++++++++",
"++++++++++++++++++++++++++++++++",
"++++++++++++++++++++++++++++++++",
"++++++++++++++++++++++++++++++++",
"++++++++++++++++++++++++++++++++",
"++++++++++++++++++++++++++++++++"};
