/* XPM */
static char * shade_prelight_xpm[] = {
"32 32 46 1",
" 	c None",
".	c #1B3632",
"+	c #03201C",
"@	c #12443E",
"#	c #359589",
"$	c #4DCBBC",
"%	c #57E5D4",
"&	c #349488",
"*	c #12433D",
"=	c #052621",
"-	c #37998D",
";	c #5AECDA",
">	c #5BEEDC",
",	c #5AEBD9",
"'	c #36978C",
")	c #052520",
"!	c #45B9AB",
"~	c #44B8AA",
"{	c #379A8D",
"]	c #58E7D5",
"^	c #35978B",
"/	c #57E5D3",
"(	c #318D81",
"_	c #11433C",
":	c #40AFA2",
"<	c #134640",
"[	c #318C81",
"}	c #349387",
"|	c #4CCCBD",
"1	c #55DFCE",
"2	c #20635B",
"3	c #246C63",
"4	c #54DECD",
"5	c #4CCBBB",
"6	c #49C3B3",
"7	c #144942",
"8	c #41B1A3",
"9	c #56E4D2",
"0	c #4CCABA",
"a	c #54DDCC",
"b	c #56E3D2",
"c	c #339287",
"d	c #12423B",
"e	c #44B7A9",
"f	c #44B8A8",
"g	c #05241F",
"................................",
"++++++++++++++++++++++++++++++++",
"++++++++++++++++++++++++++++++++",
"++++++++++++++++++++++++++++++++",
"++++++++++++++++++++++++++++++++",
"++++++++++++++++++++++++++++++++",
"++++++++++++++++++++++++++++++++",
"++++++++++++++++++++++++++++++++",
"++++++++++++@#$%%$&*++++++++++++",
"++++++++++=-;>>>>>>,')++++++++++",
"+++++++++=!>>>>>>>>>>~)+++++++++",
"+++++++++{>>>>>]]>>>>>^+++++++++",
"++++++++@;>>>/(**(/>>>,_++++++++",
"++++++++#>>>:<[//[<:>>>}++++++++",
"++++++++|>1234>>>>4321>5++++++++",
"++++++++/678>>>>>>>>8769++++++++",
"++++++++90a>>>>>>>>>>a0b++++++++",
"++++++++|>>>>>>>>>>>>>>5++++++++",
"++++++++&>>>>>>>>>>>>>>c++++++++",
"++++++++*,>>>>>>>>>>>>,d++++++++",
"+++++++++'>>>>>>>>>>>>#+++++++++",
"+++++++++)e>>>>>>>>>>fg+++++++++",
"++++++++++)^,>>>>>>,#g++++++++++",
"++++++++++++_}5//5cd++++++++++++",
"++++++++++++++++++++++++++++++++",
"++++++++++++++++++++++++++++++++",
"++++++++++++++++++++++++++++++++",
"++++++++++++++++++++++++++++++++",
"++++++++++++++++++++++++++++++++",
"++++++++++++++++++++++++++++++++",
"++++++++++++++++++++++++++++++++",
"++++++++++++++++++++++++++++++++"};
