/* XPM */
static char * stick_toggled_prelight_xpm[] = {
"32 32 40 1",
" 	c None",
".	c #1B3632",
"+	c #03201C",
"@	c #12443E",
"#	c #359589",
"$	c #4DCBBC",
"%	c #57E5D4",
"&	c #349488",
"*	c #12433D",
"=	c #052621",
"-	c #37998D",
";	c #5AECDA",
">	c #5BEEDC",
",	c #5AEBD9",
"'	c #36978C",
")	c #052520",
"!	c #45B9AB",
"~	c #44B8AA",
"{	c #379A8D",
"]	c #35978B",
"^	c #11433C",
"/	c #55E1D0",
"(	c #389C8F",
"_	c #349387",
":	c #4CCCBD",
"<	c #0E3A34",
"[	c #0F3B34",
"}	c #4CCBBB",
"|	c #57E5D3",
"1	c #56E4D2",
"2	c #379B8E",
"3	c #389D90",
"4	c #56E3D2",
"5	c #0F3C35",
"6	c #56E2D1",
"7	c #339287",
"8	c #12423B",
"9	c #44B7A9",
"0	c #44B8A8",
"a	c #05241F",
"................................",
"++++++++++++++++++++++++++++++++",
"++++++++++++++++++++++++++++++++",
"++++++++++++++++++++++++++++++++",
"++++++++++++++++++++++++++++++++",
"++++++++++++++++++++++++++++++++",
"++++++++++++++++++++++++++++++++",
"++++++++++++++++++++++++++++++++",
"++++++++++++@#$%%$&*++++++++++++",
"++++++++++=-;>>>>>>,')++++++++++",
"+++++++++=!>>>>>>>>>>~)+++++++++",
"+++++++++{>>>>>>>>>>>>]+++++++++",
"++++++++@;>>>>>>>>>>>>,^++++++++",
"++++++++#>>>>>/((/>>>>>_++++++++",
"++++++++:>>>>/<++[/>>>>}++++++++",
"++++++++|>>>>{++++(>>>>1++++++++",
"++++++++1>>>>2++++3>>>>4++++++++",
"++++++++:>>>>/[++56>>>>}++++++++",
"++++++++&>>>>>/336>>>>>7++++++++",
"++++++++*,>>>>>>>>>>>>,8++++++++",
"+++++++++'>>>>>>>>>>>>#+++++++++",
"+++++++++)9>>>>>>>>>>0a+++++++++",
"++++++++++)],>>>>>>,#a++++++++++",
"++++++++++++^_}||}78++++++++++++",
"++++++++++++++++++++++++++++++++",
"++++++++++++++++++++++++++++++++",
"++++++++++++++++++++++++++++++++",
"++++++++++++++++++++++++++++++++",
"++++++++++++++++++++++++++++++++",
"++++++++++++++++++++++++++++++++",
"++++++++++++++++++++++++++++++++",
"++++++++++++++++++++++++++++++++"};
